<?xml version="1.0" encoding="utf-8" standalone="no"?>
<!DOCTYPE svg PUBLIC "-//W3C//DTD SVG 1.1//EN"
  "http://www.w3.org/Graphics/SVG/1.1/DTD/svg11.dtd">
<svg xmlns:xlink="http://www.w3.org/1999/xlink" width="924.48pt" height="348.958125pt" viewBox="0 0 924.48 348.958125" xmlns="http://www.w3.org/2000/svg" version="1.1">
 <metadata>
  <rdf:RDF xmlns:dc="http://purl.org/dc/elements/1.1/" xmlns:cc="http://creativecommons.org/ns#" xmlns:rdf="http://www.w3.org/1999/02/22-rdf-syntax-ns#">
   <cc:Work>
    <dc:type rdf:resource="http://purl.org/dc/dcmitype/StillImage"/>
    <dc:date>2026-03-05T03:55:53.576670</dc:date>
    <dc:format>image/svg+xml</dc:format>
    <dc:creator>
     <cc:Agent>
      <dc:title>Matplotlib v3.10.5, https://matplotlib.org/</dc:title>
     </cc:Agent>
    </dc:creator>
   </cc:Work>
  </rdf:RDF>
 </metadata>
 <defs>
  <style type="text/css">*{stroke-linejoin: round; stroke-linecap: butt}</style>
 </defs>
 <g id="figure_1">
  <g id="patch_1">
   <path d="M 0 348.958125 
L 924.48 348.958125 
L 924.48 0 
L 0 0 
z
" style="fill: #ffffff"/>
  </g>
  <g id="axes_1">
   <g id="patch_2">
    <path d="M 21.201231 116.533965 
L 161.213538 116.533965 
Q 166.814031 116.533965 166.814031 111.486925 
L 166.814031 67.325325 
Q 166.814031 62.278285 161.213538 62.278285 
L 21.201231 62.278285 
Q 15.600738 62.278285 15.600738 67.325325 
L 15.600738 111.486925 
Q 15.600738 116.533965 21.201231 116.533965 
z
" clip-path="url(#p2304211209)" style="fill: #ece9e2; stroke: #2c3e50; stroke-width: 1.2; stroke-linejoin: miter"/>
   </g>
   <g id="patch_3">
    <path d="M 28.201846 196.971165 
L 154.212923 196.971165 
Q 159.813415 196.971165 159.813415 191.924125 
L 159.813415 150.916925 
Q 159.813415 145.869885 154.212923 145.869885 
L 28.201846 145.869885 
Q 22.601354 145.869885 22.601354 150.916925 
L 22.601354 191.924125 
Q 22.601354 196.971165 28.201846 196.971165 
z
" clip-path="url(#p2304211209)" style="fill: #d6eaf8; stroke: #2c3e50; stroke-width: 1.2; stroke-linejoin: miter"/>
   </g>
   <g id="patch_4">
    <path d="M 189.216 196.971165 
L 315.227077 196.971165 
Q 320.827569 196.971165 320.827569 191.924125 
L 320.827569 150.916925 
Q 320.827569 145.869885 315.227077 145.869885 
L 189.216 145.869885 
Q 183.615508 145.869885 183.615508 150.916925 
L 183.615508 191.924125 
Q 183.615508 196.971165 189.216 196.971165 
z
" clip-path="url(#p2304211209)" style="fill: #fdebd0; stroke: #2c3e50; stroke-width: 1.2; stroke-linejoin: miter"/>
   </g>
   <g id="patch_5">
    <path d="M 350.230154 196.971165 
L 476.241231 196.971165 
Q 481.841723 196.971165 481.841723 191.924125 
L 481.841723 150.916925 
Q 481.841723 145.869885 476.241231 145.869885 
L 350.230154 145.869885 
Q 344.629662 145.869885 344.629662 150.916925 
L 344.629662 191.924125 
Q 344.629662 196.971165 350.230154 196.971165 
z
" clip-path="url(#p2304211209)" style="fill: #fdebd0; stroke: #2c3e50; stroke-width: 1.2; stroke-linejoin: miter"/>
   </g>
   <g id="patch_6">
    <path d="M 511.244308 196.971165 
L 637.255385 196.971165 
Q 642.855877 196.971165 642.855877 191.924125 
L 642.855877 150.916925 
Q 642.855877 145.869885 637.255385 145.869885 
L 511.244308 145.869885 
Q 505.643815 145.869885 505.643815 150.916925 
L 505.643815 191.924125 
Q 505.643815 196.971165 511.244308 196.971165 
z
" clip-path="url(#p2304211209)" style="fill: #d6eaf8; stroke: #2c3e50; stroke-width: 1.2; stroke-linejoin: miter"/>
   </g>
   <g id="patch_7">
    <path d="M 105.208615 260.059165 
L 560.248615 260.059165 
Q 565.849108 260.059165 565.849108 255.012125 
L 565.849108 214.004925 
Q 565.849108 208.957885 560.248615 208.957885 
L 105.208615 208.957885 
Q 99.608123 208.957885 99.608123 214.004925 
L 99.608123 255.012125 
Q 99.608123 260.059165 105.208615 260.059165 
z
" clip-path="url(#p2304211209)" style="fill: #ece9e2; stroke: #2c3e50; stroke-width: 1.2; stroke-linejoin: miter"/>
   </g>
   <g id="patch_8">
    <path d="M 105.208615 313.683965 
L 259.222154 313.683965 
Q 264.822646 313.683965 264.822646 308.636925 
L 264.822646 267.629725 
Q 264.822646 262.582685 259.222154 262.582685 
L 105.208615 262.582685 
Q 99.608123 262.582685 99.608123 267.629725 
L 99.608123 308.636925 
Q 99.608123 313.683965 105.208615 313.683965 
z
" clip-path="url(#p2304211209)" style="fill: #d5f5e3; stroke: #2c3e50; stroke-width: 1.2; stroke-linejoin: miter"/>
   </g>
   <g id="patch_9">
    <path d="M 280.224 313.683965 
L 434.237538 313.683965 
Q 439.838031 313.683965 439.838031 308.636925 
L 439.838031 267.629725 
Q 439.838031 262.582685 434.237538 262.582685 
L 280.224 262.582685 
Q 274.623508 262.582685 274.623508 267.629725 
L 274.623508 308.636925 
Q 274.623508 313.683965 280.224 313.683965 
z
" clip-path="url(#p2304211209)" style="fill: #d5f5e3; stroke: #2c3e50; stroke-width: 1.2; stroke-linejoin: miter"/>
   </g>
   <g id="patch_10">
    <path d="M 455.239385 313.683965 
L 609.252923 313.683965 
Q 614.853415 313.683965 614.853415 308.636925 
L 614.853415 267.629725 
Q 614.853415 262.582685 609.252923 262.582685 
L 455.239385 262.582685 
Q 449.638892 262.582685 449.638892 267.629725 
L 449.638892 308.636925 
Q 449.638892 313.683965 455.239385 313.683965 
z
" clip-path="url(#p2304211209)" style="fill: #d5f5e3; stroke: #2c3e50; stroke-width: 1.2; stroke-linejoin: miter"/>
   </g>
   <g id="patch_11">
    <path d="M 665.257846 313.683965 
L 819.271385 313.683965 
Q 824.871877 313.683965 824.871877 308.636925 
L 824.871877 267.629725 
Q 824.871877 262.582685 819.271385 262.582685 
L 665.257846 262.582685 
Q 659.657354 262.582685 659.657354 267.629725 
L 659.657354 308.636925 
Q 659.657354 313.683965 665.257846 313.683965 
z
" clip-path="url(#p2304211209)" style="fill: #fadbd8; stroke: #2c3e50; stroke-width: 1.2; stroke-linejoin: miter"/>
   </g>
   <g id="text_1">
    <!-- ClinVar -->
    <g style="fill: #262626" transform="translate(73.125119 81.811531) scale(0.09 -0.09)">
     <defs>
      <path id="DejaVuSans-Bold-43" d="M 4288 256 
Q 3956 84 3597 -3 
Q 3238 -91 2847 -91 
Q 1681 -91 1000 561 
Q 319 1213 319 2328 
Q 319 3447 1000 4098 
Q 1681 4750 2847 4750 
Q 3238 4750 3597 4662 
Q 3956 4575 4288 4403 
L 4288 3438 
Q 3953 3666 3628 3772 
Q 3303 3878 2944 3878 
Q 2300 3878 1931 3465 
Q 1563 3053 1563 2328 
Q 1563 1606 1931 1193 
Q 2300 781 2944 781 
Q 3303 781 3628 887 
Q 3953 994 4288 1222 
L 4288 256 
z
" transform="scale(0.015625)"/>
      <path id="DejaVuSans-Bold-6c" d="M 538 4863 
L 1656 4863 
L 1656 0 
L 538 0 
L 538 4863 
z
" transform="scale(0.015625)"/>
      <path id="DejaVuSans-Bold-69" d="M 538 3500 
L 1656 3500 
L 1656 0 
L 538 0 
L 538 3500 
z
M 538 4863 
L 1656 4863 
L 1656 3950 
L 538 3950 
L 538 4863 
z
" transform="scale(0.015625)"/>
      <path id="DejaVuSans-Bold-6e" d="M 4056 2131 
L 4056 0 
L 2931 0 
L 2931 347 
L 2931 1631 
Q 2931 2084 2911 2256 
Q 2891 2428 2841 2509 
Q 2775 2619 2662 2680 
Q 2550 2741 2406 2741 
Q 2056 2741 1856 2470 
Q 1656 2200 1656 1722 
L 1656 0 
L 538 0 
L 538 3500 
L 1656 3500 
L 1656 2988 
Q 1909 3294 2193 3439 
Q 2478 3584 2822 3584 
Q 3428 3584 3742 3212 
Q 4056 2841 4056 2131 
z
" transform="scale(0.015625)"/>
      <path id="DejaVuSans-Bold-56" d="M 31 4666 
L 1241 4666 
L 2478 1222 
L 3713 4666 
L 4922 4666 
L 3194 0 
L 1759 0 
L 31 4666 
z
" transform="scale(0.015625)"/>
      <path id="DejaVuSans-Bold-61" d="M 2106 1575 
Q 1756 1575 1579 1456 
Q 1403 1338 1403 1106 
Q 1403 894 1545 773 
Q 1688 653 1941 653 
Q 2256 653 2472 879 
Q 2688 1106 2688 1447 
L 2688 1575 
L 2106 1575 
z
M 3816 1997 
L 3816 0 
L 2688 0 
L 2688 519 
Q 2463 200 2181 54 
Q 1900 -91 1497 -91 
Q 953 -91 614 226 
Q 275 544 275 1050 
Q 275 1666 698 1953 
Q 1122 2241 2028 2241 
L 2688 2241 
L 2688 2328 
Q 2688 2594 2478 2717 
Q 2269 2841 1825 2841 
Q 1466 2841 1156 2769 
Q 847 2697 581 2553 
L 581 3406 
Q 941 3494 1303 3539 
Q 1666 3584 2028 3584 
Q 2975 3584 3395 3211 
Q 3816 2838 3816 1997 
z
" transform="scale(0.015625)"/>
      <path id="DejaVuSans-Bold-72" d="M 3138 2547 
Q 2991 2616 2845 2648 
Q 2700 2681 2553 2681 
Q 2122 2681 1889 2404 
Q 1656 2128 1656 1613 
L 1656 0 
L 538 0 
L 538 3500 
L 1656 3500 
L 1656 2925 
Q 1872 3269 2151 3426 
Q 2431 3584 2822 3584 
Q 2878 3584 2943 3579 
Q 3009 3575 3134 3559 
L 3138 2547 
z
" transform="scale(0.015625)"/>
     </defs>
     <use xlink:href="#DejaVuSans-Bold-43"/>
     <use xlink:href="#DejaVuSans-Bold-6c" transform="translate(73.388672 0)"/>
     <use xlink:href="#DejaVuSans-Bold-69" transform="translate(107.666016 0)"/>
     <use xlink:href="#DejaVuSans-Bold-6e" transform="translate(141.943359 0)"/>
     <use xlink:href="#DejaVuSans-Bold-56" transform="translate(213.134766 0)"/>
     <use xlink:href="#DejaVuSans-Bold-61" transform="translate(285.027344 0)"/>
     <use xlink:href="#DejaVuSans-Bold-72" transform="translate(352.507812 0)"/>
    </g>
    <!-- Variants -->
    <g style="fill: #262626" transform="translate(70.104494 91.889562) scale(0.09 -0.09)">
     <defs>
      <path id="DejaVuSans-Bold-74" d="M 1759 4494 
L 1759 3500 
L 2913 3500 
L 2913 2700 
L 1759 2700 
L 1759 1216 
Q 1759 972 1856 886 
Q 1953 800 2241 800 
L 2816 800 
L 2816 0 
L 1856 0 
Q 1194 0 917 276 
Q 641 553 641 1216 
L 641 2700 
L 84 2700 
L 84 3500 
L 641 3500 
L 641 4494 
L 1759 4494 
z
" transform="scale(0.015625)"/>
      <path id="DejaVuSans-Bold-73" d="M 3272 3391 
L 3272 2541 
Q 2913 2691 2578 2766 
Q 2244 2841 1947 2841 
Q 1628 2841 1473 2761 
Q 1319 2681 1319 2516 
Q 1319 2381 1436 2309 
Q 1553 2238 1856 2203 
L 2053 2175 
Q 2913 2066 3209 1816 
Q 3506 1566 3506 1031 
Q 3506 472 3093 190 
Q 2681 -91 1863 -91 
Q 1516 -91 1145 -36 
Q 775 19 384 128 
L 384 978 
Q 719 816 1070 734 
Q 1422 653 1784 653 
Q 2113 653 2278 743 
Q 2444 834 2444 1013 
Q 2444 1163 2330 1236 
Q 2216 1309 1875 1350 
L 1678 1375 
Q 931 1469 631 1722 
Q 331 1975 331 2491 
Q 331 3047 712 3315 
Q 1094 3584 1881 3584 
Q 2191 3584 2531 3537 
Q 2872 3491 3272 3391 
z
" transform="scale(0.015625)"/>
     </defs>
     <use xlink:href="#DejaVuSans-Bold-56"/>
     <use xlink:href="#DejaVuSans-Bold-61" transform="translate(71.892578 0)"/>
     <use xlink:href="#DejaVuSans-Bold-72" transform="translate(139.373047 0)"/>
     <use xlink:href="#DejaVuSans-Bold-69" transform="translate(188.689453 0)"/>
     <use xlink:href="#DejaVuSans-Bold-61" transform="translate(222.966797 0)"/>
     <use xlink:href="#DejaVuSans-Bold-6e" transform="translate(290.447266 0)"/>
     <use xlink:href="#DejaVuSans-Bold-74" transform="translate(361.638672 0)"/>
     <use xlink:href="#DejaVuSans-Bold-73" transform="translate(409.441406 0)"/>
    </g>
    <!-- (2,000 SNVs) -->
    <g style="fill: #262626" transform="translate(58.12676 101.967594) scale(0.09 -0.09)">
     <defs>
      <path id="DejaVuSans-Bold-28" d="M 2413 -844 
L 1484 -844 
Q 1006 -72 778 623 
Q 550 1319 550 2003 
Q 550 2688 779 3389 
Q 1009 4091 1484 4856 
L 2413 4856 
Q 2013 4116 1813 3408 
Q 1613 2700 1613 2009 
Q 1613 1319 1811 609 
Q 2009 -100 2413 -844 
z
" transform="scale(0.015625)"/>
      <path id="DejaVuSans-Bold-32" d="M 1844 884 
L 3897 884 
L 3897 0 
L 506 0 
L 506 884 
L 2209 2388 
Q 2438 2594 2547 2791 
Q 2656 2988 2656 3200 
Q 2656 3528 2436 3728 
Q 2216 3928 1850 3928 
Q 1569 3928 1234 3808 
Q 900 3688 519 3450 
L 519 4475 
Q 925 4609 1322 4679 
Q 1719 4750 2100 4750 
Q 2938 4750 3402 4381 
Q 3866 4013 3866 3353 
Q 3866 2972 3669 2642 
Q 3472 2313 2841 1759 
L 1844 884 
z
" transform="scale(0.015625)"/>
      <path id="DejaVuSans-Bold-2c" d="M 653 1209 
L 1778 1209 
L 1778 256 
L 1006 -909 
L 341 -909 
L 653 256 
L 653 1209 
z
" transform="scale(0.015625)"/>
      <path id="DejaVuSans-Bold-30" d="M 2944 2338 
Q 2944 3213 2780 3570 
Q 2616 3928 2228 3928 
Q 1841 3928 1675 3570 
Q 1509 3213 1509 2338 
Q 1509 1453 1675 1090 
Q 1841 728 2228 728 
Q 2613 728 2778 1090 
Q 2944 1453 2944 2338 
z
M 4147 2328 
Q 4147 1169 3647 539 
Q 3147 -91 2228 -91 
Q 1306 -91 806 539 
Q 306 1169 306 2328 
Q 306 3491 806 4120 
Q 1306 4750 2228 4750 
Q 3147 4750 3647 4120 
Q 4147 3491 4147 2328 
z
" transform="scale(0.015625)"/>
      <path id="DejaVuSans-Bold-20" transform="scale(0.015625)"/>
      <path id="DejaVuSans-Bold-53" d="M 3834 4519 
L 3834 3531 
Q 3450 3703 3084 3790 
Q 2719 3878 2394 3878 
Q 1963 3878 1756 3759 
Q 1550 3641 1550 3391 
Q 1550 3203 1689 3098 
Q 1828 2994 2194 2919 
L 2706 2816 
Q 3484 2659 3812 2340 
Q 4141 2022 4141 1434 
Q 4141 663 3683 286 
Q 3225 -91 2284 -91 
Q 1841 -91 1394 -6 
Q 947 78 500 244 
L 500 1259 
Q 947 1022 1364 901 
Q 1781 781 2169 781 
Q 2563 781 2772 912 
Q 2981 1044 2981 1288 
Q 2981 1506 2839 1625 
Q 2697 1744 2272 1838 
L 1806 1941 
Q 1106 2091 782 2419 
Q 459 2747 459 3303 
Q 459 4000 909 4375 
Q 1359 4750 2203 4750 
Q 2588 4750 2994 4692 
Q 3400 4634 3834 4519 
z
" transform="scale(0.015625)"/>
      <path id="DejaVuSans-Bold-4e" d="M 588 4666 
L 1931 4666 
L 3628 1466 
L 3628 4666 
L 4769 4666 
L 4769 0 
L 3425 0 
L 1728 3200 
L 1728 0 
L 588 0 
L 588 4666 
z
" transform="scale(0.015625)"/>
      <path id="DejaVuSans-Bold-29" d="M 513 -844 
Q 913 -100 1113 609 
Q 1313 1319 1313 2009 
Q 1313 2700 1113 3408 
Q 913 4116 513 4856 
L 1441 4856 
Q 1916 4091 2145 3389 
Q 2375 2688 2375 2003 
Q 2375 1319 2147 623 
Q 1919 -72 1441 -844 
L 513 -844 
z
" transform="scale(0.015625)"/>
     </defs>
     <use xlink:href="#DejaVuSans-Bold-28"/>
     <use xlink:href="#DejaVuSans-Bold-32" transform="translate(45.703125 0)"/>
     <use xlink:href="#DejaVuSans-Bold-2c" transform="translate(115.283203 0)"/>
     <use xlink:href="#DejaVuSans-Bold-30" transform="translate(153.271484 0)"/>
     <use xlink:href="#DejaVuSans-Bold-30" transform="translate(222.851562 0)"/>
     <use xlink:href="#DejaVuSans-Bold-30" transform="translate(292.431641 0)"/>
     <use xlink:href="#DejaVuSans-Bold-20" transform="translate(362.011719 0)"/>
     <use xlink:href="#DejaVuSans-Bold-53" transform="translate(396.826172 0)"/>
     <use xlink:href="#DejaVuSans-Bold-4e" transform="translate(468.847656 0)"/>
     <use xlink:href="#DejaVuSans-Bold-56" transform="translate(552.539062 0)"/>
     <use xlink:href="#DejaVuSans-Bold-73" transform="translate(629.931641 0)"/>
     <use xlink:href="#DejaVuSans-Bold-29" transform="translate(689.453125 0)"/>
    </g>
   </g>
   <g id="text_2">
    <!-- Ensembl VEP -->
    <g style="fill: #262626" transform="translate(65.106135 164.669775) scale(0.08 -0.08)">
     <defs>
      <path id="DejaVuSans-45" d="M 628 4666 
L 3578 4666 
L 3578 4134 
L 1259 4134 
L 1259 2753 
L 3481 2753 
L 3481 2222 
L 1259 2222 
L 1259 531 
L 3634 531 
L 3634 0 
L 628 0 
L 628 4666 
z
" transform="scale(0.015625)"/>
      <path id="DejaVuSans-6e" d="M 3513 2113 
L 3513 0 
L 2938 0 
L 2938 2094 
Q 2938 2591 2744 2837 
Q 2550 3084 2163 3084 
Q 1697 3084 1428 2787 
Q 1159 2491 1159 1978 
L 1159 0 
L 581 0 
L 581 3500 
L 1159 3500 
L 1159 2956 
Q 1366 3272 1645 3428 
Q 1925 3584 2291 3584 
Q 2894 3584 3203 3211 
Q 3513 2838 3513 2113 
z
" transform="scale(0.015625)"/>
      <path id="DejaVuSans-73" d="M 2834 3397 
L 2834 2853 
Q 2591 2978 2328 3040 
Q 2066 3103 1784 3103 
Q 1356 3103 1142 2972 
Q 928 2841 928 2578 
Q 928 2378 1081 2264 
Q 1234 2150 1697 2047 
L 1894 2003 
Q 2506 1872 2764 1633 
Q 3022 1394 3022 966 
Q 3022 478 2636 193 
Q 2250 -91 1575 -91 
Q 1294 -91 989 -36 
Q 684 19 347 128 
L 347 722 
Q 666 556 975 473 
Q 1284 391 1588 391 
Q 1994 391 2212 530 
Q 2431 669 2431 922 
Q 2431 1156 2273 1281 
Q 2116 1406 1581 1522 
L 1381 1569 
Q 847 1681 609 1914 
Q 372 2147 372 2553 
Q 372 3047 722 3315 
Q 1072 3584 1716 3584 
Q 2034 3584 2315 3537 
Q 2597 3491 2834 3397 
z
" transform="scale(0.015625)"/>
      <path id="DejaVuSans-65" d="M 3597 1894 
L 3597 1613 
L 953 1613 
Q 991 1019 1311 708 
Q 1631 397 2203 397 
Q 2534 397 2845 478 
Q 3156 559 3463 722 
L 3463 178 
Q 3153 47 2828 -22 
Q 2503 -91 2169 -91 
Q 1331 -91 842 396 
Q 353 884 353 1716 
Q 353 2575 817 3079 
Q 1281 3584 2069 3584 
Q 2775 3584 3186 3129 
Q 3597 2675 3597 1894 
z
M 3022 2063 
Q 3016 2534 2758 2815 
Q 2500 3097 2075 3097 
Q 1594 3097 1305 2825 
Q 1016 2553 972 2059 
L 3022 2063 
z
" transform="scale(0.015625)"/>
      <path id="DejaVuSans-6d" d="M 3328 2828 
Q 3544 3216 3844 3400 
Q 4144 3584 4550 3584 
Q 5097 3584 5394 3201 
Q 5691 2819 5691 2113 
L 5691 0 
L 5113 0 
L 5113 2094 
Q 5113 2597 4934 2840 
Q 4756 3084 4391 3084 
Q 3944 3084 3684 2787 
Q 3425 2491 3425 1978 
L 3425 0 
L 2847 0 
L 2847 2094 
Q 2847 2600 2669 2842 
Q 2491 3084 2119 3084 
Q 1678 3084 1418 2786 
Q 1159 2488 1159 1978 
L 1159 0 
L 581 0 
L 581 3500 
L 1159 3500 
L 1159 2956 
Q 1356 3278 1631 3431 
Q 1906 3584 2284 3584 
Q 2666 3584 2933 3390 
Q 3200 3197 3328 2828 
z
" transform="scale(0.015625)"/>
      <path id="DejaVuSans-62" d="M 3116 1747 
Q 3116 2381 2855 2742 
Q 2594 3103 2138 3103 
Q 1681 3103 1420 2742 
Q 1159 2381 1159 1747 
Q 1159 1113 1420 752 
Q 1681 391 2138 391 
Q 2594 391 2855 752 
Q 3116 1113 3116 1747 
z
M 1159 2969 
Q 1341 3281 1617 3432 
Q 1894 3584 2278 3584 
Q 2916 3584 3314 3078 
Q 3713 2572 3713 1747 
Q 3713 922 3314 415 
Q 2916 -91 2278 -91 
Q 1894 -91 1617 61 
Q 1341 213 1159 525 
L 1159 0 
L 581 0 
L 581 4863 
L 1159 4863 
L 1159 2969 
z
" transform="scale(0.015625)"/>
      <path id="DejaVuSans-6c" d="M 603 4863 
L 1178 4863 
L 1178 0 
L 603 0 
L 603 4863 
z
" transform="scale(0.015625)"/>
      <path id="DejaVuSans-20" transform="scale(0.015625)"/>
      <path id="DejaVuSans-56" d="M 1831 0 
L 50 4666 
L 709 4666 
L 2188 738 
L 3669 4666 
L 4325 4666 
L 2547 0 
L 1831 0 
z
" transform="scale(0.015625)"/>
      <path id="DejaVuSans-50" d="M 1259 4147 
L 1259 2394 
L 2053 2394 
Q 2494 2394 2734 2622 
Q 2975 2850 2975 3272 
Q 2975 3691 2734 3919 
Q 2494 4147 2053 4147 
L 1259 4147 
z
M 628 4666 
L 2053 4666 
Q 2838 4666 3239 4311 
Q 3641 3956 3641 3272 
Q 3641 2581 3239 2228 
Q 2838 1875 2053 1875 
L 1259 1875 
L 1259 0 
L 628 0 
L 628 4666 
z
" transform="scale(0.015625)"/>
     </defs>
     <use xlink:href="#DejaVuSans-45"/>
     <use xlink:href="#DejaVuSans-6e" transform="translate(63.183594 0)"/>
     <use xlink:href="#DejaVuSans-73" transform="translate(126.5625 0)"/>
     <use xlink:href="#DejaVuSans-65" transform="translate(178.662109 0)"/>
     <use xlink:href="#DejaVuSans-6d" transform="translate(240.185547 0)"/>
     <use xlink:href="#DejaVuSans-62" transform="translate(337.597656 0)"/>
     <use xlink:href="#DejaVuSans-6c" transform="translate(401.074219 0)"/>
     <use xlink:href="#DejaVuSans-20" transform="translate(428.857422 0)"/>
     <use xlink:href="#DejaVuSans-56" transform="translate(460.644531 0)"/>
     <use xlink:href="#DejaVuSans-45" transform="translate(529.052734 0)"/>
     <use xlink:href="#DejaVuSans-50" transform="translate(592.236328 0)"/>
    </g>
    <!-- SIFT·PP2·AM·CADD -->
    <g style="fill: #262626" transform="translate(53.754885 173.628025) scale(0.08 -0.08)">
     <defs>
      <path id="DejaVuSans-53" d="M 3425 4513 
L 3425 3897 
Q 3066 4069 2747 4153 
Q 2428 4238 2131 4238 
Q 1616 4238 1336 4038 
Q 1056 3838 1056 3469 
Q 1056 3159 1242 3001 
Q 1428 2844 1947 2747 
L 2328 2669 
Q 3034 2534 3370 2195 
Q 3706 1856 3706 1288 
Q 3706 609 3251 259 
Q 2797 -91 1919 -91 
Q 1588 -91 1214 -16 
Q 841 59 441 206 
L 441 856 
Q 825 641 1194 531 
Q 1563 422 1919 422 
Q 2459 422 2753 634 
Q 3047 847 3047 1241 
Q 3047 1584 2836 1778 
Q 2625 1972 2144 2069 
L 1759 2144 
Q 1053 2284 737 2584 
Q 422 2884 422 3419 
Q 422 4038 858 4394 
Q 1294 4750 2059 4750 
Q 2388 4750 2728 4690 
Q 3069 4631 3425 4513 
z
" transform="scale(0.015625)"/>
      <path id="DejaVuSans-49" d="M 628 4666 
L 1259 4666 
L 1259 0 
L 628 0 
L 628 4666 
z
" transform="scale(0.015625)"/>
      <path id="DejaVuSans-46" d="M 628 4666 
L 3309 4666 
L 3309 4134 
L 1259 4134 
L 1259 2759 
L 3109 2759 
L 3109 2228 
L 1259 2228 
L 1259 0 
L 628 0 
L 628 4666 
z
" transform="scale(0.015625)"/>
      <path id="DejaVuSans-54" d="M -19 4666 
L 3928 4666 
L 3928 4134 
L 2272 4134 
L 2272 0 
L 1638 0 
L 1638 4134 
L -19 4134 
L -19 4666 
z
" transform="scale(0.015625)"/>
      <path id="DejaVuSans-b7" d="M 684 2619 
L 1344 2619 
L 1344 1825 
L 684 1825 
L 684 2619 
z
" transform="scale(0.015625)"/>
      <path id="DejaVuSans-32" d="M 1228 531 
L 3431 531 
L 3431 0 
L 469 0 
L 469 531 
Q 828 903 1448 1529 
Q 2069 2156 2228 2338 
Q 2531 2678 2651 2914 
Q 2772 3150 2772 3378 
Q 2772 3750 2511 3984 
Q 2250 4219 1831 4219 
Q 1534 4219 1204 4116 
Q 875 4013 500 3803 
L 500 4441 
Q 881 4594 1212 4672 
Q 1544 4750 1819 4750 
Q 2544 4750 2975 4387 
Q 3406 4025 3406 3419 
Q 3406 3131 3298 2873 
Q 3191 2616 2906 2266 
Q 2828 2175 2409 1742 
Q 1991 1309 1228 531 
z
" transform="scale(0.015625)"/>
      <path id="DejaVuSans-41" d="M 2188 4044 
L 1331 1722 
L 3047 1722 
L 2188 4044 
z
M 1831 4666 
L 2547 4666 
L 4325 0 
L 3669 0 
L 3244 1197 
L 1141 1197 
L 716 0 
L 50 0 
L 1831 4666 
z
" transform="scale(0.015625)"/>
      <path id="DejaVuSans-4d" d="M 628 4666 
L 1569 4666 
L 2759 1491 
L 3956 4666 
L 4897 4666 
L 4897 0 
L 4281 0 
L 4281 4097 
L 3078 897 
L 2444 897 
L 1241 4097 
L 1241 0 
L 628 0 
L 628 4666 
z
" transform="scale(0.015625)"/>
      <path id="DejaVuSans-43" d="M 4122 4306 
L 4122 3641 
Q 3803 3938 3442 4084 
Q 3081 4231 2675 4231 
Q 1875 4231 1450 3742 
Q 1025 3253 1025 2328 
Q 1025 1406 1450 917 
Q 1875 428 2675 428 
Q 3081 428 3442 575 
Q 3803 722 4122 1019 
L 4122 359 
Q 3791 134 3420 21 
Q 3050 -91 2638 -91 
Q 1578 -91 968 557 
Q 359 1206 359 2328 
Q 359 3453 968 4101 
Q 1578 4750 2638 4750 
Q 3056 4750 3426 4639 
Q 3797 4528 4122 4306 
z
" transform="scale(0.015625)"/>
      <path id="DejaVuSans-44" d="M 1259 4147 
L 1259 519 
L 2022 519 
Q 2988 519 3436 956 
Q 3884 1394 3884 2338 
Q 3884 3275 3436 3711 
Q 2988 4147 2022 4147 
L 1259 4147 
z
M 628 4666 
L 1925 4666 
Q 3281 4666 3915 4102 
Q 4550 3538 4550 2338 
Q 4550 1131 3912 565 
Q 3275 0 1925 0 
L 628 0 
L 628 4666 
z
" transform="scale(0.015625)"/>
     </defs>
     <use xlink:href="#DejaVuSans-53"/>
     <use xlink:href="#DejaVuSans-49" transform="translate(63.476562 0)"/>
     <use xlink:href="#DejaVuSans-46" transform="translate(92.96875 0)"/>
     <use xlink:href="#DejaVuSans-54" transform="translate(148.738281 0)"/>
     <use xlink:href="#DejaVuSans-b7" transform="translate(209.822266 0)"/>
     <use xlink:href="#DejaVuSans-50" transform="translate(241.609375 0)"/>
     <use xlink:href="#DejaVuSans-50" transform="translate(301.912109 0)"/>
     <use xlink:href="#DejaVuSans-32" transform="translate(362.214844 0)"/>
     <use xlink:href="#DejaVuSans-b7" transform="translate(425.837891 0)"/>
     <use xlink:href="#DejaVuSans-41" transform="translate(457.625 0)"/>
     <use xlink:href="#DejaVuSans-4d" transform="translate(526.033203 0)"/>
     <use xlink:href="#DejaVuSans-b7" transform="translate(612.3125 0)"/>
     <use xlink:href="#DejaVuSans-43" transform="translate(644.099609 0)"/>
     <use xlink:href="#DejaVuSans-41" transform="translate(713.923828 0)"/>
     <use xlink:href="#DejaVuSans-44" transform="translate(782.332031 0)"/>
     <use xlink:href="#DejaVuSans-44" transform="translate(859.333984 0)"/>
    </g>
    <!-- phyloP -->
    <g style="fill: #262626" transform="translate(77.794885 182.586275) scale(0.08 -0.08)">
     <defs>
      <path id="DejaVuSans-70" d="M 1159 525 
L 1159 -1331 
L 581 -1331 
L 581 3500 
L 1159 3500 
L 1159 2969 
Q 1341 3281 1617 3432 
Q 1894 3584 2278 3584 
Q 2916 3584 3314 3078 
Q 3713 2572 3713 1747 
Q 3713 922 3314 415 
Q 2916 -91 2278 -91 
Q 1894 -91 1617 61 
Q 1341 213 1159 525 
z
M 3116 1747 
Q 3116 2381 2855 2742 
Q 2594 3103 2138 3103 
Q 1681 3103 1420 2742 
Q 1159 2381 1159 1747 
Q 1159 1113 1420 752 
Q 1681 391 2138 391 
Q 2594 391 2855 752 
Q 3116 1113 3116 1747 
z
" transform="scale(0.015625)"/>
      <path id="DejaVuSans-68" d="M 3513 2113 
L 3513 0 
L 2938 0 
L 2938 2094 
Q 2938 2591 2744 2837 
Q 2550 3084 2163 3084 
Q 1697 3084 1428 2787 
Q 1159 2491 1159 1978 
L 1159 0 
L 581 0 
L 581 4863 
L 1159 4863 
L 1159 2956 
Q 1366 3272 1645 3428 
Q 1925 3584 2291 3584 
Q 2894 3584 3203 3211 
Q 3513 2838 3513 2113 
z
" transform="scale(0.015625)"/>
      <path id="DejaVuSans-79" d="M 2059 -325 
Q 1816 -950 1584 -1140 
Q 1353 -1331 966 -1331 
L 506 -1331 
L 506 -850 
L 844 -850 
Q 1081 -850 1212 -737 
Q 1344 -625 1503 -206 
L 1606 56 
L 191 3500 
L 800 3500 
L 1894 763 
L 2988 3500 
L 3597 3500 
L 2059 -325 
z
" transform="scale(0.015625)"/>
      <path id="DejaVuSans-6f" d="M 1959 3097 
Q 1497 3097 1228 2736 
Q 959 2375 959 1747 
Q 959 1119 1226 758 
Q 1494 397 1959 397 
Q 2419 397 2687 759 
Q 2956 1122 2956 1747 
Q 2956 2369 2687 2733 
Q 2419 3097 1959 3097 
z
M 1959 3584 
Q 2709 3584 3137 3096 
Q 3566 2609 3566 1747 
Q 3566 888 3137 398 
Q 2709 -91 1959 -91 
Q 1206 -91 779 398 
Q 353 888 353 1747 
Q 353 2609 779 3096 
Q 1206 3584 1959 3584 
z
" transform="scale(0.015625)"/>
     </defs>
     <use xlink:href="#DejaVuSans-70"/>
     <use xlink:href="#DejaVuSans-68" transform="translate(63.476562 0)"/>
     <use xlink:href="#DejaVuSans-79" transform="translate(126.855469 0)"/>
     <use xlink:href="#DejaVuSans-6c" transform="translate(186.035156 0)"/>
     <use xlink:href="#DejaVuSans-6f" transform="translate(213.818359 0)"/>
     <use xlink:href="#DejaVuSans-50" transform="translate(275 0)"/>
    </g>
   </g>
   <g id="text_3">
    <!-- NVIDIA NIM -->
    <g style="fill: #262626" transform="translate(229.421538 164.669775) scale(0.08 -0.08)">
     <defs>
      <path id="DejaVuSans-4e" d="M 628 4666 
L 1478 4666 
L 3547 763 
L 3547 4666 
L 4159 4666 
L 4159 0 
L 3309 0 
L 1241 3903 
L 1241 0 
L 628 0 
L 628 4666 
z
" transform="scale(0.015625)"/>
     </defs>
     <use xlink:href="#DejaVuSans-4e"/>
     <use xlink:href="#DejaVuSans-56" transform="translate(74.804688 0)"/>
     <use xlink:href="#DejaVuSans-49" transform="translate(143.212891 0)"/>
     <use xlink:href="#DejaVuSans-44" transform="translate(172.705078 0)"/>
     <use xlink:href="#DejaVuSans-49" transform="translate(249.707031 0)"/>
     <use xlink:href="#DejaVuSans-41" transform="translate(279.199219 0)"/>
     <use xlink:href="#DejaVuSans-20" transform="translate(347.607422 0)"/>
     <use xlink:href="#DejaVuSans-4e" transform="translate(379.394531 0)"/>
     <use xlink:href="#DejaVuSans-49" transform="translate(454.199219 0)"/>
     <use xlink:href="#DejaVuSans-4d" transform="translate(483.691406 0)"/>
    </g>
    <!-- Evo2-40B -->
    <g style="fill: #262626" transform="translate(233.056538 173.628025) scale(0.08 -0.08)">
     <defs>
      <path id="DejaVuSans-76" d="M 191 3500 
L 800 3500 
L 1894 563 
L 2988 3500 
L 3597 3500 
L 2284 0 
L 1503 0 
L 191 3500 
z
" transform="scale(0.015625)"/>
      <path id="DejaVuSans-2d" d="M 313 2009 
L 1997 2009 
L 1997 1497 
L 313 1497 
L 313 2009 
z
" transform="scale(0.015625)"/>
      <path id="DejaVuSans-34" d="M 2419 4116 
L 825 1625 
L 2419 1625 
L 2419 4116 
z
M 2253 4666 
L 3047 4666 
L 3047 1625 
L 3713 1625 
L 3713 1100 
L 3047 1100 
L 3047 0 
L 2419 0 
L 2419 1100 
L 313 1100 
L 313 1709 
L 2253 4666 
z
" transform="scale(0.015625)"/>
      <path id="DejaVuSans-30" d="M 2034 4250 
Q 1547 4250 1301 3770 
Q 1056 3291 1056 2328 
Q 1056 1369 1301 889 
Q 1547 409 2034 409 
Q 2525 409 2770 889 
Q 3016 1369 3016 2328 
Q 3016 3291 2770 3770 
Q 2525 4250 2034 4250 
z
M 2034 4750 
Q 2819 4750 3233 4129 
Q 3647 3509 3647 2328 
Q 3647 1150 3233 529 
Q 2819 -91 2034 -91 
Q 1250 -91 836 529 
Q 422 1150 422 2328 
Q 422 3509 836 4129 
Q 1250 4750 2034 4750 
z
" transform="scale(0.015625)"/>
      <path id="DejaVuSans-42" d="M 1259 2228 
L 1259 519 
L 2272 519 
Q 2781 519 3026 730 
Q 3272 941 3272 1375 
Q 3272 1813 3026 2020 
Q 2781 2228 2272 2228 
L 1259 2228 
z
M 1259 4147 
L 1259 2741 
L 2194 2741 
Q 2656 2741 2882 2914 
Q 3109 3088 3109 3444 
Q 3109 3797 2882 3972 
Q 2656 4147 2194 4147 
L 1259 4147 
z
M 628 4666 
L 2241 4666 
Q 2963 4666 3353 4366 
Q 3744 4066 3744 3513 
Q 3744 3084 3544 2831 
Q 3344 2578 2956 2516 
Q 3422 2416 3680 2098 
Q 3938 1781 3938 1306 
Q 3938 681 3513 340 
Q 3088 0 2303 0 
L 628 0 
L 628 4666 
z
" transform="scale(0.015625)"/>
     </defs>
     <use xlink:href="#DejaVuSans-45"/>
     <use xlink:href="#DejaVuSans-76" transform="translate(63.183594 0)"/>
     <use xlink:href="#DejaVuSans-6f" transform="translate(122.363281 0)"/>
     <use xlink:href="#DejaVuSans-32" transform="translate(183.544922 0)"/>
     <use xlink:href="#DejaVuSans-2d" transform="translate(247.167969 0)"/>
     <use xlink:href="#DejaVuSans-34" transform="translate(283.251953 0)"/>
     <use xlink:href="#DejaVuSans-30" transform="translate(346.875 0)"/>
     <use xlink:href="#DejaVuSans-42" transform="translate(410.498047 0)"/>
    </g>
    <!-- (LLR) -->
    <g style="fill: #262626" transform="translate(241.863413 182.586275) scale(0.08 -0.08)">
     <defs>
      <path id="DejaVuSans-28" d="M 1984 4856 
Q 1566 4138 1362 3434 
Q 1159 2731 1159 2009 
Q 1159 1288 1364 580 
Q 1569 -128 1984 -844 
L 1484 -844 
Q 1016 -109 783 600 
Q 550 1309 550 2009 
Q 550 2706 781 3412 
Q 1013 4119 1484 4856 
L 1984 4856 
z
" transform="scale(0.015625)"/>
      <path id="DejaVuSans-4c" d="M 628 4666 
L 1259 4666 
L 1259 531 
L 3531 531 
L 3531 0 
L 628 0 
L 628 4666 
z
" transform="scale(0.015625)"/>
      <path id="DejaVuSans-52" d="M 2841 2188 
Q 3044 2119 3236 1894 
Q 3428 1669 3622 1275 
L 4263 0 
L 3584 0 
L 2988 1197 
Q 2756 1666 2539 1819 
Q 2322 1972 1947 1972 
L 1259 1972 
L 1259 0 
L 628 0 
L 628 4666 
L 2053 4666 
Q 2853 4666 3247 4331 
Q 3641 3997 3641 3322 
Q 3641 2881 3436 2590 
Q 3231 2300 2841 2188 
z
M 1259 4147 
L 1259 2491 
L 2053 2491 
Q 2509 2491 2742 2702 
Q 2975 2913 2975 3322 
Q 2975 3731 2742 3939 
Q 2509 4147 2053 4147 
L 1259 4147 
z
" transform="scale(0.015625)"/>
      <path id="DejaVuSans-29" d="M 513 4856 
L 1013 4856 
Q 1481 4119 1714 3412 
Q 1947 2706 1947 2009 
Q 1947 1309 1714 600 
Q 1481 -109 1013 -844 
L 513 -844 
Q 928 -128 1133 580 
Q 1338 1288 1338 2009 
Q 1338 2731 1133 3434 
Q 928 4138 513 4856 
z
" transform="scale(0.015625)"/>
     </defs>
     <use xlink:href="#DejaVuSans-28"/>
     <use xlink:href="#DejaVuSans-4c" transform="translate(39.013672 0)"/>
     <use xlink:href="#DejaVuSans-4c" transform="translate(94.726562 0)"/>
     <use xlink:href="#DejaVuSans-52" transform="translate(150.439453 0)"/>
     <use xlink:href="#DejaVuSans-29" transform="translate(219.921875 0)"/>
    </g>
   </g>
   <g id="text_4">
    <!-- Stomics Cloud -->
    <g style="fill: #262626" transform="translate(384.692567 164.669775) scale(0.08 -0.08)">
     <defs>
      <path id="DejaVuSans-74" d="M 1172 4494 
L 1172 3500 
L 2356 3500 
L 2356 3053 
L 1172 3053 
L 1172 1153 
Q 1172 725 1289 603 
Q 1406 481 1766 481 
L 2356 481 
L 2356 0 
L 1766 0 
Q 1100 0 847 248 
Q 594 497 594 1153 
L 594 3053 
L 172 3053 
L 172 3500 
L 594 3500 
L 594 4494 
L 1172 4494 
z
" transform="scale(0.015625)"/>
      <path id="DejaVuSans-69" d="M 603 3500 
L 1178 3500 
L 1178 0 
L 603 0 
L 603 3500 
z
M 603 4863 
L 1178 4863 
L 1178 4134 
L 603 4134 
L 603 4863 
z
" transform="scale(0.015625)"/>
      <path id="DejaVuSans-63" d="M 3122 3366 
L 3122 2828 
Q 2878 2963 2633 3030 
Q 2388 3097 2138 3097 
Q 1578 3097 1268 2742 
Q 959 2388 959 1747 
Q 959 1106 1268 751 
Q 1578 397 2138 397 
Q 2388 397 2633 464 
Q 2878 531 3122 666 
L 3122 134 
Q 2881 22 2623 -34 
Q 2366 -91 2075 -91 
Q 1284 -91 818 406 
Q 353 903 353 1747 
Q 353 2603 823 3093 
Q 1294 3584 2113 3584 
Q 2378 3584 2631 3529 
Q 2884 3475 3122 3366 
z
" transform="scale(0.015625)"/>
      <path id="DejaVuSans-75" d="M 544 1381 
L 544 3500 
L 1119 3500 
L 1119 1403 
Q 1119 906 1312 657 
Q 1506 409 1894 409 
Q 2359 409 2629 706 
Q 2900 1003 2900 1516 
L 2900 3500 
L 3475 3500 
L 3475 0 
L 2900 0 
L 2900 538 
Q 2691 219 2414 64 
Q 2138 -91 1772 -91 
Q 1169 -91 856 284 
Q 544 659 544 1381 
z
M 1991 3584 
L 1991 3584 
z
" transform="scale(0.015625)"/>
      <path id="DejaVuSans-64" d="M 2906 2969 
L 2906 4863 
L 3481 4863 
L 3481 0 
L 2906 0 
L 2906 525 
Q 2725 213 2448 61 
Q 2172 -91 1784 -91 
Q 1150 -91 751 415 
Q 353 922 353 1747 
Q 353 2572 751 3078 
Q 1150 3584 1784 3584 
Q 2172 3584 2448 3432 
Q 2725 3281 2906 2969 
z
M 947 1747 
Q 947 1113 1208 752 
Q 1469 391 1925 391 
Q 2381 391 2643 752 
Q 2906 1113 2906 1747 
Q 2906 2381 2643 2742 
Q 2381 3103 1925 3103 
Q 1469 3103 1208 2742 
Q 947 2381 947 1747 
z
" transform="scale(0.015625)"/>
     </defs>
     <use xlink:href="#DejaVuSans-53"/>
     <use xlink:href="#DejaVuSans-74" transform="translate(63.476562 0)"/>
     <use xlink:href="#DejaVuSans-6f" transform="translate(102.685547 0)"/>
     <use xlink:href="#DejaVuSans-6d" transform="translate(163.867188 0)"/>
     <use xlink:href="#DejaVuSans-69" transform="translate(261.279297 0)"/>
     <use xlink:href="#DejaVuSans-63" transform="translate(289.0625 0)"/>
     <use xlink:href="#DejaVuSans-73" transform="translate(344.042969 0)"/>
     <use xlink:href="#DejaVuSans-20" transform="translate(396.142578 0)"/>
     <use xlink:href="#DejaVuSans-43" transform="translate(427.929688 0)"/>
     <use xlink:href="#DejaVuSans-6c" transform="translate(497.753906 0)"/>
     <use xlink:href="#DejaVuSans-6f" transform="translate(525.537109 0)"/>
     <use xlink:href="#DejaVuSans-75" transform="translate(586.71875 0)"/>
     <use xlink:href="#DejaVuSans-64" transform="translate(650.097656 0)"/>
    </g>
    <!-- Genos-10B -->
    <g style="fill: #262626" transform="translate(391.331317 173.628025) scale(0.08 -0.08)">
     <defs>
      <path id="DejaVuSans-47" d="M 3809 666 
L 3809 1919 
L 2778 1919 
L 2778 2438 
L 4434 2438 
L 4434 434 
Q 4069 175 3628 42 
Q 3188 -91 2688 -91 
Q 1594 -91 976 548 
Q 359 1188 359 2328 
Q 359 3472 976 4111 
Q 1594 4750 2688 4750 
Q 3144 4750 3555 4637 
Q 3966 4525 4313 4306 
L 4313 3634 
Q 3963 3931 3569 4081 
Q 3175 4231 2741 4231 
Q 1884 4231 1454 3753 
Q 1025 3275 1025 2328 
Q 1025 1384 1454 906 
Q 1884 428 2741 428 
Q 3075 428 3337 486 
Q 3600 544 3809 666 
z
" transform="scale(0.015625)"/>
      <path id="DejaVuSans-31" d="M 794 531 
L 1825 531 
L 1825 4091 
L 703 3866 
L 703 4441 
L 1819 4666 
L 2450 4666 
L 2450 531 
L 3481 531 
L 3481 0 
L 794 0 
L 794 531 
z
" transform="scale(0.015625)"/>
     </defs>
     <use xlink:href="#DejaVuSans-47"/>
     <use xlink:href="#DejaVuSans-65" transform="translate(77.490234 0)"/>
     <use xlink:href="#DejaVuSans-6e" transform="translate(139.013672 0)"/>
     <use xlink:href="#DejaVuSans-6f" transform="translate(202.392578 0)"/>
     <use xlink:href="#DejaVuSans-73" transform="translate(263.574219 0)"/>
     <use xlink:href="#DejaVuSans-2d" transform="translate(315.673828 0)"/>
     <use xlink:href="#DejaVuSans-31" transform="translate(351.757812 0)"/>
     <use xlink:href="#DejaVuSans-30" transform="translate(415.380859 0)"/>
     <use xlink:href="#DejaVuSans-42" transform="translate(479.003906 0)"/>
    </g>
    <!-- (Path. score) -->
    <g style="fill: #262626" transform="translate(388.039442 182.586275) scale(0.08 -0.08)">
     <defs>
      <path id="DejaVuSans-61" d="M 2194 1759 
Q 1497 1759 1228 1600 
Q 959 1441 959 1056 
Q 959 750 1161 570 
Q 1363 391 1709 391 
Q 2188 391 2477 730 
Q 2766 1069 2766 1631 
L 2766 1759 
L 2194 1759 
z
M 3341 1997 
L 3341 0 
L 2766 0 
L 2766 531 
Q 2569 213 2275 61 
Q 1981 -91 1556 -91 
Q 1019 -91 701 211 
Q 384 513 384 1019 
Q 384 1609 779 1909 
Q 1175 2209 1959 2209 
L 2766 2209 
L 2766 2266 
Q 2766 2663 2505 2880 
Q 2244 3097 1772 3097 
Q 1472 3097 1187 3025 
Q 903 2953 641 2809 
L 641 3341 
Q 956 3463 1253 3523 
Q 1550 3584 1831 3584 
Q 2591 3584 2966 3190 
Q 3341 2797 3341 1997 
z
" transform="scale(0.015625)"/>
      <path id="DejaVuSans-2e" d="M 684 794 
L 1344 794 
L 1344 0 
L 684 0 
L 684 794 
z
" transform="scale(0.015625)"/>
      <path id="DejaVuSans-72" d="M 2631 2963 
Q 2534 3019 2420 3045 
Q 2306 3072 2169 3072 
Q 1681 3072 1420 2755 
Q 1159 2438 1159 1844 
L 1159 0 
L 581 0 
L 581 3500 
L 1159 3500 
L 1159 2956 
Q 1341 3275 1631 3429 
Q 1922 3584 2338 3584 
Q 2397 3584 2469 3576 
Q 2541 3569 2628 3553 
L 2631 2963 
z
" transform="scale(0.015625)"/>
     </defs>
     <use xlink:href="#DejaVuSans-28"/>
     <use xlink:href="#DejaVuSans-50" transform="translate(39.013672 0)"/>
     <use xlink:href="#DejaVuSans-61" transform="translate(94.816406 0)"/>
     <use xlink:href="#DejaVuSans-74" transform="translate(156.095703 0)"/>
     <use xlink:href="#DejaVuSans-68" transform="translate(195.304688 0)"/>
     <use xlink:href="#DejaVuSans-2e" transform="translate(258.683594 0)"/>
     <use xlink:href="#DejaVuSans-20" transform="translate(290.470703 0)"/>
     <use xlink:href="#DejaVuSans-73" transform="translate(322.257812 0)"/>
     <use xlink:href="#DejaVuSans-63" transform="translate(374.357422 0)"/>
     <use xlink:href="#DejaVuSans-6f" transform="translate(429.337891 0)"/>
     <use xlink:href="#DejaVuSans-72" transform="translate(490.519531 0)"/>
     <use xlink:href="#DejaVuSans-65" transform="translate(529.382812 0)"/>
     <use xlink:href="#DejaVuSans-29" transform="translate(590.90625 0)"/>
    </g>
   </g>
   <g id="text_5">
    <!-- gnomAD v4 -->
    <g style="fill: #262626" transform="translate(550.831721 164.669775) scale(0.08 -0.08)">
     <defs>
      <path id="DejaVuSans-67" d="M 2906 1791 
Q 2906 2416 2648 2759 
Q 2391 3103 1925 3103 
Q 1463 3103 1205 2759 
Q 947 2416 947 1791 
Q 947 1169 1205 825 
Q 1463 481 1925 481 
Q 2391 481 2648 825 
Q 2906 1169 2906 1791 
z
M 3481 434 
Q 3481 -459 3084 -895 
Q 2688 -1331 1869 -1331 
Q 1566 -1331 1297 -1286 
Q 1028 -1241 775 -1147 
L 775 -588 
Q 1028 -725 1275 -790 
Q 1522 -856 1778 -856 
Q 2344 -856 2625 -561 
Q 2906 -266 2906 331 
L 2906 616 
Q 2728 306 2450 153 
Q 2172 0 1784 0 
Q 1141 0 747 490 
Q 353 981 353 1791 
Q 353 2603 747 3093 
Q 1141 3584 1784 3584 
Q 2172 3584 2450 3431 
Q 2728 3278 2906 2969 
L 2906 3500 
L 3481 3500 
L 3481 434 
z
" transform="scale(0.015625)"/>
     </defs>
     <use xlink:href="#DejaVuSans-67"/>
     <use xlink:href="#DejaVuSans-6e" transform="translate(63.476562 0)"/>
     <use xlink:href="#DejaVuSans-6f" transform="translate(126.855469 0)"/>
     <use xlink:href="#DejaVuSans-6d" transform="translate(188.037109 0)"/>
     <use xlink:href="#DejaVuSans-41" transform="translate(285.449219 0)"/>
     <use xlink:href="#DejaVuSans-44" transform="translate(353.857422 0)"/>
     <use xlink:href="#DejaVuSans-20" transform="translate(430.859375 0)"/>
     <use xlink:href="#DejaVuSans-76" transform="translate(462.646484 0)"/>
     <use xlink:href="#DejaVuSans-34" transform="translate(521.826172 0)"/>
    </g>
    <!-- Allele Freq. -->
    <g style="fill: #262626" transform="translate(552.149221 173.628025) scale(0.08 -0.08)">
     <defs>
      <path id="DejaVuSans-71" d="M 947 1747 
Q 947 1113 1208 752 
Q 1469 391 1925 391 
Q 2381 391 2643 752 
Q 2906 1113 2906 1747 
Q 2906 2381 2643 2742 
Q 2381 3103 1925 3103 
Q 1469 3103 1208 2742 
Q 947 2381 947 1747 
z
M 2906 525 
Q 2725 213 2448 61 
Q 2172 -91 1784 -91 
Q 1150 -91 751 415 
Q 353 922 353 1747 
Q 353 2572 751 3078 
Q 1150 3584 1784 3584 
Q 2172 3584 2448 3432 
Q 2725 3281 2906 2969 
L 2906 3500 
L 3481 3500 
L 3481 -1331 
L 2906 -1331 
L 2906 525 
z
" transform="scale(0.015625)"/>
     </defs>
     <use xlink:href="#DejaVuSans-41"/>
     <use xlink:href="#DejaVuSans-6c" transform="translate(68.408203 0)"/>
     <use xlink:href="#DejaVuSans-6c" transform="translate(96.191406 0)"/>
     <use xlink:href="#DejaVuSans-65" transform="translate(123.974609 0)"/>
     <use xlink:href="#DejaVuSans-6c" transform="translate(185.498047 0)"/>
     <use xlink:href="#DejaVuSans-65" transform="translate(213.28125 0)"/>
     <use xlink:href="#DejaVuSans-20" transform="translate(274.804688 0)"/>
     <use xlink:href="#DejaVuSans-46" transform="translate(306.591797 0)"/>
     <use xlink:href="#DejaVuSans-72" transform="translate(356.861328 0)"/>
     <use xlink:href="#DejaVuSans-65" transform="translate(395.724609 0)"/>
     <use xlink:href="#DejaVuSans-71" transform="translate(457.248047 0)"/>
     <use xlink:href="#DejaVuSans-2e" transform="translate(520.724609 0)"/>
    </g>
    <!-- (GraphQL API) -->
    <g style="fill: #262626" transform="translate(545.882346 182.586275) scale(0.08 -0.08)">
     <defs>
      <path id="DejaVuSans-51" d="M 2522 4238 
Q 1834 4238 1429 3725 
Q 1025 3213 1025 2328 
Q 1025 1447 1429 934 
Q 1834 422 2522 422 
Q 3209 422 3611 934 
Q 4013 1447 4013 2328 
Q 4013 3213 3611 3725 
Q 3209 4238 2522 4238 
z
M 3406 84 
L 4238 -825 
L 3475 -825 
L 2784 -78 
Q 2681 -84 2626 -87 
Q 2572 -91 2522 -91 
Q 1538 -91 948 567 
Q 359 1225 359 2328 
Q 359 3434 948 4092 
Q 1538 4750 2522 4750 
Q 3503 4750 4090 4092 
Q 4678 3434 4678 2328 
Q 4678 1516 4351 937 
Q 4025 359 3406 84 
z
" transform="scale(0.015625)"/>
     </defs>
     <use xlink:href="#DejaVuSans-28"/>
     <use xlink:href="#DejaVuSans-47" transform="translate(39.013672 0)"/>
     <use xlink:href="#DejaVuSans-72" transform="translate(116.503906 0)"/>
     <use xlink:href="#DejaVuSans-61" transform="translate(157.617188 0)"/>
     <use xlink:href="#DejaVuSans-70" transform="translate(218.896484 0)"/>
     <use xlink:href="#DejaVuSans-68" transform="translate(282.373047 0)"/>
     <use xlink:href="#DejaVuSans-51" transform="translate(345.751953 0)"/>
     <use xlink:href="#DejaVuSans-4c" transform="translate(424.462891 0)"/>
     <use xlink:href="#DejaVuSans-20" transform="translate(480.175781 0)"/>
     <use xlink:href="#DejaVuSans-41" transform="translate(511.962891 0)"/>
     <use xlink:href="#DejaVuSans-50" transform="translate(580.371094 0)"/>
     <use xlink:href="#DejaVuSans-49" transform="translate(640.673828 0)"/>
     <use xlink:href="#DejaVuSans-29" transform="translate(670.166016 0)"/>
    </g>
   </g>
   <g id="patch_12">
    <path d="M 91.207385 113.487535 
Q 91.207385 131.045532 91.207385 146.926478 
" style="fill: none; stroke: #5d6d7e; stroke-width: 1.5; stroke-linecap: round"/>
    <path d="M 93.607385 142.126478 
L 91.207385 146.926478 
L 88.807385 142.126478 
z
" style="fill: #5d6d7e; stroke: #5d6d7e; stroke-width: 1.5; stroke-linecap: round"/>
   </g>
   <g id="patch_13">
    <path d="M 93.150777 111.959026 
Q 171.71284 131.043811 248.645248 149.73271 
" style="fill: none; stroke: #5d6d7e; stroke-width: 1.5; stroke-linecap: round"/>
    <path d="M 244.547449 146.267447 
L 248.645248 149.73271 
L 243.414358 150.931791 
z
" style="fill: #5d6d7e; stroke: #5d6d7e; stroke-width: 1.5; stroke-linecap: round"/>
   </g>
   <g id="patch_14">
    <path d="M 93.197458 111.728646 
Q 252.222804 131.044359 409.583335 150.157858 
" style="fill: none; stroke: #5d6d7e; stroke-width: 1.5; stroke-linecap: round"/>
    <path d="M 405.10774 147.1966 
L 409.583335 150.157858 
L 404.528971 151.961579 
z
" style="fill: #5d6d7e; stroke: #5d6d7e; stroke-width: 1.5; stroke-linecap: round"/>
   </g>
   <g id="patch_15">
    <path d="M 93.201144 111.64837 
Q 332.72906 131.044241 570.585397 150.304755 
" style="fill: none; stroke: #5d6d7e; stroke-width: 1.5; stroke-linecap: round"/>
    <path d="M 565.994763 147.525171 
L 570.585397 150.304755 
L 565.60735 152.309511 
z
" style="fill: #5d6d7e; stroke: #5d6d7e; stroke-width: 1.5; stroke-linecap: round"/>
   </g>
   <g id="text_6">
    <!-- Feature Matrix  (2,000 × 8):  SIFT(inv) · PolyPhen-2 · AlphaMissense · CADD · Evo2 LLR · Genos · phyloP · gnomAD log-AF -->
    <g style="fill: #262626" transform="translate(91.196115 236.716025) scale(0.08 -0.08)">
     <defs>
      <path id="DejaVuSans-78" d="M 3513 3500 
L 2247 1797 
L 3578 0 
L 2900 0 
L 1881 1375 
L 863 0 
L 184 0 
L 1544 1831 
L 300 3500 
L 978 3500 
L 1906 2253 
L 2834 3500 
L 3513 3500 
z
" transform="scale(0.015625)"/>
      <path id="DejaVuSans-2c" d="M 750 794 
L 1409 794 
L 1409 256 
L 897 -744 
L 494 -744 
L 750 256 
L 750 794 
z
" transform="scale(0.015625)"/>
      <path id="DejaVuSans-d7" d="M 4488 3438 
L 3059 2003 
L 4488 575 
L 4116 197 
L 2681 1631 
L 1247 197 
L 878 575 
L 2303 2003 
L 878 3438 
L 1247 3816 
L 2681 2381 
L 4116 3816 
L 4488 3438 
z
" transform="scale(0.015625)"/>
      <path id="DejaVuSans-38" d="M 2034 2216 
Q 1584 2216 1326 1975 
Q 1069 1734 1069 1313 
Q 1069 891 1326 650 
Q 1584 409 2034 409 
Q 2484 409 2743 651 
Q 3003 894 3003 1313 
Q 3003 1734 2745 1975 
Q 2488 2216 2034 2216 
z
M 1403 2484 
Q 997 2584 770 2862 
Q 544 3141 544 3541 
Q 544 4100 942 4425 
Q 1341 4750 2034 4750 
Q 2731 4750 3128 4425 
Q 3525 4100 3525 3541 
Q 3525 3141 3298 2862 
Q 3072 2584 2669 2484 
Q 3125 2378 3379 2068 
Q 3634 1759 3634 1313 
Q 3634 634 3220 271 
Q 2806 -91 2034 -91 
Q 1263 -91 848 271 
Q 434 634 434 1313 
Q 434 1759 690 2068 
Q 947 2378 1403 2484 
z
M 1172 3481 
Q 1172 3119 1398 2916 
Q 1625 2713 2034 2713 
Q 2441 2713 2670 2916 
Q 2900 3119 2900 3481 
Q 2900 3844 2670 4047 
Q 2441 4250 2034 4250 
Q 1625 4250 1398 4047 
Q 1172 3844 1172 3481 
z
" transform="scale(0.015625)"/>
      <path id="DejaVuSans-3a" d="M 750 794 
L 1409 794 
L 1409 0 
L 750 0 
L 750 794 
z
M 750 3309 
L 1409 3309 
L 1409 2516 
L 750 2516 
L 750 3309 
z
" transform="scale(0.015625)"/>
     </defs>
     <use xlink:href="#DejaVuSans-46"/>
     <use xlink:href="#DejaVuSans-65" transform="translate(52.019531 0)"/>
     <use xlink:href="#DejaVuSans-61" transform="translate(113.542969 0)"/>
     <use xlink:href="#DejaVuSans-74" transform="translate(174.822266 0)"/>
     <use xlink:href="#DejaVuSans-75" transform="translate(214.03125 0)"/>
     <use xlink:href="#DejaVuSans-72" transform="translate(277.410156 0)"/>
     <use xlink:href="#DejaVuSans-65" transform="translate(316.273438 0)"/>
     <use xlink:href="#DejaVuSans-20" transform="translate(377.796875 0)"/>
     <use xlink:href="#DejaVuSans-4d" transform="translate(409.583984 0)"/>
     <use xlink:href="#DejaVuSans-61" transform="translate(495.863281 0)"/>
     <use xlink:href="#DejaVuSans-74" transform="translate(557.142578 0)"/>
     <use xlink:href="#DejaVuSans-72" transform="translate(596.351562 0)"/>
     <use xlink:href="#DejaVuSans-69" transform="translate(637.464844 0)"/>
     <use xlink:href="#DejaVuSans-78" transform="translate(665.248047 0)"/>
     <use xlink:href="#DejaVuSans-20" transform="translate(724.427734 0)"/>
     <use xlink:href="#DejaVuSans-20" transform="translate(756.214844 0)"/>
     <use xlink:href="#DejaVuSans-28" transform="translate(788.001953 0)"/>
     <use xlink:href="#DejaVuSans-32" transform="translate(827.015625 0)"/>
     <use xlink:href="#DejaVuSans-2c" transform="translate(890.638672 0)"/>
     <use xlink:href="#DejaVuSans-30" transform="translate(922.425781 0)"/>
     <use xlink:href="#DejaVuSans-30" transform="translate(986.048828 0)"/>
     <use xlink:href="#DejaVuSans-30" transform="translate(1049.671875 0)"/>
     <use xlink:href="#DejaVuSans-20" transform="translate(1113.294922 0)"/>
     <use xlink:href="#DejaVuSans-d7" transform="translate(1145.082031 0)"/>
     <use xlink:href="#DejaVuSans-20" transform="translate(1228.871094 0)"/>
     <use xlink:href="#DejaVuSans-38" transform="translate(1260.658203 0)"/>
     <use xlink:href="#DejaVuSans-29" transform="translate(1324.28125 0)"/>
     <use xlink:href="#DejaVuSans-3a" transform="translate(1363.294922 0)"/>
     <use xlink:href="#DejaVuSans-20" transform="translate(1396.986328 0)"/>
     <use xlink:href="#DejaVuSans-20" transform="translate(1428.773438 0)"/>
     <use xlink:href="#DejaVuSans-53" transform="translate(1460.560547 0)"/>
     <use xlink:href="#DejaVuSans-49" transform="translate(1524.037109 0)"/>
     <use xlink:href="#DejaVuSans-46" transform="translate(1553.529297 0)"/>
     <use xlink:href="#DejaVuSans-54" transform="translate(1609.298828 0)"/>
     <use xlink:href="#DejaVuSans-28" transform="translate(1670.382812 0)"/>
     <use xlink:href="#DejaVuSans-69" transform="translate(1709.396484 0)"/>
     <use xlink:href="#DejaVuSans-6e" transform="translate(1737.179688 0)"/>
     <use xlink:href="#DejaVuSans-76" transform="translate(1800.558594 0)"/>
     <use xlink:href="#DejaVuSans-29" transform="translate(1859.738281 0)"/>
     <use xlink:href="#DejaVuSans-20" transform="translate(1898.751953 0)"/>
     <use xlink:href="#DejaVuSans-b7" transform="translate(1930.539062 0)"/>
     <use xlink:href="#DejaVuSans-20" transform="translate(1962.326172 0)"/>
     <use xlink:href="#DejaVuSans-50" transform="translate(1994.113281 0)"/>
     <use xlink:href="#DejaVuSans-6f" transform="translate(2050.791016 0)"/>
     <use xlink:href="#DejaVuSans-6c" transform="translate(2111.972656 0)"/>
     <use xlink:href="#DejaVuSans-79" transform="translate(2139.755859 0)"/>
     <use xlink:href="#DejaVuSans-50" transform="translate(2198.935547 0)"/>
     <use xlink:href="#DejaVuSans-68" transform="translate(2259.238281 0)"/>
     <use xlink:href="#DejaVuSans-65" transform="translate(2322.617188 0)"/>
     <use xlink:href="#DejaVuSans-6e" transform="translate(2384.140625 0)"/>
     <use xlink:href="#DejaVuSans-2d" transform="translate(2447.519531 0)"/>
     <use xlink:href="#DejaVuSans-32" transform="translate(2483.603516 0)"/>
     <use xlink:href="#DejaVuSans-20" transform="translate(2547.226562 0)"/>
     <use xlink:href="#DejaVuSans-b7" transform="translate(2579.013672 0)"/>
     <use xlink:href="#DejaVuSans-20" transform="translate(2610.800781 0)"/>
     <use xlink:href="#DejaVuSans-41" transform="translate(2642.587891 0)"/>
     <use xlink:href="#DejaVuSans-6c" transform="translate(2710.996094 0)"/>
     <use xlink:href="#DejaVuSans-70" transform="translate(2738.779297 0)"/>
     <use xlink:href="#DejaVuSans-68" transform="translate(2802.255859 0)"/>
     <use xlink:href="#DejaVuSans-61" transform="translate(2865.634766 0)"/>
     <use xlink:href="#DejaVuSans-4d" transform="translate(2926.914062 0)"/>
     <use xlink:href="#DejaVuSans-69" transform="translate(3013.193359 0)"/>
     <use xlink:href="#DejaVuSans-73" transform="translate(3040.976562 0)"/>
     <use xlink:href="#DejaVuSans-73" transform="translate(3093.076172 0)"/>
     <use xlink:href="#DejaVuSans-65" transform="translate(3145.175781 0)"/>
     <use xlink:href="#DejaVuSans-6e" transform="translate(3206.699219 0)"/>
     <use xlink:href="#DejaVuSans-73" transform="translate(3270.078125 0)"/>
     <use xlink:href="#DejaVuSans-65" transform="translate(3322.177734 0)"/>
     <use xlink:href="#DejaVuSans-20" transform="translate(3383.701172 0)"/>
     <use xlink:href="#DejaVuSans-b7" transform="translate(3415.488281 0)"/>
     <use xlink:href="#DejaVuSans-20" transform="translate(3447.275391 0)"/>
     <use xlink:href="#DejaVuSans-43" transform="translate(3479.0625 0)"/>
     <use xlink:href="#DejaVuSans-41" transform="translate(3548.886719 0)"/>
     <use xlink:href="#DejaVuSans-44" transform="translate(3617.294922 0)"/>
     <use xlink:href="#DejaVuSans-44" transform="translate(3694.296875 0)"/>
     <use xlink:href="#DejaVuSans-20" transform="translate(3771.298828 0)"/>
     <use xlink:href="#DejaVuSans-b7" transform="translate(3803.085938 0)"/>
     <use xlink:href="#DejaVuSans-20" transform="translate(3834.873047 0)"/>
     <use xlink:href="#DejaVuSans-45" transform="translate(3866.660156 0)"/>
     <use xlink:href="#DejaVuSans-76" transform="translate(3929.84375 0)"/>
     <use xlink:href="#DejaVuSans-6f" transform="translate(3989.023438 0)"/>
     <use xlink:href="#DejaVuSans-32" transform="translate(4050.205078 0)"/>
     <use xlink:href="#DejaVuSans-20" transform="translate(4113.828125 0)"/>
     <use xlink:href="#DejaVuSans-4c" transform="translate(4145.615234 0)"/>
     <use xlink:href="#DejaVuSans-4c" transform="translate(4201.328125 0)"/>
     <use xlink:href="#DejaVuSans-52" transform="translate(4257.041016 0)"/>
     <use xlink:href="#DejaVuSans-20" transform="translate(4326.523438 0)"/>
     <use xlink:href="#DejaVuSans-b7" transform="translate(4358.310547 0)"/>
     <use xlink:href="#DejaVuSans-20" transform="translate(4390.097656 0)"/>
     <use xlink:href="#DejaVuSans-47" transform="translate(4421.884766 0)"/>
     <use xlink:href="#DejaVuSans-65" transform="translate(4499.375 0)"/>
     <use xlink:href="#DejaVuSans-6e" transform="translate(4560.898438 0)"/>
     <use xlink:href="#DejaVuSans-6f" transform="translate(4624.277344 0)"/>
     <use xlink:href="#DejaVuSans-73" transform="translate(4685.458984 0)"/>
     <use xlink:href="#DejaVuSans-20" transform="translate(4737.558594 0)"/>
     <use xlink:href="#DejaVuSans-b7" transform="translate(4769.345703 0)"/>
     <use xlink:href="#DejaVuSans-20" transform="translate(4801.132812 0)"/>
     <use xlink:href="#DejaVuSans-70" transform="translate(4832.919922 0)"/>
     <use xlink:href="#DejaVuSans-68" transform="translate(4896.396484 0)"/>
     <use xlink:href="#DejaVuSans-79" transform="translate(4959.775391 0)"/>
     <use xlink:href="#DejaVuSans-6c" transform="translate(5018.955078 0)"/>
     <use xlink:href="#DejaVuSans-6f" transform="translate(5046.738281 0)"/>
     <use xlink:href="#DejaVuSans-50" transform="translate(5107.919922 0)"/>
     <use xlink:href="#DejaVuSans-20" transform="translate(5168.222656 0)"/>
     <use xlink:href="#DejaVuSans-b7" transform="translate(5200.009766 0)"/>
     <use xlink:href="#DejaVuSans-20" transform="translate(5231.796875 0)"/>
     <use xlink:href="#DejaVuSans-67" transform="translate(5263.583984 0)"/>
     <use xlink:href="#DejaVuSans-6e" transform="translate(5327.060547 0)"/>
     <use xlink:href="#DejaVuSans-6f" transform="translate(5390.439453 0)"/>
     <use xlink:href="#DejaVuSans-6d" transform="translate(5451.621094 0)"/>
     <use xlink:href="#DejaVuSans-41" transform="translate(5549.033203 0)"/>
     <use xlink:href="#DejaVuSans-44" transform="translate(5617.441406 0)"/>
     <use xlink:href="#DejaVuSans-20" transform="translate(5694.443359 0)"/>
     <use xlink:href="#DejaVuSans-6c" transform="translate(5726.230469 0)"/>
     <use xlink:href="#DejaVuSans-6f" transform="translate(5754.013672 0)"/>
     <use xlink:href="#DejaVuSans-67" transform="translate(5815.195312 0)"/>
     <use xlink:href="#DejaVuSans-2d" transform="translate(5878.671875 0)"/>
     <use xlink:href="#DejaVuSans-41" transform="translate(5912.505859 0)"/>
     <use xlink:href="#DejaVuSans-46" transform="translate(5980.914062 0)"/>
    </g>
   </g>
   <g id="patch_16">
    <path d="M 93.201144 192.416634 
Q 211.968919 202.964607 329.066219 213.364221 
" style="fill: none; stroke: #5d6d7e; stroke-width: 1.5; stroke-linecap: round"/>
    <path d="M 324.497351 210.549006 
L 329.066219 213.364221 
L 324.072726 215.330187 
z
" style="fill: #5d6d7e; stroke: #5d6d7e; stroke-width: 1.5; stroke-linecap: round"/>
   </g>
   <g id="patch_17">
    <path d="M 254.155104 192.754735 
Q 292.475517 202.964642 329.175411 212.742786 
" style="fill: none; stroke: #5d6d7e; stroke-width: 1.5; stroke-linecap: round"/>
    <path d="M 325.155105 209.18791 
L 329.175411 212.742786 
L 323.919327 213.826105 
z
" style="fill: #5d6d7e; stroke: #5d6d7e; stroke-width: 1.5; stroke-linecap: round"/>
   </g>
   <g id="patch_18">
    <path d="M 411.302127 192.754735 
Q 372.981714 202.964642 336.28182 212.742786 
" style="fill: none; stroke: #5d6d7e; stroke-width: 1.5; stroke-linecap: round"/>
    <path d="M 341.537904 213.826105 
L 336.28182 212.742786 
L 340.302126 209.18791 
z
" style="fill: #5d6d7e; stroke: #5d6d7e; stroke-width: 1.5; stroke-linecap: round"/>
   </g>
   <g id="patch_19">
    <path d="M 572.256087 192.416634 
Q 453.488311 202.964607 336.391011 213.364221 
" style="fill: none; stroke: #5d6d7e; stroke-width: 1.5; stroke-linecap: round"/>
    <path d="M 341.384505 215.330187 
L 336.391011 213.364221 
L 340.95988 210.549006 
z
" style="fill: #5d6d7e; stroke: #5d6d7e; stroke-width: 1.5; stroke-linecap: round"/>
   </g>
   <g id="text_7">
    <!-- XGBoost -->
    <g style="fill: #262626" transform="translate(164.014096 285.719723) scale(0.085 -0.085)">
     <defs>
      <path id="DejaVuSans-58" d="M 403 4666 
L 1081 4666 
L 2241 2931 
L 3406 4666 
L 4084 4666 
L 2584 2425 
L 4184 0 
L 3506 0 
L 2194 1984 
L 872 0 
L 191 0 
L 1856 2491 
L 403 4666 
z
" transform="scale(0.015625)"/>
     </defs>
     <use xlink:href="#DejaVuSans-58"/>
     <use xlink:href="#DejaVuSans-47" transform="translate(68.505859 0)"/>
     <use xlink:href="#DejaVuSans-42" transform="translate(145.996094 0)"/>
     <use xlink:href="#DejaVuSans-6f" transform="translate(214.599609 0)"/>
     <use xlink:href="#DejaVuSans-6f" transform="translate(275.78125 0)"/>
     <use xlink:href="#DejaVuSans-73" transform="translate(336.962891 0)"/>
     <use xlink:href="#DejaVuSans-74" transform="translate(389.0625 0)"/>
    </g>
    <!-- (base learner) -->
    <g style="fill: #262626" transform="translate(152.28808 295.237864) scale(0.085 -0.085)">
     <use xlink:href="#DejaVuSans-28"/>
     <use xlink:href="#DejaVuSans-62" transform="translate(39.013672 0)"/>
     <use xlink:href="#DejaVuSans-61" transform="translate(102.490234 0)"/>
     <use xlink:href="#DejaVuSans-73" transform="translate(163.769531 0)"/>
     <use xlink:href="#DejaVuSans-65" transform="translate(215.869141 0)"/>
     <use xlink:href="#DejaVuSans-20" transform="translate(277.392578 0)"/>
     <use xlink:href="#DejaVuSans-6c" transform="translate(309.179688 0)"/>
     <use xlink:href="#DejaVuSans-65" transform="translate(336.962891 0)"/>
     <use xlink:href="#DejaVuSans-61" transform="translate(398.486328 0)"/>
     <use xlink:href="#DejaVuSans-72" transform="translate(459.765625 0)"/>
     <use xlink:href="#DejaVuSans-6e" transform="translate(499.128906 0)"/>
     <use xlink:href="#DejaVuSans-65" transform="translate(562.507812 0)"/>
     <use xlink:href="#DejaVuSans-72" transform="translate(624.03125 0)"/>
     <use xlink:href="#DejaVuSans-29" transform="translate(665.144531 0)"/>
    </g>
   </g>
   <g id="text_8">
    <!-- LightGBM -->
    <g style="fill: #262626" transform="translate(336.748425 285.719723) scale(0.085 -0.085)">
     <use xlink:href="#DejaVuSans-4c"/>
     <use xlink:href="#DejaVuSans-69" transform="translate(55.712891 0)"/>
     <use xlink:href="#DejaVuSans-67" transform="translate(83.496094 0)"/>
     <use xlink:href="#DejaVuSans-68" transform="translate(146.972656 0)"/>
     <use xlink:href="#DejaVuSans-74" transform="translate(210.351562 0)"/>
     <use xlink:href="#DejaVuSans-47" transform="translate(249.560547 0)"/>
     <use xlink:href="#DejaVuSans-42" transform="translate(327.050781 0)"/>
     <use xlink:href="#DejaVuSans-4d" transform="translate(395.654297 0)"/>
    </g>
    <!-- (base learner) -->
    <g style="fill: #262626" transform="translate(327.303465 295.237864) scale(0.085 -0.085)">
     <use xlink:href="#DejaVuSans-28"/>
     <use xlink:href="#DejaVuSans-62" transform="translate(39.013672 0)"/>
     <use xlink:href="#DejaVuSans-61" transform="translate(102.490234 0)"/>
     <use xlink:href="#DejaVuSans-73" transform="translate(163.769531 0)"/>
     <use xlink:href="#DejaVuSans-65" transform="translate(215.869141 0)"/>
     <use xlink:href="#DejaVuSans-20" transform="translate(277.392578 0)"/>
     <use xlink:href="#DejaVuSans-6c" transform="translate(309.179688 0)"/>
     <use xlink:href="#DejaVuSans-65" transform="translate(336.962891 0)"/>
     <use xlink:href="#DejaVuSans-61" transform="translate(398.486328 0)"/>
     <use xlink:href="#DejaVuSans-72" transform="translate(459.765625 0)"/>
     <use xlink:href="#DejaVuSans-6e" transform="translate(499.128906 0)"/>
     <use xlink:href="#DejaVuSans-65" transform="translate(562.507812 0)"/>
     <use xlink:href="#DejaVuSans-72" transform="translate(624.03125 0)"/>
     <use xlink:href="#DejaVuSans-29" transform="translate(665.144531 0)"/>
    </g>
   </g>
   <g id="text_9">
    <!-- Logistic Reg. -->
    <g style="fill: #262626" transform="translate(505.299162 285.719723) scale(0.085 -0.085)">
     <use xlink:href="#DejaVuSans-4c"/>
     <use xlink:href="#DejaVuSans-6f" transform="translate(53.962891 0)"/>
     <use xlink:href="#DejaVuSans-67" transform="translate(115.144531 0)"/>
     <use xlink:href="#DejaVuSans-69" transform="translate(178.621094 0)"/>
     <use xlink:href="#DejaVuSans-73" transform="translate(206.404297 0)"/>
     <use xlink:href="#DejaVuSans-74" transform="translate(258.503906 0)"/>
     <use xlink:href="#DejaVuSans-69" transform="translate(297.712891 0)"/>
     <use xlink:href="#DejaVuSans-63" transform="translate(325.496094 0)"/>
     <use xlink:href="#DejaVuSans-20" transform="translate(380.476562 0)"/>
     <use xlink:href="#DejaVuSans-52" transform="translate(412.263672 0)"/>
     <use xlink:href="#DejaVuSans-65" transform="translate(477.246094 0)"/>
     <use xlink:href="#DejaVuSans-67" transform="translate(538.769531 0)"/>
     <use xlink:href="#DejaVuSans-2e" transform="translate(602.246094 0)"/>
    </g>
    <!-- (meta-learner) -->
    <g style="fill: #262626" transform="translate(501.242404 295.237864) scale(0.085 -0.085)">
     <use xlink:href="#DejaVuSans-28"/>
     <use xlink:href="#DejaVuSans-6d" transform="translate(39.013672 0)"/>
     <use xlink:href="#DejaVuSans-65" transform="translate(136.425781 0)"/>
     <use xlink:href="#DejaVuSans-74" transform="translate(197.949219 0)"/>
     <use xlink:href="#DejaVuSans-61" transform="translate(237.158203 0)"/>
     <use xlink:href="#DejaVuSans-2d" transform="translate(298.4375 0)"/>
     <use xlink:href="#DejaVuSans-6c" transform="translate(334.521484 0)"/>
     <use xlink:href="#DejaVuSans-65" transform="translate(362.304688 0)"/>
     <use xlink:href="#DejaVuSans-61" transform="translate(423.828125 0)"/>
     <use xlink:href="#DejaVuSans-72" transform="translate(485.107422 0)"/>
     <use xlink:href="#DejaVuSans-6e" transform="translate(524.470703 0)"/>
     <use xlink:href="#DejaVuSans-65" transform="translate(587.849609 0)"/>
     <use xlink:href="#DejaVuSans-72" transform="translate(649.373047 0)"/>
     <use xlink:href="#DejaVuSans-29" transform="translate(690.486328 0)"/>
    </g>
   </g>
   <g id="patch_20">
    <path d="M 250.251761 255.664838 
Q 217.219818 261.320693 185.84087 266.693516 
" style="fill: none; stroke: #5d6d7e; stroke-width: 1.5; stroke-linecap: round"/>
    <path d="M 190.977061 268.249004 
L 185.84087 266.693516 
L 190.166975 263.517856 
z
" style="fill: #5d6d7e; stroke: #5d6d7e; stroke-width: 1.5; stroke-linecap: round"/>
   </g>
   <g id="patch_21">
    <path d="M 411.277024 255.746778 
Q 385.231968 261.321195 360.826822 266.544623 
" style="fill: none; stroke: #5d6d7e; stroke-width: 1.5; stroke-linecap: round"/>
    <path d="M 366.022815 267.886881 
L 360.826822 266.544623 
L 365.018224 263.193183 
z
" style="fill: #5d6d7e; stroke: #5d6d7e; stroke-width: 1.5; stroke-linecap: round"/>
   </g>
   <g id="patch_22">
    <path d="M 184.215606 308.952365 
Q 357.231174 308.952365 528.56969 308.952365 
" style="fill: none; stroke: #5d6d7e; stroke-width: 1.5; stroke-linecap: round"/>
    <path d="M 523.76969 306.552365 
L 528.56969 308.952365 
L 523.76969 311.352365 
z
" style="fill: #5d6d7e; stroke: #5d6d7e; stroke-width: 1.5; stroke-linecap: round"/>
   </g>
   <g id="patch_23">
    <path d="M 359.230991 308.952365 
Q 444.739332 308.952365 528.570621 308.952365 
" style="fill: none; stroke: #5d6d7e; stroke-width: 1.5; stroke-linecap: round"/>
    <path d="M 523.770621 306.552365 
L 528.570621 308.952365 
L 523.770621 311.352365 
z
" style="fill: #5d6d7e; stroke: #5d6d7e; stroke-width: 1.5; stroke-linecap: round"/>
   </g>
   <g id="patch_24">
    <path d="M 359.230991 308.952365 
Q 444.739332 308.952365 528.570621 308.952365 
" style="fill: none; stroke: #5d6d7e; stroke-width: 1.5; stroke-linecap: round"/>
    <path d="M 523.770621 306.552365 
L 528.570621 308.952365 
L 523.770621 311.352365 
z
" style="fill: #5d6d7e; stroke: #5d6d7e; stroke-width: 1.5; stroke-linecap: round"/>
   </g>
   <g id="text_10">
    <!-- Pathogenicity -->
    <g style="fill: #262626" transform="translate(709.230826 280.894247) scale(0.085 -0.085)">
     <defs>
      <path id="DejaVuSans-Bold-50" d="M 588 4666 
L 2584 4666 
Q 3475 4666 3951 4270 
Q 4428 3875 4428 3144 
Q 4428 2409 3951 2014 
Q 3475 1619 2584 1619 
L 1791 1619 
L 1791 0 
L 588 0 
L 588 4666 
z
M 1791 3794 
L 1791 2491 
L 2456 2491 
Q 2806 2491 2997 2661 
Q 3188 2831 3188 3144 
Q 3188 3456 2997 3625 
Q 2806 3794 2456 3794 
L 1791 3794 
z
" transform="scale(0.015625)"/>
      <path id="DejaVuSans-Bold-68" d="M 4056 2131 
L 4056 0 
L 2931 0 
L 2931 347 
L 2931 1625 
Q 2931 2084 2911 2256 
Q 2891 2428 2841 2509 
Q 2775 2619 2662 2680 
Q 2550 2741 2406 2741 
Q 2056 2741 1856 2470 
Q 1656 2200 1656 1722 
L 1656 0 
L 538 0 
L 538 4863 
L 1656 4863 
L 1656 2988 
Q 1909 3294 2193 3439 
Q 2478 3584 2822 3584 
Q 3428 3584 3742 3212 
Q 4056 2841 4056 2131 
z
" transform="scale(0.015625)"/>
      <path id="DejaVuSans-Bold-6f" d="M 2203 2784 
Q 1831 2784 1636 2517 
Q 1441 2250 1441 1747 
Q 1441 1244 1636 976 
Q 1831 709 2203 709 
Q 2569 709 2762 976 
Q 2956 1244 2956 1747 
Q 2956 2250 2762 2517 
Q 2569 2784 2203 2784 
z
M 2203 3584 
Q 3106 3584 3614 3096 
Q 4122 2609 4122 1747 
Q 4122 884 3614 396 
Q 3106 -91 2203 -91 
Q 1297 -91 786 396 
Q 275 884 275 1747 
Q 275 2609 786 3096 
Q 1297 3584 2203 3584 
z
" transform="scale(0.015625)"/>
      <path id="DejaVuSans-Bold-67" d="M 2919 594 
Q 2688 288 2409 144 
Q 2131 0 1766 0 
Q 1125 0 706 504 
Q 288 1009 288 1791 
Q 288 2575 706 3076 
Q 1125 3578 1766 3578 
Q 2131 3578 2409 3434 
Q 2688 3291 2919 2981 
L 2919 3500 
L 4044 3500 
L 4044 353 
Q 4044 -491 3511 -936 
Q 2978 -1381 1966 -1381 
Q 1638 -1381 1331 -1331 
Q 1025 -1281 716 -1178 
L 716 -306 
Q 1009 -475 1290 -558 
Q 1572 -641 1856 -641 
Q 2406 -641 2662 -400 
Q 2919 -159 2919 353 
L 2919 594 
z
M 2181 2772 
Q 1834 2772 1640 2515 
Q 1447 2259 1447 1791 
Q 1447 1309 1634 1061 
Q 1822 813 2181 813 
Q 2531 813 2725 1069 
Q 2919 1325 2919 1791 
Q 2919 2259 2725 2515 
Q 2531 2772 2181 2772 
z
" transform="scale(0.015625)"/>
      <path id="DejaVuSans-Bold-65" d="M 4031 1759 
L 4031 1441 
L 1416 1441 
Q 1456 1047 1700 850 
Q 1944 653 2381 653 
Q 2734 653 3104 758 
Q 3475 863 3866 1075 
L 3866 213 
Q 3469 63 3072 -14 
Q 2675 -91 2278 -91 
Q 1328 -91 801 392 
Q 275 875 275 1747 
Q 275 2603 792 3093 
Q 1309 3584 2216 3584 
Q 3041 3584 3536 3087 
Q 4031 2591 4031 1759 
z
M 2881 2131 
Q 2881 2450 2695 2645 
Q 2509 2841 2209 2841 
Q 1884 2841 1681 2658 
Q 1478 2475 1428 2131 
L 2881 2131 
z
" transform="scale(0.015625)"/>
      <path id="DejaVuSans-Bold-63" d="M 3366 3391 
L 3366 2478 
Q 3138 2634 2908 2709 
Q 2678 2784 2431 2784 
Q 1963 2784 1702 2511 
Q 1441 2238 1441 1747 
Q 1441 1256 1702 982 
Q 1963 709 2431 709 
Q 2694 709 2930 787 
Q 3166 866 3366 1019 
L 3366 103 
Q 3103 6 2833 -42 
Q 2563 -91 2291 -91 
Q 1344 -91 809 395 
Q 275 881 275 1747 
Q 275 2613 809 3098 
Q 1344 3584 2291 3584 
Q 2566 3584 2833 3536 
Q 3100 3488 3366 3391 
z
" transform="scale(0.015625)"/>
      <path id="DejaVuSans-Bold-79" d="M 78 3500 
L 1197 3500 
L 2138 1125 
L 2938 3500 
L 4056 3500 
L 2584 -331 
Q 2363 -916 2067 -1148 
Q 1772 -1381 1288 -1381 
L 641 -1381 
L 641 -647 
L 991 -647 
Q 1275 -647 1404 -556 
Q 1534 -466 1606 -231 
L 1638 -134 
L 78 3500 
z
" transform="scale(0.015625)"/>
     </defs>
     <use xlink:href="#DejaVuSans-Bold-50"/>
     <use xlink:href="#DejaVuSans-Bold-61" transform="translate(70.666016 0)"/>
     <use xlink:href="#DejaVuSans-Bold-74" transform="translate(138.146484 0)"/>
     <use xlink:href="#DejaVuSans-Bold-68" transform="translate(185.949219 0)"/>
     <use xlink:href="#DejaVuSans-Bold-6f" transform="translate(257.140625 0)"/>
     <use xlink:href="#DejaVuSans-Bold-67" transform="translate(325.841797 0)"/>
     <use xlink:href="#DejaVuSans-Bold-65" transform="translate(397.423828 0)"/>
     <use xlink:href="#DejaVuSans-Bold-6e" transform="translate(465.246094 0)"/>
     <use xlink:href="#DejaVuSans-Bold-69" transform="translate(536.4375 0)"/>
     <use xlink:href="#DejaVuSans-Bold-63" transform="translate(570.714844 0)"/>
     <use xlink:href="#DejaVuSans-Bold-69" transform="translate(629.992188 0)"/>
     <use xlink:href="#DejaVuSans-Bold-74" transform="translate(664.269531 0)"/>
     <use xlink:href="#DejaVuSans-Bold-79" transform="translate(712.072266 0)"/>
    </g>
    <!-- Probability -->
    <g style="fill: #262626" transform="translate(716.008912 290.478794) scale(0.085 -0.085)">
     <defs>
      <path id="DejaVuSans-Bold-62" d="M 2400 722 
Q 2759 722 2948 984 
Q 3138 1247 3138 1747 
Q 3138 2247 2948 2509 
Q 2759 2772 2400 2772 
Q 2041 2772 1848 2508 
Q 1656 2244 1656 1747 
Q 1656 1250 1848 986 
Q 2041 722 2400 722 
z
M 1656 2988 
Q 1888 3294 2169 3439 
Q 2450 3584 2816 3584 
Q 3463 3584 3878 3070 
Q 4294 2556 4294 1747 
Q 4294 938 3878 423 
Q 3463 -91 2816 -91 
Q 2450 -91 2169 54 
Q 1888 200 1656 506 
L 1656 0 
L 538 0 
L 538 4863 
L 1656 4863 
L 1656 2988 
z
" transform="scale(0.015625)"/>
     </defs>
     <use xlink:href="#DejaVuSans-Bold-50"/>
     <use xlink:href="#DejaVuSans-Bold-72" transform="translate(73.291016 0)"/>
     <use xlink:href="#DejaVuSans-Bold-6f" transform="translate(122.607422 0)"/>
     <use xlink:href="#DejaVuSans-Bold-62" transform="translate(191.308594 0)"/>
     <use xlink:href="#DejaVuSans-Bold-61" transform="translate(262.890625 0)"/>
     <use xlink:href="#DejaVuSans-Bold-62" transform="translate(330.371094 0)"/>
     <use xlink:href="#DejaVuSans-Bold-69" transform="translate(401.953125 0)"/>
     <use xlink:href="#DejaVuSans-Bold-6c" transform="translate(436.230469 0)"/>
     <use xlink:href="#DejaVuSans-Bold-69" transform="translate(470.507812 0)"/>
     <use xlink:href="#DejaVuSans-Bold-74" transform="translate(504.785156 0)"/>
     <use xlink:href="#DejaVuSans-Bold-79" transform="translate(552.587891 0)"/>
    </g>
    <!-- + SHAP -->
    <g style="fill: #262626" transform="translate(724.202115 300.063341) scale(0.085 -0.085)">
     <defs>
      <path id="DejaVuSans-Bold-2b" d="M 3053 4013 
L 3053 2375 
L 4684 2375 
L 4684 1638 
L 3053 1638 
L 3053 0 
L 2309 0 
L 2309 1638 
L 678 1638 
L 678 2375 
L 2309 2375 
L 2309 4013 
L 3053 4013 
z
" transform="scale(0.015625)"/>
      <path id="DejaVuSans-Bold-48" d="M 588 4666 
L 1791 4666 
L 1791 2888 
L 3566 2888 
L 3566 4666 
L 4769 4666 
L 4769 0 
L 3566 0 
L 3566 1978 
L 1791 1978 
L 1791 0 
L 588 0 
L 588 4666 
z
" transform="scale(0.015625)"/>
      <path id="DejaVuSans-Bold-41" d="M 3419 850 
L 1538 850 
L 1241 0 
L 31 0 
L 1759 4666 
L 3194 4666 
L 4922 0 
L 3713 0 
L 3419 850 
z
M 1838 1716 
L 3116 1716 
L 2478 3572 
L 1838 1716 
z
" transform="scale(0.015625)"/>
     </defs>
     <use xlink:href="#DejaVuSans-Bold-2b"/>
     <use xlink:href="#DejaVuSans-Bold-20" transform="translate(83.789062 0)"/>
     <use xlink:href="#DejaVuSans-Bold-53" transform="translate(118.603516 0)"/>
     <use xlink:href="#DejaVuSans-Bold-48" transform="translate(190.625 0)"/>
     <use xlink:href="#DejaVuSans-Bold-41" transform="translate(274.316406 0)"/>
     <use xlink:href="#DejaVuSans-Bold-50" transform="translate(351.708984 0)"/>
    </g>
   </g>
   <g id="patch_25">
    <path d="M 611.252611 288.133325 
Q 637.254826 288.133325 661.579991 288.133325 
" style="fill: none; stroke: #5d6d7e; stroke-width: 1.5; stroke-linecap: round"/>
    <path d="M 656.779991 285.733325 
L 661.579991 288.133325 
L 656.779991 290.533325 
z
" style="fill: #5d6d7e; stroke: #5d6d7e; stroke-width: 1.5; stroke-linecap: round"/>
   </g>
   <g id="text_11">
    <!-- Platt -->
    <g style="fill: #888888" transform="translate(628.714174 263.962966) scale(0.075 -0.075)">
     <defs>
      <path id="DejaVuSans-Oblique-50" d="M 1081 4666 
L 2541 4666 
Q 3178 4666 3512 4369 
Q 3847 4072 3847 3500 
Q 3847 2731 3353 2303 
Q 2859 1875 1966 1875 
L 1172 1875 
L 806 0 
L 172 0 
L 1081 4666 
z
M 1613 4147 
L 1275 2394 
L 2069 2394 
Q 2606 2394 2893 2669 
Q 3181 2944 3181 3456 
Q 3181 3784 2986 3965 
Q 2791 4147 2438 4147 
L 1613 4147 
z
" transform="scale(0.015625)"/>
      <path id="DejaVuSans-Oblique-6c" d="M 1172 4863 
L 1747 4863 
L 800 0 
L 225 0 
L 1172 4863 
z
" transform="scale(0.015625)"/>
      <path id="DejaVuSans-Oblique-61" d="M 3438 1997 
L 3047 0 
L 2472 0 
L 2578 531 
Q 2325 219 2001 64 
Q 1678 -91 1281 -91 
Q 834 -91 548 182 
Q 263 456 263 884 
Q 263 1497 752 1853 
Q 1241 2209 2100 2209 
L 2900 2209 
L 2931 2363 
Q 2938 2388 2941 2417 
Q 2944 2447 2944 2509 
Q 2944 2788 2717 2942 
Q 2491 3097 2081 3097 
Q 1800 3097 1504 3025 
Q 1209 2953 897 2809 
L 997 3341 
Q 1322 3463 1633 3523 
Q 1944 3584 2234 3584 
Q 2853 3584 3176 3315 
Q 3500 3047 3500 2534 
Q 3500 2431 3484 2292 
Q 3469 2153 3438 1997 
z
M 2816 1759 
L 2241 1759 
Q 1534 1759 1195 1570 
Q 856 1381 856 984 
Q 856 709 1029 553 
Q 1203 397 1509 397 
Q 1978 397 2328 733 
Q 2678 1069 2791 1631 
L 2816 1759 
z
" transform="scale(0.015625)"/>
      <path id="DejaVuSans-Oblique-74" d="M 2706 3500 
L 2619 3053 
L 1472 3053 
L 1100 1153 
Q 1081 1047 1072 975 
Q 1063 903 1063 863 
Q 1063 663 1183 572 
Q 1303 481 1569 481 
L 2150 481 
L 2053 0 
L 1503 0 
Q 991 0 739 200 
Q 488 400 488 806 
Q 488 878 497 964 
Q 506 1050 525 1153 
L 897 3053 
L 409 3053 
L 500 3500 
L 978 3500 
L 1172 4494 
L 1747 4494 
L 1556 3500 
L 2706 3500 
z
" transform="scale(0.015625)"/>
     </defs>
     <use xlink:href="#DejaVuSans-Oblique-50"/>
     <use xlink:href="#DejaVuSans-Oblique-6c" transform="translate(60.302734 0)"/>
     <use xlink:href="#DejaVuSans-Oblique-61" transform="translate(88.085938 0)"/>
     <use xlink:href="#DejaVuSans-Oblique-74" transform="translate(149.365234 0)"/>
     <use xlink:href="#DejaVuSans-Oblique-74" transform="translate(188.574219 0)"/>
    </g>
    <!-- calibration -->
    <g style="fill: #888888" transform="translate(617.40851 272.361325) scale(0.075 -0.075)">
     <defs>
      <path id="DejaVuSans-Oblique-63" d="M 3431 3366 
L 3316 2797 
Q 3109 2947 2876 3022 
Q 2644 3097 2394 3097 
Q 2119 3097 1870 3000 
Q 1622 2903 1453 2725 
Q 1184 2453 1037 2087 
Q 891 1722 891 1331 
Q 891 859 1127 628 
Q 1363 397 1844 397 
Q 2081 397 2348 469 
Q 2616 541 2906 684 
L 2797 116 
Q 2547 13 2283 -39 
Q 2019 -91 1741 -91 
Q 1044 -91 669 257 
Q 294 606 294 1253 
Q 294 1797 489 2255 
Q 684 2713 1069 3078 
Q 1331 3328 1684 3456 
Q 2038 3584 2456 3584 
Q 2700 3584 2940 3529 
Q 3181 3475 3431 3366 
z
" transform="scale(0.015625)"/>
      <path id="DejaVuSans-Oblique-69" d="M 1172 4863 
L 1747 4863 
L 1606 4134 
L 1031 4134 
L 1172 4863 
z
M 909 3500 
L 1484 3500 
L 800 0 
L 225 0 
L 909 3500 
z
" transform="scale(0.015625)"/>
      <path id="DejaVuSans-Oblique-62" d="M 3169 2138 
Q 3169 2591 2961 2847 
Q 2753 3103 2388 3103 
Q 2122 3103 1889 2973 
Q 1656 2844 1484 2597 
Q 1303 2338 1198 1995 
Q 1094 1653 1094 1313 
Q 1094 881 1298 636 
Q 1503 391 1863 391 
Q 2134 391 2365 517 
Q 2597 644 2772 891 
Q 2950 1147 3059 1487 
Q 3169 1828 3169 2138 
z
M 1381 2969 
Q 1594 3256 1914 3420 
Q 2234 3584 2584 3584 
Q 3122 3584 3439 3221 
Q 3756 2859 3756 2241 
Q 3756 1734 3570 1259 
Q 3384 784 3041 416 
Q 2816 172 2522 40 
Q 2228 -91 1906 -91 
Q 1566 -91 1316 65 
Q 1066 222 909 531 
L 806 0 
L 231 0 
L 1178 4863 
L 1753 4863 
L 1381 2969 
z
" transform="scale(0.015625)"/>
      <path id="DejaVuSans-Oblique-72" d="M 2853 2969 
Q 2766 3016 2653 3041 
Q 2541 3066 2413 3066 
Q 1953 3066 1609 2717 
Q 1266 2369 1153 1784 
L 800 0 
L 225 0 
L 909 3500 
L 1484 3500 
L 1375 2956 
Q 1603 3259 1920 3421 
Q 2238 3584 2597 3584 
Q 2691 3584 2781 3573 
Q 2872 3563 2963 3538 
L 2853 2969 
z
" transform="scale(0.015625)"/>
      <path id="DejaVuSans-Oblique-6f" d="M 1625 -91 
Q 1009 -91 651 289 
Q 294 669 294 1325 
Q 294 1706 417 2101 
Q 541 2497 738 2766 
Q 1047 3184 1428 3384 
Q 1809 3584 2291 3584 
Q 2888 3584 3255 3212 
Q 3622 2841 3622 2241 
Q 3622 1825 3500 1412 
Q 3378 1000 3181 728 
Q 2875 309 2494 109 
Q 2113 -91 1625 -91 
z
M 891 1344 
Q 891 869 1089 633 
Q 1288 397 1691 397 
Q 2269 397 2648 901 
Q 3028 1406 3028 2181 
Q 3028 2634 2825 2865 
Q 2622 3097 2228 3097 
Q 1903 3097 1650 2945 
Q 1397 2794 1197 2484 
Q 1050 2253 970 1956 
Q 891 1659 891 1344 
z
" transform="scale(0.015625)"/>
      <path id="DejaVuSans-Oblique-6e" d="M 3566 2113 
L 3156 0 
L 2578 0 
L 2988 2091 
Q 3016 2238 3031 2350 
Q 3047 2463 3047 2528 
Q 3047 2791 2881 2937 
Q 2716 3084 2419 3084 
Q 1956 3084 1622 2776 
Q 1288 2469 1184 1941 
L 800 0 
L 225 0 
L 903 3500 
L 1478 3500 
L 1363 2950 
Q 1603 3253 1940 3418 
Q 2278 3584 2650 3584 
Q 3113 3584 3367 3334 
Q 3622 3084 3622 2631 
Q 3622 2519 3608 2391 
Q 3594 2263 3566 2113 
z
" transform="scale(0.015625)"/>
     </defs>
     <use xlink:href="#DejaVuSans-Oblique-63"/>
     <use xlink:href="#DejaVuSans-Oblique-61" transform="translate(54.980469 0)"/>
     <use xlink:href="#DejaVuSans-Oblique-6c" transform="translate(116.259766 0)"/>
     <use xlink:href="#DejaVuSans-Oblique-69" transform="translate(144.042969 0)"/>
     <use xlink:href="#DejaVuSans-Oblique-62" transform="translate(171.826172 0)"/>
     <use xlink:href="#DejaVuSans-Oblique-72" transform="translate(235.302734 0)"/>
     <use xlink:href="#DejaVuSans-Oblique-61" transform="translate(276.416016 0)"/>
     <use xlink:href="#DejaVuSans-Oblique-74" transform="translate(337.695312 0)"/>
     <use xlink:href="#DejaVuSans-Oblique-69" transform="translate(376.904297 0)"/>
     <use xlink:href="#DejaVuSans-Oblique-6f" transform="translate(404.6875 0)"/>
     <use xlink:href="#DejaVuSans-Oblique-6e" transform="translate(465.869141 0)"/>
    </g>
   </g>
   <g id="text_12">
    <!-- AUROC = 0.9664 -->
    <g style="fill: #c0392b" transform="translate(700.406881 329.140525) scale(0.09 -0.09)">
     <defs>
      <path id="DejaVuSans-Bold-55" d="M 588 4666 
L 1791 4666 
L 1791 1869 
Q 1791 1291 1980 1042 
Q 2169 794 2597 794 
Q 3028 794 3217 1042 
Q 3406 1291 3406 1869 
L 3406 4666 
L 4609 4666 
L 4609 1869 
Q 4609 878 4112 393 
Q 3616 -91 2597 -91 
Q 1581 -91 1084 393 
Q 588 878 588 1869 
L 588 4666 
z
" transform="scale(0.015625)"/>
      <path id="DejaVuSans-Bold-52" d="M 2297 2597 
Q 2675 2597 2839 2737 
Q 3003 2878 3003 3200 
Q 3003 3519 2839 3656 
Q 2675 3794 2297 3794 
L 1791 3794 
L 1791 2597 
L 2297 2597 
z
M 1791 1766 
L 1791 0 
L 588 0 
L 588 4666 
L 2425 4666 
Q 3347 4666 3776 4356 
Q 4206 4047 4206 3378 
Q 4206 2916 3982 2619 
Q 3759 2322 3309 2181 
Q 3556 2125 3751 1926 
Q 3947 1728 4147 1325 
L 4800 0 
L 3519 0 
L 2950 1159 
Q 2778 1509 2601 1637 
Q 2425 1766 2131 1766 
L 1791 1766 
z
" transform="scale(0.015625)"/>
      <path id="DejaVuSans-Bold-4f" d="M 2719 3878 
Q 2169 3878 1866 3472 
Q 1563 3066 1563 2328 
Q 1563 1594 1866 1187 
Q 2169 781 2719 781 
Q 3272 781 3575 1187 
Q 3878 1594 3878 2328 
Q 3878 3066 3575 3472 
Q 3272 3878 2719 3878 
z
M 2719 4750 
Q 3844 4750 4481 4106 
Q 5119 3463 5119 2328 
Q 5119 1197 4481 553 
Q 3844 -91 2719 -91 
Q 1597 -91 958 553 
Q 319 1197 319 2328 
Q 319 3463 958 4106 
Q 1597 4750 2719 4750 
z
" transform="scale(0.015625)"/>
      <path id="DejaVuSans-Bold-3d" d="M 678 3084 
L 4684 3084 
L 4684 2350 
L 678 2350 
L 678 3084 
z
M 678 1663 
L 4684 1663 
L 4684 922 
L 678 922 
L 678 1663 
z
" transform="scale(0.015625)"/>
      <path id="DejaVuSans-Bold-2e" d="M 653 1209 
L 1778 1209 
L 1778 0 
L 653 0 
L 653 1209 
z
" transform="scale(0.015625)"/>
      <path id="DejaVuSans-Bold-39" d="M 641 103 
L 641 966 
Q 928 831 1190 764 
Q 1453 697 1709 697 
Q 2247 697 2547 995 
Q 2847 1294 2900 1881 
Q 2688 1725 2447 1647 
Q 2206 1569 1925 1569 
Q 1209 1569 770 1986 
Q 331 2403 331 3084 
Q 331 3838 820 4291 
Q 1309 4744 2131 4744 
Q 3044 4744 3544 4128 
Q 4044 3513 4044 2388 
Q 4044 1231 3459 570 
Q 2875 -91 1856 -91 
Q 1528 -91 1228 -42 
Q 928 6 641 103 
z
M 2125 2350 
Q 2441 2350 2600 2554 
Q 2759 2759 2759 3169 
Q 2759 3575 2600 3781 
Q 2441 3988 2125 3988 
Q 1809 3988 1650 3781 
Q 1491 3575 1491 3169 
Q 1491 2759 1650 2554 
Q 1809 2350 2125 2350 
z
" transform="scale(0.015625)"/>
      <path id="DejaVuSans-Bold-36" d="M 2316 2303 
Q 2000 2303 1842 2098 
Q 1684 1894 1684 1484 
Q 1684 1075 1842 870 
Q 2000 666 2316 666 
Q 2634 666 2792 870 
Q 2950 1075 2950 1484 
Q 2950 1894 2792 2098 
Q 2634 2303 2316 2303 
z
M 3803 4544 
L 3803 3681 
Q 3506 3822 3243 3889 
Q 2981 3956 2731 3956 
Q 2194 3956 1894 3657 
Q 1594 3359 1544 2772 
Q 1750 2925 1990 3001 
Q 2231 3078 2516 3078 
Q 3231 3078 3670 2659 
Q 4109 2241 4109 1563 
Q 4109 813 3618 361 
Q 3128 -91 2303 -91 
Q 1394 -91 895 523 
Q 397 1138 397 2266 
Q 397 3422 980 4083 
Q 1563 4744 2578 4744 
Q 2900 4744 3203 4694 
Q 3506 4644 3803 4544 
z
" transform="scale(0.015625)"/>
      <path id="DejaVuSans-Bold-34" d="M 2356 3675 
L 1038 1722 
L 2356 1722 
L 2356 3675 
z
M 2156 4666 
L 3494 4666 
L 3494 1722 
L 4159 1722 
L 4159 850 
L 3494 850 
L 3494 0 
L 2356 0 
L 2356 850 
L 288 850 
L 288 1881 
L 2156 4666 
z
" transform="scale(0.015625)"/>
     </defs>
     <use xlink:href="#DejaVuSans-Bold-41"/>
     <use xlink:href="#DejaVuSans-Bold-55" transform="translate(74.267578 0)"/>
     <use xlink:href="#DejaVuSans-Bold-52" transform="translate(155.46875 0)"/>
     <use xlink:href="#DejaVuSans-Bold-4f" transform="translate(232.470703 0)"/>
     <use xlink:href="#DejaVuSans-Bold-43" transform="translate(317.480469 0)"/>
     <use xlink:href="#DejaVuSans-Bold-20" transform="translate(390.869141 0)"/>
     <use xlink:href="#DejaVuSans-Bold-3d" transform="translate(425.683594 0)"/>
     <use xlink:href="#DejaVuSans-Bold-20" transform="translate(509.472656 0)"/>
     <use xlink:href="#DejaVuSans-Bold-30" transform="translate(544.287109 0)"/>
     <use xlink:href="#DejaVuSans-Bold-2e" transform="translate(613.867188 0)"/>
     <use xlink:href="#DejaVuSans-Bold-39" transform="translate(651.855469 0)"/>
     <use xlink:href="#DejaVuSans-Bold-36" transform="translate(721.435547 0)"/>
     <use xlink:href="#DejaVuSans-Bold-36" transform="translate(791.015625 0)"/>
     <use xlink:href="#DejaVuSans-Bold-34" transform="translate(860.595703 0)"/>
    </g>
   </g>
   <g id="text_13">
    <!-- SNV-judge v4: System Architecture &amp; Data Pipeline -->
    <g style="fill: #262626" transform="translate(288.6 16.318125) scale(0.12 -0.12)">
     <defs>
      <path id="DejaVuSans-Bold-2d" d="M 347 2297 
L 2309 2297 
L 2309 1388 
L 347 1388 
L 347 2297 
z
" transform="scale(0.015625)"/>
      <path id="DejaVuSans-Bold-6a" d="M 538 3500 
L 1656 3500 
L 1656 63 
Q 1656 -641 1318 -1011 
Q 981 -1381 341 -1381 
L -213 -1381 
L -213 -647 
L -19 -647 
Q 300 -647 419 -503 
Q 538 -359 538 63 
L 538 3500 
z
M 538 4863 
L 1656 4863 
L 1656 3950 
L 538 3950 
L 538 4863 
z
" transform="scale(0.015625)"/>
      <path id="DejaVuSans-Bold-75" d="M 500 1363 
L 500 3500 
L 1625 3500 
L 1625 3150 
Q 1625 2866 1622 2436 
Q 1619 2006 1619 1863 
Q 1619 1441 1641 1255 
Q 1663 1069 1716 984 
Q 1784 875 1895 815 
Q 2006 756 2150 756 
Q 2500 756 2700 1025 
Q 2900 1294 2900 1772 
L 2900 3500 
L 4019 3500 
L 4019 0 
L 2900 0 
L 2900 506 
Q 2647 200 2364 54 
Q 2081 -91 1741 -91 
Q 1134 -91 817 281 
Q 500 653 500 1363 
z
" transform="scale(0.015625)"/>
      <path id="DejaVuSans-Bold-64" d="M 2919 2988 
L 2919 4863 
L 4044 4863 
L 4044 0 
L 2919 0 
L 2919 506 
Q 2688 197 2409 53 
Q 2131 -91 1766 -91 
Q 1119 -91 703 423 
Q 288 938 288 1747 
Q 288 2556 703 3070 
Q 1119 3584 1766 3584 
Q 2128 3584 2408 3439 
Q 2688 3294 2919 2988 
z
M 2181 722 
Q 2541 722 2730 984 
Q 2919 1247 2919 1747 
Q 2919 2247 2730 2509 
Q 2541 2772 2181 2772 
Q 1825 2772 1636 2509 
Q 1447 2247 1447 1747 
Q 1447 1247 1636 984 
Q 1825 722 2181 722 
z
" transform="scale(0.015625)"/>
      <path id="DejaVuSans-Bold-76" d="M 97 3500 
L 1216 3500 
L 2088 1081 
L 2956 3500 
L 4078 3500 
L 2700 0 
L 1472 0 
L 97 3500 
z
" transform="scale(0.015625)"/>
      <path id="DejaVuSans-Bold-3a" d="M 716 3500 
L 1844 3500 
L 1844 2291 
L 716 2291 
L 716 3500 
z
M 716 1209 
L 1844 1209 
L 1844 0 
L 716 0 
L 716 1209 
z
" transform="scale(0.015625)"/>
      <path id="DejaVuSans-Bold-6d" d="M 3781 2919 
Q 3994 3244 4286 3414 
Q 4578 3584 4928 3584 
Q 5531 3584 5847 3212 
Q 6163 2841 6163 2131 
L 6163 0 
L 5038 0 
L 5038 1825 
Q 5041 1866 5042 1909 
Q 5044 1953 5044 2034 
Q 5044 2406 4934 2573 
Q 4825 2741 4581 2741 
Q 4263 2741 4089 2478 
Q 3916 2216 3909 1719 
L 3909 0 
L 2784 0 
L 2784 1825 
Q 2784 2406 2684 2573 
Q 2584 2741 2328 2741 
Q 2006 2741 1831 2477 
Q 1656 2213 1656 1722 
L 1656 0 
L 531 0 
L 531 3500 
L 1656 3500 
L 1656 2988 
Q 1863 3284 2130 3434 
Q 2397 3584 2719 3584 
Q 3081 3584 3359 3409 
Q 3638 3234 3781 2919 
z
" transform="scale(0.015625)"/>
      <path id="DejaVuSans-Bold-26" d="M 2497 3097 
L 3775 1691 
Q 3941 1909 4027 2181 
Q 4113 2453 4128 2797 
L 5100 2797 
Q 5053 2228 4879 1784 
Q 4706 1341 4397 1006 
L 5313 0 
L 3988 0 
L 3681 341 
Q 3353 122 2990 15 
Q 2628 -91 2222 -91 
Q 1400 -91 892 342 
Q 384 775 384 1459 
Q 384 1916 607 2267 
Q 831 2619 1338 2950 
Q 1206 3116 1143 3281 
Q 1081 3447 1081 3628 
Q 1081 4138 1478 4444 
Q 1875 4750 2534 4750 
Q 2819 4750 3126 4704 
Q 3434 4659 3769 4569 
L 3769 3700 
Q 3475 3850 3212 3922 
Q 2950 3994 2700 3994 
Q 2459 3994 2326 3901 
Q 2194 3809 2194 3641 
Q 2194 3534 2270 3398 
Q 2347 3263 2497 3097 
z
M 1875 2322 
Q 1672 2175 1569 1989 
Q 1466 1803 1466 1581 
Q 1466 1222 1731 969 
Q 1997 716 2369 716 
Q 2578 716 2759 780 
Q 2941 844 3097 972 
L 1875 2322 
z
" transform="scale(0.015625)"/>
      <path id="DejaVuSans-Bold-44" d="M 1791 3756 
L 1791 909 
L 2222 909 
Q 2959 909 3348 1275 
Q 3738 1641 3738 2338 
Q 3738 3031 3350 3393 
Q 2963 3756 2222 3756 
L 1791 3756 
z
M 588 4666 
L 1856 4666 
Q 2919 4666 3439 4514 
Q 3959 4363 4331 4000 
Q 4659 3684 4818 3271 
Q 4978 2859 4978 2338 
Q 4978 1809 4818 1395 
Q 4659 981 4331 666 
Q 3956 303 3431 151 
Q 2906 0 1856 0 
L 588 0 
L 588 4666 
z
" transform="scale(0.015625)"/>
      <path id="DejaVuSans-Bold-70" d="M 1656 506 
L 1656 -1331 
L 538 -1331 
L 538 3500 
L 1656 3500 
L 1656 2988 
Q 1888 3294 2169 3439 
Q 2450 3584 2816 3584 
Q 3463 3584 3878 3070 
Q 4294 2556 4294 1747 
Q 4294 938 3878 423 
Q 3463 -91 2816 -91 
Q 2450 -91 2169 54 
Q 1888 200 1656 506 
z
M 2400 2772 
Q 2041 2772 1848 2508 
Q 1656 2244 1656 1747 
Q 1656 1250 1848 986 
Q 2041 722 2400 722 
Q 2759 722 2948 984 
Q 3138 1247 3138 1747 
Q 3138 2247 2948 2509 
Q 2759 2772 2400 2772 
z
" transform="scale(0.015625)"/>
     </defs>
     <use xlink:href="#DejaVuSans-Bold-53"/>
     <use xlink:href="#DejaVuSans-Bold-4e" transform="translate(72.021484 0)"/>
     <use xlink:href="#DejaVuSans-Bold-56" transform="translate(155.712891 0)"/>
     <use xlink:href="#DejaVuSans-Bold-2d" transform="translate(225.855469 0)"/>
     <use xlink:href="#DejaVuSans-Bold-6a" transform="translate(267.359375 0)"/>
     <use xlink:href="#DejaVuSans-Bold-75" transform="translate(301.636719 0)"/>
     <use xlink:href="#DejaVuSans-Bold-64" transform="translate(372.828125 0)"/>
     <use xlink:href="#DejaVuSans-Bold-67" transform="translate(444.410156 0)"/>
     <use xlink:href="#DejaVuSans-Bold-65" transform="translate(515.992188 0)"/>
     <use xlink:href="#DejaVuSans-Bold-20" transform="translate(583.814453 0)"/>
     <use xlink:href="#DejaVuSans-Bold-76" transform="translate(618.628906 0)"/>
     <use xlink:href="#DejaVuSans-Bold-34" transform="translate(683.814453 0)"/>
     <use xlink:href="#DejaVuSans-Bold-3a" transform="translate(753.394531 0)"/>
     <use xlink:href="#DejaVuSans-Bold-20" transform="translate(793.384766 0)"/>
     <use xlink:href="#DejaVuSans-Bold-53" transform="translate(828.199219 0)"/>
     <use xlink:href="#DejaVuSans-Bold-79" transform="translate(900.220703 0)"/>
     <use xlink:href="#DejaVuSans-Bold-73" transform="translate(965.40625 0)"/>
     <use xlink:href="#DejaVuSans-Bold-74" transform="translate(1024.927734 0)"/>
     <use xlink:href="#DejaVuSans-Bold-65" transform="translate(1072.730469 0)"/>
     <use xlink:href="#DejaVuSans-Bold-6d" transform="translate(1140.552734 0)"/>
     <use xlink:href="#DejaVuSans-Bold-20" transform="translate(1244.751953 0)"/>
     <use xlink:href="#DejaVuSans-Bold-41" transform="translate(1279.566406 0)"/>
     <use xlink:href="#DejaVuSans-Bold-72" transform="translate(1356.958984 0)"/>
     <use xlink:href="#DejaVuSans-Bold-63" transform="translate(1406.275391 0)"/>
     <use xlink:href="#DejaVuSans-Bold-68" transform="translate(1465.552734 0)"/>
     <use xlink:href="#DejaVuSans-Bold-69" transform="translate(1536.744141 0)"/>
     <use xlink:href="#DejaVuSans-Bold-74" transform="translate(1571.021484 0)"/>
     <use xlink:href="#DejaVuSans-Bold-65" transform="translate(1618.824219 0)"/>
     <use xlink:href="#DejaVuSans-Bold-63" transform="translate(1686.646484 0)"/>
     <use xlink:href="#DejaVuSans-Bold-74" transform="translate(1745.923828 0)"/>
     <use xlink:href="#DejaVuSans-Bold-75" transform="translate(1793.726562 0)"/>
     <use xlink:href="#DejaVuSans-Bold-72" transform="translate(1864.917969 0)"/>
     <use xlink:href="#DejaVuSans-Bold-65" transform="translate(1914.234375 0)"/>
     <use xlink:href="#DejaVuSans-Bold-20" transform="translate(1982.056641 0)"/>
     <use xlink:href="#DejaVuSans-Bold-26" transform="translate(2016.871094 0)"/>
     <use xlink:href="#DejaVuSans-Bold-20" transform="translate(2104.078125 0)"/>
     <use xlink:href="#DejaVuSans-Bold-44" transform="translate(2138.892578 0)"/>
     <use xlink:href="#DejaVuSans-Bold-61" transform="translate(2221.900391 0)"/>
     <use xlink:href="#DejaVuSans-Bold-74" transform="translate(2289.380859 0)"/>
     <use xlink:href="#DejaVuSans-Bold-61" transform="translate(2337.183594 0)"/>
     <use xlink:href="#DejaVuSans-Bold-20" transform="translate(2404.664062 0)"/>
     <use xlink:href="#DejaVuSans-Bold-50" transform="translate(2439.478516 0)"/>
     <use xlink:href="#DejaVuSans-Bold-69" transform="translate(2512.769531 0)"/>
     <use xlink:href="#DejaVuSans-Bold-70" transform="translate(2547.046875 0)"/>
     <use xlink:href="#DejaVuSans-Bold-65" transform="translate(2618.628906 0)"/>
     <use xlink:href="#DejaVuSans-Bold-6c" transform="translate(2686.451172 0)"/>
     <use xlink:href="#DejaVuSans-Bold-69" transform="translate(2720.728516 0)"/>
     <use xlink:href="#DejaVuSans-Bold-6e" transform="translate(2755.005859 0)"/>
     <use xlink:href="#DejaVuSans-Bold-65" transform="translate(2826.197266 0)"/>
    </g>
   </g>
  </g>
 </g>
 <defs>
  <clipPath id="p2304211209">
   <rect x="7.2" y="26.318125" width="910.08" height="315.44"/>
  </clipPath>
 </defs>
</svg>
