<?xml version="1.0" encoding="utf-8" standalone="no"?>
<!DOCTYPE svg PUBLIC "-//W3C//DTD SVG 1.1//EN"
  "http://www.w3.org/Graphics/SVG/1.1/DTD/svg11.dtd">
<svg xmlns:xlink="http://www.w3.org/1999/xlink" width="827.152547pt" height="323.106703pt" viewBox="0 0 827.152547 323.106703" xmlns="http://www.w3.org/2000/svg" version="1.1">
 <metadata>
  <rdf:RDF xmlns:dc="http://purl.org/dc/elements/1.1/" xmlns:cc="http://creativecommons.org/ns#" xmlns:rdf="http://www.w3.org/1999/02/22-rdf-syntax-ns#">
   <cc:Work>
    <dc:type rdf:resource="http://purl.org/dc/dcmitype/StillImage"/>
    <dc:date>2026-03-04T18:08:29.685944</dc:date>
    <dc:format>image/svg+xml</dc:format>
    <dc:creator>
     <cc:Agent>
      <dc:title>Matplotlib v3.10.5, https://matplotlib.org/</dc:title>
     </cc:Agent>
    </dc:creator>
   </cc:Work>
  </rdf:RDF>
 </metadata>
 <defs>
  <style type="text/css">*{stroke-linejoin: round; stroke-linecap: butt}</style>
 </defs>
 <g id="figure_1">
  <g id="patch_1">
   <path d="M 0 323.106703 
L 827.152547 323.106703 
L 827.152547 0 
L 0 0 
z
" style="fill: #ffffff"/>
  </g>
  <g id="axes_1">
   <g id="patch_2">
    <path d="M 51.262547 279.034031 
L 400.552547 279.034031 
L 400.552547 22.774031 
L 51.262547 22.774031 
z
" style="fill: #ffffff"/>
   </g>
   <g id="matplotlib.axis_1">
    <g id="xtick_1">
     <g id="line2d_1">
      <defs>
       <path id="m07b4cd66ff" d="M 0 0 
L 0 6 
" style="stroke: #262626; stroke-width: 1.25"/>
      </defs>
      <g>
       <use xlink:href="#m07b4cd66ff" x="67.139365" y="279.034031" style="fill: #262626; stroke: #262626; stroke-width: 1.25"/>
      </g>
     </g>
     <g id="text_1">
      <!-- 0.0 -->
      <g style="fill: #262626" transform="translate(57.95531 297.310227) scale(0.1155 -0.1155)">
       <defs>
        <path id="DejaVuSans-30" d="M 2034 4250 
Q 1547 4250 1301 3770 
Q 1056 3291 1056 2328 
Q 1056 1369 1301 889 
Q 1547 409 2034 409 
Q 2525 409 2770 889 
Q 3016 1369 3016 2328 
Q 3016 3291 2770 3770 
Q 2525 4250 2034 4250 
z
M 2034 4750 
Q 2819 4750 3233 4129 
Q 3647 3509 3647 2328 
Q 3647 1150 3233 529 
Q 2819 -91 2034 -91 
Q 1250 -91 836 529 
Q 422 1150 422 2328 
Q 422 3509 836 4129 
Q 1250 4750 2034 4750 
z
" transform="scale(0.015625)"/>
        <path id="DejaVuSans-2e" d="M 684 794 
L 1344 794 
L 1344 0 
L 684 0 
L 684 794 
z
" transform="scale(0.015625)"/>
       </defs>
       <use xlink:href="#DejaVuSans-30"/>
       <use xlink:href="#DejaVuSans-2e" transform="translate(63.623047 0)"/>
       <use xlink:href="#DejaVuSans-30" transform="translate(95.410156 0)"/>
      </g>
     </g>
    </g>
    <g id="xtick_2">
     <g id="line2d_2">
      <g>
       <use xlink:href="#m07b4cd66ff" x="130.646638" y="279.034031" style="fill: #262626; stroke: #262626; stroke-width: 1.25"/>
      </g>
     </g>
     <g id="text_2">
      <!-- 0.2 -->
      <g style="fill: #262626" transform="translate(121.462583 297.310227) scale(0.1155 -0.1155)">
       <defs>
        <path id="DejaVuSans-32" d="M 1228 531 
L 3431 531 
L 3431 0 
L 469 0 
L 469 531 
Q 828 903 1448 1529 
Q 2069 2156 2228 2338 
Q 2531 2678 2651 2914 
Q 2772 3150 2772 3378 
Q 2772 3750 2511 3984 
Q 2250 4219 1831 4219 
Q 1534 4219 1204 4116 
Q 875 4013 500 3803 
L 500 4441 
Q 881 4594 1212 4672 
Q 1544 4750 1819 4750 
Q 2544 4750 2975 4387 
Q 3406 4025 3406 3419 
Q 3406 3131 3298 2873 
Q 3191 2616 2906 2266 
Q 2828 2175 2409 1742 
Q 1991 1309 1228 531 
z
" transform="scale(0.015625)"/>
       </defs>
       <use xlink:href="#DejaVuSans-30"/>
       <use xlink:href="#DejaVuSans-2e" transform="translate(63.623047 0)"/>
       <use xlink:href="#DejaVuSans-32" transform="translate(95.410156 0)"/>
      </g>
     </g>
    </g>
    <g id="xtick_3">
     <g id="line2d_3">
      <g>
       <use xlink:href="#m07b4cd66ff" x="194.153911" y="279.034031" style="fill: #262626; stroke: #262626; stroke-width: 1.25"/>
      </g>
     </g>
     <g id="text_3">
      <!-- 0.4 -->
      <g style="fill: #262626" transform="translate(184.969856 297.310227) scale(0.1155 -0.1155)">
       <defs>
        <path id="DejaVuSans-34" d="M 2419 4116 
L 825 1625 
L 2419 1625 
L 2419 4116 
z
M 2253 4666 
L 3047 4666 
L 3047 1625 
L 3713 1625 
L 3713 1100 
L 3047 1100 
L 3047 0 
L 2419 0 
L 2419 1100 
L 313 1100 
L 313 1709 
L 2253 4666 
z
" transform="scale(0.015625)"/>
       </defs>
       <use xlink:href="#DejaVuSans-30"/>
       <use xlink:href="#DejaVuSans-2e" transform="translate(63.623047 0)"/>
       <use xlink:href="#DejaVuSans-34" transform="translate(95.410156 0)"/>
      </g>
     </g>
    </g>
    <g id="xtick_4">
     <g id="line2d_4">
      <g>
       <use xlink:href="#m07b4cd66ff" x="257.661183" y="279.034031" style="fill: #262626; stroke: #262626; stroke-width: 1.25"/>
      </g>
     </g>
     <g id="text_4">
      <!-- 0.6 -->
      <g style="fill: #262626" transform="translate(248.477129 297.310227) scale(0.1155 -0.1155)">
       <defs>
        <path id="DejaVuSans-36" d="M 2113 2584 
Q 1688 2584 1439 2293 
Q 1191 2003 1191 1497 
Q 1191 994 1439 701 
Q 1688 409 2113 409 
Q 2538 409 2786 701 
Q 3034 994 3034 1497 
Q 3034 2003 2786 2293 
Q 2538 2584 2113 2584 
z
M 3366 4563 
L 3366 3988 
Q 3128 4100 2886 4159 
Q 2644 4219 2406 4219 
Q 1781 4219 1451 3797 
Q 1122 3375 1075 2522 
Q 1259 2794 1537 2939 
Q 1816 3084 2150 3084 
Q 2853 3084 3261 2657 
Q 3669 2231 3669 1497 
Q 3669 778 3244 343 
Q 2819 -91 2113 -91 
Q 1303 -91 875 529 
Q 447 1150 447 2328 
Q 447 3434 972 4092 
Q 1497 4750 2381 4750 
Q 2619 4750 2861 4703 
Q 3103 4656 3366 4563 
z
" transform="scale(0.015625)"/>
       </defs>
       <use xlink:href="#DejaVuSans-30"/>
       <use xlink:href="#DejaVuSans-2e" transform="translate(63.623047 0)"/>
       <use xlink:href="#DejaVuSans-36" transform="translate(95.410156 0)"/>
      </g>
     </g>
    </g>
    <g id="xtick_5">
     <g id="line2d_5">
      <g>
       <use xlink:href="#m07b4cd66ff" x="321.168456" y="279.034031" style="fill: #262626; stroke: #262626; stroke-width: 1.25"/>
      </g>
     </g>
     <g id="text_5">
      <!-- 0.8 -->
      <g style="fill: #262626" transform="translate(311.984401 297.310227) scale(0.1155 -0.1155)">
       <defs>
        <path id="DejaVuSans-38" d="M 2034 2216 
Q 1584 2216 1326 1975 
Q 1069 1734 1069 1313 
Q 1069 891 1326 650 
Q 1584 409 2034 409 
Q 2484 409 2743 651 
Q 3003 894 3003 1313 
Q 3003 1734 2745 1975 
Q 2488 2216 2034 2216 
z
M 1403 2484 
Q 997 2584 770 2862 
Q 544 3141 544 3541 
Q 544 4100 942 4425 
Q 1341 4750 2034 4750 
Q 2731 4750 3128 4425 
Q 3525 4100 3525 3541 
Q 3525 3141 3298 2862 
Q 3072 2584 2669 2484 
Q 3125 2378 3379 2068 
Q 3634 1759 3634 1313 
Q 3634 634 3220 271 
Q 2806 -91 2034 -91 
Q 1263 -91 848 271 
Q 434 634 434 1313 
Q 434 1759 690 2068 
Q 947 2378 1403 2484 
z
M 1172 3481 
Q 1172 3119 1398 2916 
Q 1625 2713 2034 2713 
Q 2441 2713 2670 2916 
Q 2900 3119 2900 3481 
Q 2900 3844 2670 4047 
Q 2441 4250 2034 4250 
Q 1625 4250 1398 4047 
Q 1172 3844 1172 3481 
z
" transform="scale(0.015625)"/>
       </defs>
       <use xlink:href="#DejaVuSans-30"/>
       <use xlink:href="#DejaVuSans-2e" transform="translate(63.623047 0)"/>
       <use xlink:href="#DejaVuSans-38" transform="translate(95.410156 0)"/>
      </g>
     </g>
    </g>
    <g id="xtick_6">
     <g id="line2d_6">
      <g>
       <use xlink:href="#m07b4cd66ff" x="384.675729" y="279.034031" style="fill: #262626; stroke: #262626; stroke-width: 1.25"/>
      </g>
     </g>
     <g id="text_6">
      <!-- 1.0 -->
      <g style="fill: #262626" transform="translate(375.491674 297.310227) scale(0.1155 -0.1155)">
       <defs>
        <path id="DejaVuSans-31" d="M 794 531 
L 1825 531 
L 1825 4091 
L 703 3866 
L 703 4441 
L 1819 4666 
L 2450 4666 
L 2450 531 
L 3481 531 
L 3481 0 
L 794 0 
L 794 531 
z
" transform="scale(0.015625)"/>
       </defs>
       <use xlink:href="#DejaVuSans-31"/>
       <use xlink:href="#DejaVuSans-2e" transform="translate(63.623047 0)"/>
       <use xlink:href="#DejaVuSans-30" transform="translate(95.410156 0)"/>
      </g>
     </g>
    </g>
    <g id="text_7">
     <!-- False Positive Rate -->
     <g style="fill: #262626" transform="translate(167.359875 313.286297) scale(0.126 -0.126)">
      <defs>
       <path id="DejaVuSans-46" d="M 628 4666 
L 3309 4666 
L 3309 4134 
L 1259 4134 
L 1259 2759 
L 3109 2759 
L 3109 2228 
L 1259 2228 
L 1259 0 
L 628 0 
L 628 4666 
z
" transform="scale(0.015625)"/>
       <path id="DejaVuSans-61" d="M 2194 1759 
Q 1497 1759 1228 1600 
Q 959 1441 959 1056 
Q 959 750 1161 570 
Q 1363 391 1709 391 
Q 2188 391 2477 730 
Q 2766 1069 2766 1631 
L 2766 1759 
L 2194 1759 
z
M 3341 1997 
L 3341 0 
L 2766 0 
L 2766 531 
Q 2569 213 2275 61 
Q 1981 -91 1556 -91 
Q 1019 -91 701 211 
Q 384 513 384 1019 
Q 384 1609 779 1909 
Q 1175 2209 1959 2209 
L 2766 2209 
L 2766 2266 
Q 2766 2663 2505 2880 
Q 2244 3097 1772 3097 
Q 1472 3097 1187 3025 
Q 903 2953 641 2809 
L 641 3341 
Q 956 3463 1253 3523 
Q 1550 3584 1831 3584 
Q 2591 3584 2966 3190 
Q 3341 2797 3341 1997 
z
" transform="scale(0.015625)"/>
       <path id="DejaVuSans-6c" d="M 603 4863 
L 1178 4863 
L 1178 0 
L 603 0 
L 603 4863 
z
" transform="scale(0.015625)"/>
       <path id="DejaVuSans-73" d="M 2834 3397 
L 2834 2853 
Q 2591 2978 2328 3040 
Q 2066 3103 1784 3103 
Q 1356 3103 1142 2972 
Q 928 2841 928 2578 
Q 928 2378 1081 2264 
Q 1234 2150 1697 2047 
L 1894 2003 
Q 2506 1872 2764 1633 
Q 3022 1394 3022 966 
Q 3022 478 2636 193 
Q 2250 -91 1575 -91 
Q 1294 -91 989 -36 
Q 684 19 347 128 
L 347 722 
Q 666 556 975 473 
Q 1284 391 1588 391 
Q 1994 391 2212 530 
Q 2431 669 2431 922 
Q 2431 1156 2273 1281 
Q 2116 1406 1581 1522 
L 1381 1569 
Q 847 1681 609 1914 
Q 372 2147 372 2553 
Q 372 3047 722 3315 
Q 1072 3584 1716 3584 
Q 2034 3584 2315 3537 
Q 2597 3491 2834 3397 
z
" transform="scale(0.015625)"/>
       <path id="DejaVuSans-65" d="M 3597 1894 
L 3597 1613 
L 953 1613 
Q 991 1019 1311 708 
Q 1631 397 2203 397 
Q 2534 397 2845 478 
Q 3156 559 3463 722 
L 3463 178 
Q 3153 47 2828 -22 
Q 2503 -91 2169 -91 
Q 1331 -91 842 396 
Q 353 884 353 1716 
Q 353 2575 817 3079 
Q 1281 3584 2069 3584 
Q 2775 3584 3186 3129 
Q 3597 2675 3597 1894 
z
M 3022 2063 
Q 3016 2534 2758 2815 
Q 2500 3097 2075 3097 
Q 1594 3097 1305 2825 
Q 1016 2553 972 2059 
L 3022 2063 
z
" transform="scale(0.015625)"/>
       <path id="DejaVuSans-20" transform="scale(0.015625)"/>
       <path id="DejaVuSans-50" d="M 1259 4147 
L 1259 2394 
L 2053 2394 
Q 2494 2394 2734 2622 
Q 2975 2850 2975 3272 
Q 2975 3691 2734 3919 
Q 2494 4147 2053 4147 
L 1259 4147 
z
M 628 4666 
L 2053 4666 
Q 2838 4666 3239 4311 
Q 3641 3956 3641 3272 
Q 3641 2581 3239 2228 
Q 2838 1875 2053 1875 
L 1259 1875 
L 1259 0 
L 628 0 
L 628 4666 
z
" transform="scale(0.015625)"/>
       <path id="DejaVuSans-6f" d="M 1959 3097 
Q 1497 3097 1228 2736 
Q 959 2375 959 1747 
Q 959 1119 1226 758 
Q 1494 397 1959 397 
Q 2419 397 2687 759 
Q 2956 1122 2956 1747 
Q 2956 2369 2687 2733 
Q 2419 3097 1959 3097 
z
M 1959 3584 
Q 2709 3584 3137 3096 
Q 3566 2609 3566 1747 
Q 3566 888 3137 398 
Q 2709 -91 1959 -91 
Q 1206 -91 779 398 
Q 353 888 353 1747 
Q 353 2609 779 3096 
Q 1206 3584 1959 3584 
z
" transform="scale(0.015625)"/>
       <path id="DejaVuSans-69" d="M 603 3500 
L 1178 3500 
L 1178 0 
L 603 0 
L 603 3500 
z
M 603 4863 
L 1178 4863 
L 1178 4134 
L 603 4134 
L 603 4863 
z
" transform="scale(0.015625)"/>
       <path id="DejaVuSans-74" d="M 1172 4494 
L 1172 3500 
L 2356 3500 
L 2356 3053 
L 1172 3053 
L 1172 1153 
Q 1172 725 1289 603 
Q 1406 481 1766 481 
L 2356 481 
L 2356 0 
L 1766 0 
Q 1100 0 847 248 
Q 594 497 594 1153 
L 594 3053 
L 172 3053 
L 172 3500 
L 594 3500 
L 594 4494 
L 1172 4494 
z
" transform="scale(0.015625)"/>
       <path id="DejaVuSans-76" d="M 191 3500 
L 800 3500 
L 1894 563 
L 2988 3500 
L 3597 3500 
L 2284 0 
L 1503 0 
L 191 3500 
z
" transform="scale(0.015625)"/>
       <path id="DejaVuSans-52" d="M 2841 2188 
Q 3044 2119 3236 1894 
Q 3428 1669 3622 1275 
L 4263 0 
L 3584 0 
L 2988 1197 
Q 2756 1666 2539 1819 
Q 2322 1972 1947 1972 
L 1259 1972 
L 1259 0 
L 628 0 
L 628 4666 
L 2053 4666 
Q 2853 4666 3247 4331 
Q 3641 3997 3641 3322 
Q 3641 2881 3436 2590 
Q 3231 2300 2841 2188 
z
M 1259 4147 
L 1259 2491 
L 2053 2491 
Q 2509 2491 2742 2702 
Q 2975 2913 2975 3322 
Q 2975 3731 2742 3939 
Q 2509 4147 2053 4147 
L 1259 4147 
z
" transform="scale(0.015625)"/>
      </defs>
      <use xlink:href="#DejaVuSans-46"/>
      <use xlink:href="#DejaVuSans-61" transform="translate(48.394531 0)"/>
      <use xlink:href="#DejaVuSans-6c" transform="translate(109.673828 0)"/>
      <use xlink:href="#DejaVuSans-73" transform="translate(137.457031 0)"/>
      <use xlink:href="#DejaVuSans-65" transform="translate(189.556641 0)"/>
      <use xlink:href="#DejaVuSans-20" transform="translate(251.080078 0)"/>
      <use xlink:href="#DejaVuSans-50" transform="translate(282.867188 0)"/>
      <use xlink:href="#DejaVuSans-6f" transform="translate(339.544922 0)"/>
      <use xlink:href="#DejaVuSans-73" transform="translate(400.726562 0)"/>
      <use xlink:href="#DejaVuSans-69" transform="translate(452.826172 0)"/>
      <use xlink:href="#DejaVuSans-74" transform="translate(480.609375 0)"/>
      <use xlink:href="#DejaVuSans-69" transform="translate(519.818359 0)"/>
      <use xlink:href="#DejaVuSans-76" transform="translate(547.601562 0)"/>
      <use xlink:href="#DejaVuSans-65" transform="translate(606.78125 0)"/>
      <use xlink:href="#DejaVuSans-20" transform="translate(668.304688 0)"/>
      <use xlink:href="#DejaVuSans-52" transform="translate(700.091797 0)"/>
      <use xlink:href="#DejaVuSans-61" transform="translate(767.324219 0)"/>
      <use xlink:href="#DejaVuSans-74" transform="translate(828.603516 0)"/>
      <use xlink:href="#DejaVuSans-65" transform="translate(867.8125 0)"/>
     </g>
    </g>
   </g>
   <g id="matplotlib.axis_2">
    <g id="ytick_1">
     <g id="line2d_7">
      <defs>
       <path id="m5bf2386af6" d="M 0 0 
L -6 0 
" style="stroke: #262626; stroke-width: 1.25"/>
      </defs>
      <g>
       <use xlink:href="#m5bf2386af6" x="51.262547" y="267.385849" style="fill: #262626; stroke: #262626; stroke-width: 1.25"/>
      </g>
     </g>
     <g id="text_8">
      <!-- 0.0 -->
      <g style="fill: #262626" transform="translate(23.394438 271.773947) scale(0.1155 -0.1155)">
       <use xlink:href="#DejaVuSans-30"/>
       <use xlink:href="#DejaVuSans-2e" transform="translate(63.623047 0)"/>
       <use xlink:href="#DejaVuSans-30" transform="translate(95.410156 0)"/>
      </g>
     </g>
    </g>
    <g id="ytick_2">
     <g id="line2d_8">
      <g>
       <use xlink:href="#m5bf2386af6" x="51.262547" y="220.793122" style="fill: #262626; stroke: #262626; stroke-width: 1.25"/>
      </g>
     </g>
     <g id="text_9">
      <!-- 0.2 -->
      <g style="fill: #262626" transform="translate(23.394438 225.18122) scale(0.1155 -0.1155)">
       <use xlink:href="#DejaVuSans-30"/>
       <use xlink:href="#DejaVuSans-2e" transform="translate(63.623047 0)"/>
       <use xlink:href="#DejaVuSans-32" transform="translate(95.410156 0)"/>
      </g>
     </g>
    </g>
    <g id="ytick_3">
     <g id="line2d_9">
      <g>
       <use xlink:href="#m5bf2386af6" x="51.262547" y="174.200395" style="fill: #262626; stroke: #262626; stroke-width: 1.25"/>
      </g>
     </g>
     <g id="text_10">
      <!-- 0.4 -->
      <g style="fill: #262626" transform="translate(23.394438 178.588493) scale(0.1155 -0.1155)">
       <use xlink:href="#DejaVuSans-30"/>
       <use xlink:href="#DejaVuSans-2e" transform="translate(63.623047 0)"/>
       <use xlink:href="#DejaVuSans-34" transform="translate(95.410156 0)"/>
      </g>
     </g>
    </g>
    <g id="ytick_4">
     <g id="line2d_10">
      <g>
       <use xlink:href="#m5bf2386af6" x="51.262547" y="127.607668" style="fill: #262626; stroke: #262626; stroke-width: 1.25"/>
      </g>
     </g>
     <g id="text_11">
      <!-- 0.6 -->
      <g style="fill: #262626" transform="translate(23.394438 131.995765) scale(0.1155 -0.1155)">
       <use xlink:href="#DejaVuSans-30"/>
       <use xlink:href="#DejaVuSans-2e" transform="translate(63.623047 0)"/>
       <use xlink:href="#DejaVuSans-36" transform="translate(95.410156 0)"/>
      </g>
     </g>
    </g>
    <g id="ytick_5">
     <g id="line2d_11">
      <g>
       <use xlink:href="#m5bf2386af6" x="51.262547" y="81.01494" style="fill: #262626; stroke: #262626; stroke-width: 1.25"/>
      </g>
     </g>
     <g id="text_12">
      <!-- 0.8 -->
      <g style="fill: #262626" transform="translate(23.394438 85.403038) scale(0.1155 -0.1155)">
       <use xlink:href="#DejaVuSans-30"/>
       <use xlink:href="#DejaVuSans-2e" transform="translate(63.623047 0)"/>
       <use xlink:href="#DejaVuSans-38" transform="translate(95.410156 0)"/>
      </g>
     </g>
    </g>
    <g id="ytick_6">
     <g id="line2d_12">
      <g>
       <use xlink:href="#m5bf2386af6" x="51.262547" y="34.422213" style="fill: #262626; stroke: #262626; stroke-width: 1.25"/>
      </g>
     </g>
     <g id="text_13">
      <!-- 1.0 -->
      <g style="fill: #262626" transform="translate(23.394438 38.810311) scale(0.1155 -0.1155)">
       <use xlink:href="#DejaVuSans-31"/>
       <use xlink:href="#DejaVuSans-2e" transform="translate(63.623047 0)"/>
       <use xlink:href="#DejaVuSans-30" transform="translate(95.410156 0)"/>
      </g>
     </g>
    </g>
    <g id="text_14">
     <!-- True Positive Rate -->
     <g style="fill: #262626" transform="translate(16.774031 207.011437) rotate(-90) scale(0.126 -0.126)">
      <defs>
       <path id="DejaVuSans-54" d="M -19 4666 
L 3928 4666 
L 3928 4134 
L 2272 4134 
L 2272 0 
L 1638 0 
L 1638 4134 
L -19 4134 
L -19 4666 
z
" transform="scale(0.015625)"/>
       <path id="DejaVuSans-72" d="M 2631 2963 
Q 2534 3019 2420 3045 
Q 2306 3072 2169 3072 
Q 1681 3072 1420 2755 
Q 1159 2438 1159 1844 
L 1159 0 
L 581 0 
L 581 3500 
L 1159 3500 
L 1159 2956 
Q 1341 3275 1631 3429 
Q 1922 3584 2338 3584 
Q 2397 3584 2469 3576 
Q 2541 3569 2628 3553 
L 2631 2963 
z
" transform="scale(0.015625)"/>
       <path id="DejaVuSans-75" d="M 544 1381 
L 544 3500 
L 1119 3500 
L 1119 1403 
Q 1119 906 1312 657 
Q 1506 409 1894 409 
Q 2359 409 2629 706 
Q 2900 1003 2900 1516 
L 2900 3500 
L 3475 3500 
L 3475 0 
L 2900 0 
L 2900 538 
Q 2691 219 2414 64 
Q 2138 -91 1772 -91 
Q 1169 -91 856 284 
Q 544 659 544 1381 
z
M 1991 3584 
L 1991 3584 
z
" transform="scale(0.015625)"/>
      </defs>
      <use xlink:href="#DejaVuSans-54"/>
      <use xlink:href="#DejaVuSans-72" transform="translate(46.333984 0)"/>
      <use xlink:href="#DejaVuSans-75" transform="translate(87.447266 0)"/>
      <use xlink:href="#DejaVuSans-65" transform="translate(150.826172 0)"/>
      <use xlink:href="#DejaVuSans-20" transform="translate(212.349609 0)"/>
      <use xlink:href="#DejaVuSans-50" transform="translate(244.136719 0)"/>
      <use xlink:href="#DejaVuSans-6f" transform="translate(300.814453 0)"/>
      <use xlink:href="#DejaVuSans-73" transform="translate(361.996094 0)"/>
      <use xlink:href="#DejaVuSans-69" transform="translate(414.095703 0)"/>
      <use xlink:href="#DejaVuSans-74" transform="translate(441.878906 0)"/>
      <use xlink:href="#DejaVuSans-69" transform="translate(481.087891 0)"/>
      <use xlink:href="#DejaVuSans-76" transform="translate(508.871094 0)"/>
      <use xlink:href="#DejaVuSans-65" transform="translate(568.050781 0)"/>
      <use xlink:href="#DejaVuSans-20" transform="translate(629.574219 0)"/>
      <use xlink:href="#DejaVuSans-52" transform="translate(661.361328 0)"/>
      <use xlink:href="#DejaVuSans-61" transform="translate(728.59375 0)"/>
      <use xlink:href="#DejaVuSans-74" transform="translate(789.873047 0)"/>
      <use xlink:href="#DejaVuSans-65" transform="translate(829.082031 0)"/>
     </g>
    </g>
   </g>
   <g id="line2d_13">
    <path d="M 67.139365 267.385849 
L 67.139365 255.970631 
L 67.456901 255.970631 
L 67.456901 252.476177 
L 67.774438 252.476177 
L 67.774438 236.634649 
L 68.091974 236.634649 
L 68.091974 223.821649 
L 68.409511 223.821649 
L 68.409511 221.724977 
L 68.727047 221.724977 
L 68.727047 210.542722 
L 69.044583 210.542722 
L 69.044583 177.228922 
L 69.36212 177.228922 
L 69.36212 176.064104 
L 69.679656 176.064104 
L 69.679656 174.899286 
L 70.314729 174.899286 
L 70.314729 174.200395 
L 70.632265 174.200395 
L 70.632265 170.472977 
L 71.267338 170.472977 
L 71.267338 169.774086 
L 71.584874 169.774086 
L 71.584874 168.842231 
L 71.902411 168.842231 
L 71.902411 163.251104 
L 72.219947 163.251104 
L 72.219947 160.222577 
L 72.537483 160.222577 
L 72.537483 159.057759 
L 72.85502 159.057759 
L 72.85502 158.125904 
L 73.172556 158.125904 
L 73.172556 156.728122 
L 73.490092 156.728122 
L 73.490092 154.631449 
L 73.807629 154.631449 
L 73.807629 153.932559 
L 74.125165 153.932559 
L 74.125165 153.233668 
L 74.442701 153.233668 
L 74.442701 151.602922 
L 74.760238 151.602922 
L 74.760238 151.136995 
L 75.077774 151.136995 
L 75.077774 148.807359 
L 75.395311 148.807359 
L 75.395311 146.943649 
L 75.712847 146.943649 
L 75.712847 146.477722 
L 76.030383 146.477722 
L 76.030383 145.778831 
L 76.665456 145.778831 
L 76.665456 142.284377 
L 76.982992 142.284377 
L 76.982992 142.051413 
L 77.300529 142.051413 
L 77.300529 140.653631 
L 78.253138 140.653631 
L 78.253138 139.255849 
L 78.570674 139.255849 
L 78.570674 137.858068 
L 78.888211 137.858068 
L 78.888211 133.664722 
L 79.205747 133.664722 
L 79.205747 130.403231 
L 79.523283 130.403231 
L 79.523283 128.073595 
L 79.84082 128.073595 
L 79.84082 126.209886 
L 80.158356 126.209886 
L 80.158356 125.743959 
L 80.475892 125.743959 
L 80.475892 125.510995 
L 80.793429 125.510995 
L 80.793429 124.113213 
L 81.110965 124.113213 
L 81.110965 123.647286 
L 81.428501 123.647286 
L 81.428501 122.715431 
L 81.746038 122.715431 
L 81.746038 121.550613 
L 82.063574 121.550613 
L 82.063574 115.726522 
L 82.381111 115.726522 
L 82.381111 114.32874 
L 82.698647 114.32874 
L 82.698647 113.396886 
L 83.016183 113.396886 
L 83.016183 113.163922 
L 83.33372 113.163922 
L 83.33372 110.834286 
L 83.651256 110.834286 
L 83.651256 110.135395 
L 83.968792 110.135395 
L 83.968792 103.146486 
L 84.603865 103.146486 
L 84.603865 102.214631 
L 85.238938 102.214631 
L 85.238938 101.981668 
L 85.556474 101.981668 
L 85.556474 101.748704 
L 85.874011 101.748704 
L 85.874011 101.049813 
L 86.509083 101.049813 
L 86.509083 98.720177 
L 86.82662 98.720177 
L 86.82662 97.555359 
L 87.144156 97.555359 
L 87.144156 95.924613 
L 87.461692 95.924613 
L 87.461692 95.225722 
L 87.779229 95.225722 
L 87.779229 94.526831 
L 88.096765 94.526831 
L 88.096765 91.964231 
L 88.414301 91.964231 
L 88.414301 91.731268 
L 89.049374 91.731268 
L 89.049374 91.032377 
L 89.366911 91.032377 
L 89.366911 90.799413 
L 89.684447 90.799413 
L 89.684447 89.867559 
L 90.31952 89.867559 
L 90.31952 89.168668 
L 90.637056 89.168668 
L 90.637056 88.003849 
L 90.954592 88.003849 
L 90.954592 87.770886 
L 91.272129 87.770886 
L 91.272129 86.606068 
L 92.542274 86.606068 
L 92.542274 85.907177 
L 92.859811 85.674213 
L 92.859811 85.441249 
L 93.177347 85.441249 
L 93.177347 84.975322 
L 93.494883 84.975322 
L 93.494883 84.742359 
L 93.81242 84.742359 
L 93.81242 82.412722 
L 94.129956 82.412722 
L 94.129956 81.247904 
L 94.765029 81.247904 
L 94.765029 80.316049 
L 95.082565 80.316049 
L 95.082565 79.617159 
L 95.400101 79.617159 
L 95.400101 79.384195 
L 95.717638 79.384195 
L 95.717638 78.918268 
L 96.352711 78.918268 
L 96.352711 77.520486 
L 96.987783 77.520486 
L 96.987783 77.287522 
L 97.30532 77.287522 
L 97.30532 77.054559 
L 97.940392 77.054559 
L 97.940392 76.821595 
L 99.528074 76.821595 
L 99.528074 76.355668 
L 100.163147 76.355668 
L 100.163147 76.122704 
L 100.79822 76.122704 
L 100.79822 75.88974 
L 101.750829 75.88974 
L 101.750829 75.190849 
L 102.068365 75.190849 
L 102.068365 74.724922 
L 102.385901 74.724922 
L 102.385901 73.793068 
L 103.020974 73.793068 
L 103.020974 73.560104 
L 103.973583 73.560104 
L 103.973583 72.861213 
L 104.29112 72.861213 
L 104.29112 72.162322 
L 104.608656 72.162322 
L 104.608656 71.230468 
L 105.243729 71.230468 
L 105.243729 70.298613 
L 106.831411 70.298613 
L 106.831411 69.366759 
L 107.148947 69.366759 
L 107.148947 69.133795 
L 107.466483 69.133795 
L 107.466483 68.667868 
L 107.78402 68.667868 
L 107.78402 67.968977 
L 108.101556 67.968977 
L 108.101556 67.736013 
L 108.419092 67.736013 
L 108.419092 67.270086 
L 109.689238 67.270086 
L 109.689238 66.571195 
L 110.324311 66.571195 
L 110.324311 66.338231 
L 111.594456 66.338231 
L 111.594456 65.63934 
L 112.229529 65.63934 
L 112.229529 64.940449 
L 112.864601 64.940449 
L 112.864601 64.707486 
L 113.499674 64.707486 
L 113.499674 64.241559 
L 113.817211 64.241559 
L 113.817211 64.008595 
L 114.134747 64.008595 
L 114.134747 63.542668 
L 114.452283 63.542668 
L 114.452283 63.309704 
L 114.76982 63.309704 
L 114.76982 62.843777 
L 115.404892 62.843777 
L 115.404892 61.911922 
L 115.722429 61.911922 
L 115.722429 61.213031 
L 116.675038 61.213031 
L 116.675038 60.980068 
L 117.310111 60.980068 
L 117.310111 60.281177 
L 117.627647 60.281177 
L 117.627647 60.048213 
L 117.945183 60.048213 
L 117.945183 58.417468 
L 118.897792 58.417468 
L 118.897792 58.184504 
L 119.850401 58.184504 
L 119.850401 56.087831 
L 120.167938 56.087831 
L 120.167938 55.854868 
L 120.485474 55.854868 
L 120.485474 55.621904 
L 121.438083 55.621904 
L 121.438083 55.38894 
L 122.073156 55.38894 
L 122.073156 54.690049 
L 122.390692 54.690049 
L 122.390692 54.457086 
L 122.708229 54.457086 
L 122.708229 53.991159 
L 123.025765 53.991159 
L 123.025765 53.059304 
L 123.660838 53.059304 
L 123.660838 52.82634 
L 124.295911 52.82634 
L 124.295911 52.360413 
L 124.613447 52.360413 
L 124.613447 52.127449 
L 126.518665 52.127449 
L 126.518665 50.729668 
L 126.836201 50.729668 
L 126.836201 50.26374 
L 127.471274 50.26374 
L 127.471274 49.797813 
L 128.106347 49.797813 
L 128.106347 49.564849 
L 130.646638 49.564849 
L 130.646638 49.331886 
L 131.281711 49.331886 
L 131.281711 49.098922 
L 132.551856 49.098922 
L 132.551856 48.865959 
L 132.869392 48.632995 
L 133.822001 48.632995 
L 133.822001 48.167068 
L 134.139538 48.167068 
L 134.139538 47.934104 
L 135.409683 47.934104 
L 135.409683 47.70114 
L 136.044756 47.70114 
L 136.044756 47.235213 
L 137.314901 47.235213 
L 137.314901 47.002249 
L 137.632438 47.002249 
L 137.632438 46.769286 
L 137.949974 46.769286 
L 137.949974 45.837431 
L 141.760411 45.837431 
L 141.760411 45.604468 
L 142.077947 45.604468 
L 142.077947 45.13854 
L 143.665629 45.13854 
L 143.665629 44.905577 
L 145.888383 44.905577 
L 145.888383 44.672613 
L 147.476065 44.672613 
L 147.476065 44.439649 
L 147.793601 44.439649 
L 147.793601 44.206686 
L 148.111138 44.206686 
L 148.111138 43.973722 
L 150.333892 43.973722 
L 150.333892 43.740759 
L 151.604038 43.740759 
L 151.604038 43.507795 
L 160.812592 43.507795 
L 160.812592 43.274831 
L 161.447665 43.274831 
L 161.447665 43.041868 
L 162.717811 43.041868 
L 162.717811 42.342977 
L 167.16332 42.342977 
L 167.16332 42.110013 
L 170.973756 42.110013 
L 170.973756 41.877049 
L 174.466656 41.877049 
L 174.466656 41.644086 
L 175.736801 41.644086 
L 175.736801 41.411122 
L 177.006947 41.411122 
L 177.006947 41.178159 
L 177.324483 41.178159 
L 177.324483 40.945195 
L 179.547238 40.945195 
L 179.547238 40.712231 
L 180.817383 40.712231 
L 180.817383 40.479268 
L 181.452456 40.479268 
L 181.452456 40.246304 
L 184.62782 40.246304 
L 184.62782 40.01334 
L 192.248692 40.01334 
L 192.248692 39.780377 
L 196.059129 39.780377 
L 196.059129 39.314449 
L 200.822174 39.314449 
L 200.822174 39.081486 
L 203.044929 39.081486 
L 203.044929 38.848522 
L 204.632611 38.848522 
L 204.632611 38.615559 
L 206.855365 38.615559 
L 206.855365 38.149631 
L 209.07812 38.149631 
L 209.07812 37.916668 
L 209.713192 37.916668 
L 209.713192 37.683704 
L 215.746383 37.683704 
L 215.746383 37.45074 
L 216.698992 37.45074 
L 216.698992 37.217777 
L 217.016529 37.217777 
L 217.016529 36.984813 
L 217.969138 36.984813 
L 217.969138 36.751849 
L 228.447838 36.751849 
L 228.447838 36.518886 
L 239.244074 36.518886 
L 239.244074 36.285922 
L 260.519011 36.285922 
L 260.519011 36.052959 
L 271.95032 36.052959 
L 271.95032 35.819995 
L 277.030901 35.819995 
L 277.030901 35.587031 
L 298.623374 35.587031 
L 298.623374 35.354068 
L 322.121065 35.354068 
L 322.121065 35.121104 
L 335.457592 35.121104 
L 335.457592 34.88814 
L 364.353401 34.88814 
L 364.353401 34.655177 
L 368.163838 34.655177 
L 368.163838 34.422213 
L 384.675729 34.422213 
L 384.675729 34.422213 
" clip-path="url(#p28c8e9272e)" style="fill: none; stroke: #0279ee; stroke-width: 2; stroke-linecap: round"/>
   </g>
   <g id="line2d_14">
    <path d="M 67.139365 267.385849 
L 67.139365 249.214686 
L 67.456901 249.214686 
L 67.456901 220.327195 
L 68.091974 220.327195 
L 68.091974 204.01974 
L 68.409511 204.01974 
L 68.409511 203.553813 
L 68.727047 203.553813 
L 68.727047 200.758249 
L 69.044583 200.758249 
L 69.044583 190.973777 
L 69.36212 190.973777 
L 69.36212 182.121159 
L 69.679656 182.121159 
L 69.679656 178.39374 
L 69.997192 178.39374 
L 69.997192 177.461886 
L 70.949801 177.461886 
L 70.949801 172.802613 
L 71.267338 172.802613 
L 71.267338 167.444449 
L 71.584874 167.444449 
L 71.584874 165.347777 
L 71.902411 165.347777 
L 71.902411 164.415922 
L 72.219947 164.415922 
L 72.219947 160.45554 
L 72.537483 160.45554 
L 72.537483 158.125904 
L 72.85502 158.125904 
L 72.85502 157.659977 
L 73.172556 157.659977 
L 73.172556 154.864413 
L 73.490092 154.864413 
L 73.490092 154.165522 
L 73.807629 154.165522 
L 73.807629 151.369959 
L 74.125165 151.369959 
L 74.125165 149.739213 
L 74.442701 149.739213 
L 74.442701 147.409577 
L 74.760238 147.409577 
L 74.760238 145.545868 
L 75.395311 145.545868 
L 75.395311 142.983268 
L 75.712847 142.983268 
L 75.712847 142.750304 
L 76.030383 142.750304 
L 76.030383 141.119559 
L 76.34792 141.119559 
L 76.34792 137.858068 
L 76.665456 137.858068 
L 76.665456 137.39214 
L 76.982992 137.39214 
L 76.982992 137.159177 
L 77.618065 137.159177 
L 77.618065 135.994359 
L 77.935601 135.994359 
L 77.935601 129.937304 
L 78.253138 129.937304 
L 78.253138 126.442849 
L 78.570674 126.442849 
L 78.570674 125.743959 
L 78.888211 125.743959 
L 78.888211 122.948395 
L 79.205747 122.948395 
L 79.205747 122.715431 
L 79.523283 122.715431 
L 79.523283 122.482468 
L 80.475892 122.482468 
L 80.475892 120.152831 
L 80.793429 120.152831 
L 80.793429 119.45394 
L 81.110965 119.45394 
L 81.110965 117.357268 
L 81.428501 117.357268 
L 81.428501 117.124304 
L 81.746038 117.124304 
L 81.746038 116.89134 
L 82.063574 116.89134 
L 82.063574 114.794668 
L 82.381111 114.794668 
L 82.381111 114.095777 
L 82.698647 114.095777 
L 82.698647 113.862813 
L 83.016183 113.862813 
L 83.016183 111.067249 
L 83.33372 111.067249 
L 83.33372 110.601322 
L 83.651256 110.601322 
L 83.651256 109.669468 
L 83.968792 109.669468 
L 83.968792 107.805759 
L 84.286329 107.805759 
L 84.286329 107.572795 
L 84.921401 107.572795 
L 84.921401 104.07834 
L 85.238938 104.07834 
L 85.238938 102.214631 
L 85.556474 102.214631 
L 85.556474 101.981668 
L 85.874011 101.981668 
L 85.874011 101.282777 
L 86.191547 101.282777 
L 86.191547 101.049813 
L 86.509083 101.049813 
L 86.509083 100.816849 
L 86.82662 100.816849 
L 86.82662 98.95314 
L 87.144156 98.95314 
L 87.144156 98.720177 
L 88.096765 98.720177 
L 88.096765 96.623504 
L 89.049374 96.623504 
L 89.049374 94.759795 
L 89.366911 94.759795 
L 89.366911 93.594977 
L 89.684447 93.594977 
L 89.684447 92.430159 
L 90.637056 92.430159 
L 90.637056 92.197195 
L 90.954592 92.197195 
L 90.954592 91.26534 
L 91.272129 91.26534 
L 91.272129 91.032377 
L 91.589665 91.032377 
L 91.589665 90.799413 
L 91.907201 90.799413 
L 91.907201 90.566449 
L 92.224738 90.566449 
L 92.224738 88.469777 
L 92.542274 88.469777 
L 92.542274 87.770886 
L 92.859811 87.770886 
L 92.859811 87.304959 
L 93.177347 87.304959 
L 93.177347 86.839031 
L 93.494883 86.839031 
L 93.494883 85.674213 
L 93.81242 85.674213 
L 93.81242 85.208286 
L 94.129956 85.208286 
L 94.129956 84.742359 
L 94.447492 84.742359 
L 94.447492 83.57754 
L 94.765029 83.57754 
L 94.765029 83.344577 
L 95.400101 83.344577 
L 95.717638 83.111613 
L 95.717638 82.179759 
L 96.035174 82.179759 
L 96.035174 80.549013 
L 96.670247 80.549013 
L 96.670247 80.316049 
L 97.30532 80.316049 
L 97.30532 80.083086 
L 97.622856 80.083086 
L 97.622856 79.850122 
L 98.575465 79.850122 
L 98.575465 77.520486 
L 98.893001 77.520486 
L 98.893001 76.355668 
L 99.210538 76.355668 
L 99.210538 75.423813 
L 99.528074 75.423813 
L 99.528074 74.724922 
L 99.845611 74.724922 
L 99.845611 74.491959 
L 101.115756 74.491959 
L 101.115756 74.258995 
L 101.750829 74.258995 
L 101.750829 74.026031 
L 103.020974 74.026031 
L 103.020974 73.32714 
L 103.656047 73.32714 
L 103.656047 72.861213 
L 103.973583 72.861213 
L 103.973583 72.395286 
L 104.29112 72.395286 
L 104.29112 72.162322 
L 105.243729 72.162322 
L 105.243729 71.929359 
L 105.561265 71.929359 
L 105.561265 71.696395 
L 105.878801 71.696395 
L 105.878801 71.230468 
L 106.196338 71.230468 
L 106.196338 70.997504 
L 106.513874 70.997504 
L 106.513874 69.832686 
L 107.466483 69.832686 
L 107.466483 68.900831 
L 108.101556 68.900831 
L 108.101556 68.434904 
L 108.419092 68.434904 
L 108.419092 67.503049 
L 108.736629 67.503049 
L 108.736629 66.804159 
L 110.006774 66.804159 
L 110.006774 66.571195 
L 110.324311 66.571195 
L 110.324311 65.406377 
L 110.959383 65.406377 
L 110.959383 65.173413 
L 112.229529 65.173413 
L 112.229529 64.241559 
L 113.499674 64.241559 
L 113.499674 63.309704 
L 113.817211 63.309704 
L 113.817211 62.843777 
L 114.452283 62.843777 
L 114.452283 62.610813 
L 114.76982 62.610813 
L 114.76982 62.377849 
L 115.404892 62.377849 
L 115.404892 62.144886 
L 116.039965 62.144886 
L 116.039965 61.678959 
L 116.357501 61.678959 
L 116.357501 61.445995 
L 117.945183 61.445995 
L 117.945183 60.980068 
L 118.26272 60.980068 
L 118.26272 60.747104 
L 119.532865 60.747104 
L 119.532865 60.281177 
L 119.850401 60.281177 
L 119.850401 59.815249 
L 120.485474 59.815249 
L 120.485474 59.349322 
L 120.803011 59.349322 
L 120.803011 59.116359 
L 121.120547 59.116359 
L 121.120547 58.883395 
L 121.438083 58.883395 
L 121.438083 58.650431 
L 122.073156 58.650431 
L 122.073156 57.718577 
L 122.390692 57.718577 
L 122.390692 57.252649 
L 123.025765 57.252649 
L 123.025765 57.019686 
L 123.343301 57.019686 
L 123.343301 56.786722 
L 123.660838 56.786722 
L 123.660838 56.553759 
L 125.883592 56.553759 
L 125.883592 56.320795 
L 126.518665 56.320795 
L 126.518665 56.087831 
L 126.836201 56.087831 
L 126.836201 55.38894 
L 127.153738 55.38894 
L 127.153738 54.923013 
L 127.788811 54.923013 
L 127.788811 54.690049 
L 128.106347 54.690049 
L 128.106347 54.224122 
L 129.694029 54.224122 
L 129.694029 53.758195 
L 130.329101 53.758195 
L 130.329101 53.525231 
L 131.281711 53.525231 
L 131.281711 53.059304 
L 131.599247 53.059304 
L 131.599247 52.82634 
L 133.186929 52.82634 
L 133.186929 52.593377 
L 133.504465 52.593377 
L 133.504465 52.360413 
L 134.139538 52.360413 
L 134.139538 51.894486 
L 134.457074 51.894486 
L 134.457074 51.661522 
L 135.409683 51.661522 
L 135.409683 51.428559 
L 136.362292 51.428559 
L 136.362292 50.729668 
L 136.679829 50.729668 
L 136.679829 50.496704 
L 137.632438 50.496704 
L 137.632438 50.26374 
L 138.267511 50.26374 
L 138.267511 49.564849 
L 138.902583 49.564849 
L 138.902583 49.331886 
L 139.22012 49.331886 
L 139.22012 48.865959 
L 139.537656 48.865959 
L 139.537656 48.400031 
L 140.172729 48.400031 
L 140.172729 47.934104 
L 142.71302 47.934104 
L 142.71302 47.70114 
L 143.348092 47.70114 
L 143.348092 47.468177 
L 143.983165 47.468177 
L 143.983165 47.002249 
L 145.570847 47.002249 
L 145.570847 46.769286 
L 146.20592 46.769286 
L 146.20592 46.303359 
L 146.523456 46.303359 
L 146.523456 46.070395 
L 151.286501 46.070395 
L 151.286501 45.837431 
L 152.874183 45.837431 
L 152.874183 45.604468 
L 154.144329 45.604468 
L 154.144329 45.371504 
L 154.461865 45.371504 
L 154.461865 44.672613 
L 155.414474 44.672613 
L 155.414474 44.439649 
L 155.732011 44.439649 
L 155.732011 44.206686 
L 158.589838 44.206686 
L 158.589838 43.973722 
L 158.907374 43.973722 
L 158.907374 43.740759 
L 161.447665 43.740759 
L 161.447665 43.507795 
L 162.717811 43.507795 
L 162.717811 43.041868 
L 166.845783 43.041868 
L 166.845783 42.808904 
L 168.433465 42.808904 
L 168.433465 42.57594 
L 171.608829 42.57594 
L 171.608829 42.342977 
L 172.243901 42.342977 
L 172.243901 41.877049 
L 173.831583 41.877049 
L 173.831583 41.644086 
L 174.466656 41.644086 
L 174.466656 41.178159 
L 178.277092 41.178159 
L 178.277092 40.945195 
L 178.594629 40.945195 
L 178.594629 40.712231 
L 186.533038 40.712231 
L 186.533038 40.479268 
L 191.296083 40.479268 
L 191.296083 40.246304 
L 195.424056 40.246304 
L 195.424056 40.01334 
L 195.741592 40.01334 
L 195.741592 39.780377 
L 204.315074 39.780377 
L 204.315074 39.081486 
L 204.632611 39.081486 
L 204.632611 38.848522 
L 205.267683 38.848522 
L 205.267683 38.615559 
L 207.807974 38.615559 
L 207.807974 38.382595 
L 209.07812 38.382595 
L 209.07812 38.149631 
L 213.523629 38.149631 
L 213.523629 37.916668 
L 219.55682 37.916668 
L 219.55682 37.45074 
L 220.191892 37.45074 
L 220.191892 37.217777 
L 222.097111 37.217777 
L 222.097111 36.984813 
L 226.225083 36.984813 
L 226.225083 36.518886 
L 230.670592 36.518886 
L 230.670592 36.285922 
L 244.959729 36.285922 
L 244.959729 36.052959 
L 265.917129 36.052959 
L 265.917129 35.819995 
L 266.234665 35.819995 
L 266.234665 35.587031 
L 295.448011 35.587031 
L 295.448011 35.354068 
L 307.831929 35.354068 
L 307.831929 35.121104 
L 316.087874 35.121104 
L 316.087874 34.88814 
L 367.846301 34.88814 
L 367.846301 34.655177 
L 373.879492 34.655177 
L 373.879492 34.422213 
L 384.675729 34.422213 
L 384.675729 34.422213 
" clip-path="url(#p28c8e9272e)" style="fill: none; stroke-dasharray: 7.4,3.2; stroke-dashoffset: 0; stroke: #ff9400; stroke-width: 2"/>
   </g>
   <g id="line2d_15">
    <path d="M 67.139365 267.385849 
L 384.675729 34.422213 
" clip-path="url(#p28c8e9272e)" style="fill: none; stroke-dasharray: 2.96,1.28; stroke-dashoffset: 0; stroke: #1a1a1a; stroke-opacity: 0.4; stroke-width: 0.8"/>
   </g>
   <g id="patch_3">
    <path d="M 51.262547 279.034031 
L 51.262547 22.774031 
" style="fill: none; stroke: #262626; stroke-width: 1.25; stroke-linejoin: miter; stroke-linecap: square"/>
   </g>
   <g id="patch_4">
    <path d="M 51.262547 279.034031 
L 400.552547 279.034031 
" style="fill: none; stroke: #262626; stroke-width: 1.25; stroke-linejoin: miter; stroke-linecap: square"/>
   </g>
   <g id="text_15">
    <!-- ROC Curve -->
    <g style="fill: #262626" transform="translate(188.288672 16.774031) scale(0.126 -0.126)">
     <defs>
      <path id="DejaVuSans-Bold-52" d="M 2297 2597 
Q 2675 2597 2839 2737 
Q 3003 2878 3003 3200 
Q 3003 3519 2839 3656 
Q 2675 3794 2297 3794 
L 1791 3794 
L 1791 2597 
L 2297 2597 
z
M 1791 1766 
L 1791 0 
L 588 0 
L 588 4666 
L 2425 4666 
Q 3347 4666 3776 4356 
Q 4206 4047 4206 3378 
Q 4206 2916 3982 2619 
Q 3759 2322 3309 2181 
Q 3556 2125 3751 1926 
Q 3947 1728 4147 1325 
L 4800 0 
L 3519 0 
L 2950 1159 
Q 2778 1509 2601 1637 
Q 2425 1766 2131 1766 
L 1791 1766 
z
" transform="scale(0.015625)"/>
      <path id="DejaVuSans-Bold-4f" d="M 2719 3878 
Q 2169 3878 1866 3472 
Q 1563 3066 1563 2328 
Q 1563 1594 1866 1187 
Q 2169 781 2719 781 
Q 3272 781 3575 1187 
Q 3878 1594 3878 2328 
Q 3878 3066 3575 3472 
Q 3272 3878 2719 3878 
z
M 2719 4750 
Q 3844 4750 4481 4106 
Q 5119 3463 5119 2328 
Q 5119 1197 4481 553 
Q 3844 -91 2719 -91 
Q 1597 -91 958 553 
Q 319 1197 319 2328 
Q 319 3463 958 4106 
Q 1597 4750 2719 4750 
z
" transform="scale(0.015625)"/>
      <path id="DejaVuSans-Bold-43" d="M 4288 256 
Q 3956 84 3597 -3 
Q 3238 -91 2847 -91 
Q 1681 -91 1000 561 
Q 319 1213 319 2328 
Q 319 3447 1000 4098 
Q 1681 4750 2847 4750 
Q 3238 4750 3597 4662 
Q 3956 4575 4288 4403 
L 4288 3438 
Q 3953 3666 3628 3772 
Q 3303 3878 2944 3878 
Q 2300 3878 1931 3465 
Q 1563 3053 1563 2328 
Q 1563 1606 1931 1193 
Q 2300 781 2944 781 
Q 3303 781 3628 887 
Q 3953 994 4288 1222 
L 4288 256 
z
" transform="scale(0.015625)"/>
      <path id="DejaVuSans-Bold-20" transform="scale(0.015625)"/>
      <path id="DejaVuSans-Bold-75" d="M 500 1363 
L 500 3500 
L 1625 3500 
L 1625 3150 
Q 1625 2866 1622 2436 
Q 1619 2006 1619 1863 
Q 1619 1441 1641 1255 
Q 1663 1069 1716 984 
Q 1784 875 1895 815 
Q 2006 756 2150 756 
Q 2500 756 2700 1025 
Q 2900 1294 2900 1772 
L 2900 3500 
L 4019 3500 
L 4019 0 
L 2900 0 
L 2900 506 
Q 2647 200 2364 54 
Q 2081 -91 1741 -91 
Q 1134 -91 817 281 
Q 500 653 500 1363 
z
" transform="scale(0.015625)"/>
      <path id="DejaVuSans-Bold-72" d="M 3138 2547 
Q 2991 2616 2845 2648 
Q 2700 2681 2553 2681 
Q 2122 2681 1889 2404 
Q 1656 2128 1656 1613 
L 1656 0 
L 538 0 
L 538 3500 
L 1656 3500 
L 1656 2925 
Q 1872 3269 2151 3426 
Q 2431 3584 2822 3584 
Q 2878 3584 2943 3579 
Q 3009 3575 3134 3559 
L 3138 2547 
z
" transform="scale(0.015625)"/>
      <path id="DejaVuSans-Bold-76" d="M 97 3500 
L 1216 3500 
L 2088 1081 
L 2956 3500 
L 4078 3500 
L 2700 0 
L 1472 0 
L 97 3500 
z
" transform="scale(0.015625)"/>
      <path id="DejaVuSans-Bold-65" d="M 4031 1759 
L 4031 1441 
L 1416 1441 
Q 1456 1047 1700 850 
Q 1944 653 2381 653 
Q 2734 653 3104 758 
Q 3475 863 3866 1075 
L 3866 213 
Q 3469 63 3072 -14 
Q 2675 -91 2278 -91 
Q 1328 -91 801 392 
Q 275 875 275 1747 
Q 275 2603 792 3093 
Q 1309 3584 2216 3584 
Q 3041 3584 3536 3087 
Q 4031 2591 4031 1759 
z
M 2881 2131 
Q 2881 2450 2695 2645 
Q 2509 2841 2209 2841 
Q 1884 2841 1681 2658 
Q 1478 2475 1428 2131 
L 2881 2131 
z
" transform="scale(0.015625)"/>
     </defs>
     <use xlink:href="#DejaVuSans-Bold-52"/>
     <use xlink:href="#DejaVuSans-Bold-4f" transform="translate(77.001953 0)"/>
     <use xlink:href="#DejaVuSans-Bold-43" transform="translate(162.011719 0)"/>
     <use xlink:href="#DejaVuSans-Bold-20" transform="translate(235.400391 0)"/>
     <use xlink:href="#DejaVuSans-Bold-43" transform="translate(270.214844 0)"/>
     <use xlink:href="#DejaVuSans-Bold-75" transform="translate(343.603516 0)"/>
     <use xlink:href="#DejaVuSans-Bold-72" transform="translate(414.794922 0)"/>
     <use xlink:href="#DejaVuSans-Bold-76" transform="translate(464.111328 0)"/>
     <use xlink:href="#DejaVuSans-Bold-65" transform="translate(529.296875 0)"/>
    </g>
   </g>
   <g id="legend_1">
    <g id="patch_5">
     <path d="M 243.920203 274.534031 
L 394.252547 274.534031 
Q 396.052547 274.534031 396.052547 272.734031 
L 396.052547 247.213406 
Q 396.052547 245.413406 394.252547 245.413406 
L 243.920203 245.413406 
Q 242.120203 245.413406 242.120203 247.213406 
L 242.120203 272.734031 
Q 242.120203 274.534031 243.920203 274.534031 
z
" style="fill: #ffffff; opacity: 0.8; stroke: #cccccc; stroke-linejoin: miter"/>
    </g>
    <g id="line2d_16">
     <path d="M 245.720203 252.702 
L 254.720203 252.702 
L 263.720203 252.702 
" style="fill: none; stroke: #0279ee; stroke-width: 2; stroke-linecap: round"/>
    </g>
    <g id="text_16">
     <!-- v3 (7 feat) AUROC=0.9386 -->
     <g style="fill: #262626" transform="translate(270.920203 255.852) scale(0.09 -0.09)">
      <defs>
       <path id="DejaVuSans-33" d="M 2597 2516 
Q 3050 2419 3304 2112 
Q 3559 1806 3559 1356 
Q 3559 666 3084 287 
Q 2609 -91 1734 -91 
Q 1441 -91 1130 -33 
Q 819 25 488 141 
L 488 750 
Q 750 597 1062 519 
Q 1375 441 1716 441 
Q 2309 441 2620 675 
Q 2931 909 2931 1356 
Q 2931 1769 2642 2001 
Q 2353 2234 1838 2234 
L 1294 2234 
L 1294 2753 
L 1863 2753 
Q 2328 2753 2575 2939 
Q 2822 3125 2822 3475 
Q 2822 3834 2567 4026 
Q 2313 4219 1838 4219 
Q 1578 4219 1281 4162 
Q 984 4106 628 3988 
L 628 4550 
Q 988 4650 1302 4700 
Q 1616 4750 1894 4750 
Q 2613 4750 3031 4423 
Q 3450 4097 3450 3541 
Q 3450 3153 3228 2886 
Q 3006 2619 2597 2516 
z
" transform="scale(0.015625)"/>
       <path id="DejaVuSans-28" d="M 1984 4856 
Q 1566 4138 1362 3434 
Q 1159 2731 1159 2009 
Q 1159 1288 1364 580 
Q 1569 -128 1984 -844 
L 1484 -844 
Q 1016 -109 783 600 
Q 550 1309 550 2009 
Q 550 2706 781 3412 
Q 1013 4119 1484 4856 
L 1984 4856 
z
" transform="scale(0.015625)"/>
       <path id="DejaVuSans-37" d="M 525 4666 
L 3525 4666 
L 3525 4397 
L 1831 0 
L 1172 0 
L 2766 4134 
L 525 4134 
L 525 4666 
z
" transform="scale(0.015625)"/>
       <path id="DejaVuSans-66" d="M 2375 4863 
L 2375 4384 
L 1825 4384 
Q 1516 4384 1395 4259 
Q 1275 4134 1275 3809 
L 1275 3500 
L 2222 3500 
L 2222 3053 
L 1275 3053 
L 1275 0 
L 697 0 
L 697 3053 
L 147 3053 
L 147 3500 
L 697 3500 
L 697 3744 
Q 697 4328 969 4595 
Q 1241 4863 1831 4863 
L 2375 4863 
z
" transform="scale(0.015625)"/>
       <path id="DejaVuSans-29" d="M 513 4856 
L 1013 4856 
Q 1481 4119 1714 3412 
Q 1947 2706 1947 2009 
Q 1947 1309 1714 600 
Q 1481 -109 1013 -844 
L 513 -844 
Q 928 -128 1133 580 
Q 1338 1288 1338 2009 
Q 1338 2731 1133 3434 
Q 928 4138 513 4856 
z
" transform="scale(0.015625)"/>
       <path id="DejaVuSans-41" d="M 2188 4044 
L 1331 1722 
L 3047 1722 
L 2188 4044 
z
M 1831 4666 
L 2547 4666 
L 4325 0 
L 3669 0 
L 3244 1197 
L 1141 1197 
L 716 0 
L 50 0 
L 1831 4666 
z
" transform="scale(0.015625)"/>
       <path id="DejaVuSans-55" d="M 556 4666 
L 1191 4666 
L 1191 1831 
Q 1191 1081 1462 751 
Q 1734 422 2344 422 
Q 2950 422 3222 751 
Q 3494 1081 3494 1831 
L 3494 4666 
L 4128 4666 
L 4128 1753 
Q 4128 841 3676 375 
Q 3225 -91 2344 -91 
Q 1459 -91 1007 375 
Q 556 841 556 1753 
L 556 4666 
z
" transform="scale(0.015625)"/>
       <path id="DejaVuSans-4f" d="M 2522 4238 
Q 1834 4238 1429 3725 
Q 1025 3213 1025 2328 
Q 1025 1447 1429 934 
Q 1834 422 2522 422 
Q 3209 422 3611 934 
Q 4013 1447 4013 2328 
Q 4013 3213 3611 3725 
Q 3209 4238 2522 4238 
z
M 2522 4750 
Q 3503 4750 4090 4092 
Q 4678 3434 4678 2328 
Q 4678 1225 4090 567 
Q 3503 -91 2522 -91 
Q 1538 -91 948 565 
Q 359 1222 359 2328 
Q 359 3434 948 4092 
Q 1538 4750 2522 4750 
z
" transform="scale(0.015625)"/>
       <path id="DejaVuSans-43" d="M 4122 4306 
L 4122 3641 
Q 3803 3938 3442 4084 
Q 3081 4231 2675 4231 
Q 1875 4231 1450 3742 
Q 1025 3253 1025 2328 
Q 1025 1406 1450 917 
Q 1875 428 2675 428 
Q 3081 428 3442 575 
Q 3803 722 4122 1019 
L 4122 359 
Q 3791 134 3420 21 
Q 3050 -91 2638 -91 
Q 1578 -91 968 557 
Q 359 1206 359 2328 
Q 359 3453 968 4101 
Q 1578 4750 2638 4750 
Q 3056 4750 3426 4639 
Q 3797 4528 4122 4306 
z
" transform="scale(0.015625)"/>
       <path id="DejaVuSans-3d" d="M 678 2906 
L 4684 2906 
L 4684 2381 
L 678 2381 
L 678 2906 
z
M 678 1631 
L 4684 1631 
L 4684 1100 
L 678 1100 
L 678 1631 
z
" transform="scale(0.015625)"/>
       <path id="DejaVuSans-39" d="M 703 97 
L 703 672 
Q 941 559 1184 500 
Q 1428 441 1663 441 
Q 2288 441 2617 861 
Q 2947 1281 2994 2138 
Q 2813 1869 2534 1725 
Q 2256 1581 1919 1581 
Q 1219 1581 811 2004 
Q 403 2428 403 3163 
Q 403 3881 828 4315 
Q 1253 4750 1959 4750 
Q 2769 4750 3195 4129 
Q 3622 3509 3622 2328 
Q 3622 1225 3098 567 
Q 2575 -91 1691 -91 
Q 1453 -91 1209 -44 
Q 966 3 703 97 
z
M 1959 2075 
Q 2384 2075 2632 2365 
Q 2881 2656 2881 3163 
Q 2881 3666 2632 3958 
Q 2384 4250 1959 4250 
Q 1534 4250 1286 3958 
Q 1038 3666 1038 3163 
Q 1038 2656 1286 2365 
Q 1534 2075 1959 2075 
z
" transform="scale(0.015625)"/>
      </defs>
      <use xlink:href="#DejaVuSans-76"/>
      <use xlink:href="#DejaVuSans-33" transform="translate(59.179688 0)"/>
      <use xlink:href="#DejaVuSans-20" transform="translate(122.802734 0)"/>
      <use xlink:href="#DejaVuSans-28" transform="translate(154.589844 0)"/>
      <use xlink:href="#DejaVuSans-37" transform="translate(193.603516 0)"/>
      <use xlink:href="#DejaVuSans-20" transform="translate(257.226562 0)"/>
      <use xlink:href="#DejaVuSans-66" transform="translate(289.013672 0)"/>
      <use xlink:href="#DejaVuSans-65" transform="translate(324.21875 0)"/>
      <use xlink:href="#DejaVuSans-61" transform="translate(385.742188 0)"/>
      <use xlink:href="#DejaVuSans-74" transform="translate(447.021484 0)"/>
      <use xlink:href="#DejaVuSans-29" transform="translate(486.230469 0)"/>
      <use xlink:href="#DejaVuSans-20" transform="translate(525.244141 0)"/>
      <use xlink:href="#DejaVuSans-41" transform="translate(557.03125 0)"/>
      <use xlink:href="#DejaVuSans-55" transform="translate(625.439453 0)"/>
      <use xlink:href="#DejaVuSans-52" transform="translate(698.632812 0)"/>
      <use xlink:href="#DejaVuSans-4f" transform="translate(768.115234 0)"/>
      <use xlink:href="#DejaVuSans-43" transform="translate(846.826172 0)"/>
      <use xlink:href="#DejaVuSans-3d" transform="translate(916.650391 0)"/>
      <use xlink:href="#DejaVuSans-30" transform="translate(1000.439453 0)"/>
      <use xlink:href="#DejaVuSans-2e" transform="translate(1064.0625 0)"/>
      <use xlink:href="#DejaVuSans-39" transform="translate(1095.849609 0)"/>
      <use xlink:href="#DejaVuSans-33" transform="translate(1159.472656 0)"/>
      <use xlink:href="#DejaVuSans-38" transform="translate(1223.095703 0)"/>
      <use xlink:href="#DejaVuSans-36" transform="translate(1286.71875 0)"/>
     </g>
    </g>
    <g id="line2d_17">
     <path d="M 245.720203 265.912312 
L 254.720203 265.912312 
L 263.720203 265.912312 
" style="fill: none; stroke-dasharray: 7.4,3.2; stroke-dashoffset: 0; stroke: #ff9400; stroke-width: 2"/>
    </g>
    <g id="text_17">
     <!-- v2 (6 feat) AUROC=0.9373 -->
     <g style="fill: #262626" transform="translate(270.920203 269.062312) scale(0.09 -0.09)">
      <use xlink:href="#DejaVuSans-76"/>
      <use xlink:href="#DejaVuSans-32" transform="translate(59.179688 0)"/>
      <use xlink:href="#DejaVuSans-20" transform="translate(122.802734 0)"/>
      <use xlink:href="#DejaVuSans-28" transform="translate(154.589844 0)"/>
      <use xlink:href="#DejaVuSans-36" transform="translate(193.603516 0)"/>
      <use xlink:href="#DejaVuSans-20" transform="translate(257.226562 0)"/>
      <use xlink:href="#DejaVuSans-66" transform="translate(289.013672 0)"/>
      <use xlink:href="#DejaVuSans-65" transform="translate(324.21875 0)"/>
      <use xlink:href="#DejaVuSans-61" transform="translate(385.742188 0)"/>
      <use xlink:href="#DejaVuSans-74" transform="translate(447.021484 0)"/>
      <use xlink:href="#DejaVuSans-29" transform="translate(486.230469 0)"/>
      <use xlink:href="#DejaVuSans-20" transform="translate(525.244141 0)"/>
      <use xlink:href="#DejaVuSans-41" transform="translate(557.03125 0)"/>
      <use xlink:href="#DejaVuSans-55" transform="translate(625.439453 0)"/>
      <use xlink:href="#DejaVuSans-52" transform="translate(698.632812 0)"/>
      <use xlink:href="#DejaVuSans-4f" transform="translate(768.115234 0)"/>
      <use xlink:href="#DejaVuSans-43" transform="translate(846.826172 0)"/>
      <use xlink:href="#DejaVuSans-3d" transform="translate(916.650391 0)"/>
      <use xlink:href="#DejaVuSans-30" transform="translate(1000.439453 0)"/>
      <use xlink:href="#DejaVuSans-2e" transform="translate(1064.0625 0)"/>
      <use xlink:href="#DejaVuSans-39" transform="translate(1095.849609 0)"/>
      <use xlink:href="#DejaVuSans-33" transform="translate(1159.472656 0)"/>
      <use xlink:href="#DejaVuSans-37" transform="translate(1223.095703 0)"/>
      <use xlink:href="#DejaVuSans-33" transform="translate(1286.71875 0)"/>
     </g>
    </g>
   </g>
  </g>
  <g id="axes_2">
   <g id="patch_6">
    <path d="M 470.662547 279.034031 
L 819.952547 279.034031 
L 819.952547 22.774031 
L 470.662547 22.774031 
z
" style="fill: #ffffff"/>
   </g>
   <g id="matplotlib.axis_3">
    <g id="xtick_7">
     <g id="line2d_18">
      <g>
       <use xlink:href="#m07b4cd66ff" x="486.539365" y="279.034031" style="fill: #262626; stroke: #262626; stroke-width: 1.25"/>
      </g>
     </g>
     <g id="text_18">
      <!-- 0.0 -->
      <g style="fill: #262626" transform="translate(477.35531 297.310227) scale(0.1155 -0.1155)">
       <use xlink:href="#DejaVuSans-30"/>
       <use xlink:href="#DejaVuSans-2e" transform="translate(63.623047 0)"/>
       <use xlink:href="#DejaVuSans-30" transform="translate(95.410156 0)"/>
      </g>
     </g>
    </g>
    <g id="xtick_8">
     <g id="line2d_19">
      <g>
       <use xlink:href="#m07b4cd66ff" x="550.046638" y="279.034031" style="fill: #262626; stroke: #262626; stroke-width: 1.25"/>
      </g>
     </g>
     <g id="text_19">
      <!-- 0.2 -->
      <g style="fill: #262626" transform="translate(540.862583 297.310227) scale(0.1155 -0.1155)">
       <use xlink:href="#DejaVuSans-30"/>
       <use xlink:href="#DejaVuSans-2e" transform="translate(63.623047 0)"/>
       <use xlink:href="#DejaVuSans-32" transform="translate(95.410156 0)"/>
      </g>
     </g>
    </g>
    <g id="xtick_9">
     <g id="line2d_20">
      <g>
       <use xlink:href="#m07b4cd66ff" x="613.553911" y="279.034031" style="fill: #262626; stroke: #262626; stroke-width: 1.25"/>
      </g>
     </g>
     <g id="text_20">
      <!-- 0.4 -->
      <g style="fill: #262626" transform="translate(604.369856 297.310227) scale(0.1155 -0.1155)">
       <use xlink:href="#DejaVuSans-30"/>
       <use xlink:href="#DejaVuSans-2e" transform="translate(63.623047 0)"/>
       <use xlink:href="#DejaVuSans-34" transform="translate(95.410156 0)"/>
      </g>
     </g>
    </g>
    <g id="xtick_10">
     <g id="line2d_21">
      <g>
       <use xlink:href="#m07b4cd66ff" x="677.061183" y="279.034031" style="fill: #262626; stroke: #262626; stroke-width: 1.25"/>
      </g>
     </g>
     <g id="text_21">
      <!-- 0.6 -->
      <g style="fill: #262626" transform="translate(667.877129 297.310227) scale(0.1155 -0.1155)">
       <use xlink:href="#DejaVuSans-30"/>
       <use xlink:href="#DejaVuSans-2e" transform="translate(63.623047 0)"/>
       <use xlink:href="#DejaVuSans-36" transform="translate(95.410156 0)"/>
      </g>
     </g>
    </g>
    <g id="xtick_11">
     <g id="line2d_22">
      <g>
       <use xlink:href="#m07b4cd66ff" x="740.568456" y="279.034031" style="fill: #262626; stroke: #262626; stroke-width: 1.25"/>
      </g>
     </g>
     <g id="text_22">
      <!-- 0.8 -->
      <g style="fill: #262626" transform="translate(731.384401 297.310227) scale(0.1155 -0.1155)">
       <use xlink:href="#DejaVuSans-30"/>
       <use xlink:href="#DejaVuSans-2e" transform="translate(63.623047 0)"/>
       <use xlink:href="#DejaVuSans-38" transform="translate(95.410156 0)"/>
      </g>
     </g>
    </g>
    <g id="xtick_12">
     <g id="line2d_23">
      <g>
       <use xlink:href="#m07b4cd66ff" x="804.075729" y="279.034031" style="fill: #262626; stroke: #262626; stroke-width: 1.25"/>
      </g>
     </g>
     <g id="text_23">
      <!-- 1.0 -->
      <g style="fill: #262626" transform="translate(794.891674 297.310227) scale(0.1155 -0.1155)">
       <use xlink:href="#DejaVuSans-31"/>
       <use xlink:href="#DejaVuSans-2e" transform="translate(63.623047 0)"/>
       <use xlink:href="#DejaVuSans-30" transform="translate(95.410156 0)"/>
      </g>
     </g>
    </g>
    <g id="text_24">
     <!-- Recall -->
     <g style="fill: #262626" transform="translate(626.511891 313.286297) scale(0.126 -0.126)">
      <defs>
       <path id="DejaVuSans-63" d="M 3122 3366 
L 3122 2828 
Q 2878 2963 2633 3030 
Q 2388 3097 2138 3097 
Q 1578 3097 1268 2742 
Q 959 2388 959 1747 
Q 959 1106 1268 751 
Q 1578 397 2138 397 
Q 2388 397 2633 464 
Q 2878 531 3122 666 
L 3122 134 
Q 2881 22 2623 -34 
Q 2366 -91 2075 -91 
Q 1284 -91 818 406 
Q 353 903 353 1747 
Q 353 2603 823 3093 
Q 1294 3584 2113 3584 
Q 2378 3584 2631 3529 
Q 2884 3475 3122 3366 
z
" transform="scale(0.015625)"/>
      </defs>
      <use xlink:href="#DejaVuSans-52"/>
      <use xlink:href="#DejaVuSans-65" transform="translate(64.982422 0)"/>
      <use xlink:href="#DejaVuSans-63" transform="translate(126.505859 0)"/>
      <use xlink:href="#DejaVuSans-61" transform="translate(181.486328 0)"/>
      <use xlink:href="#DejaVuSans-6c" transform="translate(242.765625 0)"/>
      <use xlink:href="#DejaVuSans-6c" transform="translate(270.548828 0)"/>
     </g>
    </g>
   </g>
   <g id="matplotlib.axis_4">
    <g id="ytick_7">
     <g id="line2d_24">
      <g>
       <use xlink:href="#m5bf2386af6" x="470.662547" y="267.385849" style="fill: #262626; stroke: #262626; stroke-width: 1.25"/>
      </g>
     </g>
     <g id="text_25">
      <!-- 0.5 -->
      <g style="fill: #262626" transform="translate(442.794437 271.773947) scale(0.1155 -0.1155)">
       <defs>
        <path id="DejaVuSans-35" d="M 691 4666 
L 3169 4666 
L 3169 4134 
L 1269 4134 
L 1269 2991 
Q 1406 3038 1543 3061 
Q 1681 3084 1819 3084 
Q 2600 3084 3056 2656 
Q 3513 2228 3513 1497 
Q 3513 744 3044 326 
Q 2575 -91 1722 -91 
Q 1428 -91 1123 -41 
Q 819 9 494 109 
L 494 744 
Q 775 591 1075 516 
Q 1375 441 1709 441 
Q 2250 441 2565 725 
Q 2881 1009 2881 1497 
Q 2881 1984 2565 2268 
Q 2250 2553 1709 2553 
Q 1456 2553 1204 2497 
Q 953 2441 691 2322 
L 691 4666 
z
" transform="scale(0.015625)"/>
       </defs>
       <use xlink:href="#DejaVuSans-30"/>
       <use xlink:href="#DejaVuSans-2e" transform="translate(63.623047 0)"/>
       <use xlink:href="#DejaVuSans-35" transform="translate(95.410156 0)"/>
      </g>
     </g>
    </g>
    <g id="ytick_8">
     <g id="line2d_25">
      <g>
       <use xlink:href="#m5bf2386af6" x="470.662547" y="220.793122" style="fill: #262626; stroke: #262626; stroke-width: 1.25"/>
      </g>
     </g>
     <g id="text_26">
      <!-- 0.6 -->
      <g style="fill: #262626" transform="translate(442.794437 225.18122) scale(0.1155 -0.1155)">
       <use xlink:href="#DejaVuSans-30"/>
       <use xlink:href="#DejaVuSans-2e" transform="translate(63.623047 0)"/>
       <use xlink:href="#DejaVuSans-36" transform="translate(95.410156 0)"/>
      </g>
     </g>
    </g>
    <g id="ytick_9">
     <g id="line2d_26">
      <g>
       <use xlink:href="#m5bf2386af6" x="470.662547" y="174.200395" style="fill: #262626; stroke: #262626; stroke-width: 1.25"/>
      </g>
     </g>
     <g id="text_27">
      <!-- 0.7 -->
      <g style="fill: #262626" transform="translate(442.794437 178.588493) scale(0.1155 -0.1155)">
       <use xlink:href="#DejaVuSans-30"/>
       <use xlink:href="#DejaVuSans-2e" transform="translate(63.623047 0)"/>
       <use xlink:href="#DejaVuSans-37" transform="translate(95.410156 0)"/>
      </g>
     </g>
    </g>
    <g id="ytick_10">
     <g id="line2d_27">
      <g>
       <use xlink:href="#m5bf2386af6" x="470.662547" y="127.607668" style="fill: #262626; stroke: #262626; stroke-width: 1.25"/>
      </g>
     </g>
     <g id="text_28">
      <!-- 0.8 -->
      <g style="fill: #262626" transform="translate(442.794437 131.995765) scale(0.1155 -0.1155)">
       <use xlink:href="#DejaVuSans-30"/>
       <use xlink:href="#DejaVuSans-2e" transform="translate(63.623047 0)"/>
       <use xlink:href="#DejaVuSans-38" transform="translate(95.410156 0)"/>
      </g>
     </g>
    </g>
    <g id="ytick_11">
     <g id="line2d_28">
      <g>
       <use xlink:href="#m5bf2386af6" x="470.662547" y="81.01494" style="fill: #262626; stroke: #262626; stroke-width: 1.25"/>
      </g>
     </g>
     <g id="text_29">
      <!-- 0.9 -->
      <g style="fill: #262626" transform="translate(442.794437 85.403038) scale(0.1155 -0.1155)">
       <use xlink:href="#DejaVuSans-30"/>
       <use xlink:href="#DejaVuSans-2e" transform="translate(63.623047 0)"/>
       <use xlink:href="#DejaVuSans-39" transform="translate(95.410156 0)"/>
      </g>
     </g>
    </g>
    <g id="ytick_12">
     <g id="line2d_29">
      <g>
       <use xlink:href="#m5bf2386af6" x="470.662547" y="34.422213" style="fill: #262626; stroke: #262626; stroke-width: 1.25"/>
      </g>
     </g>
     <g id="text_30">
      <!-- 1.0 -->
      <g style="fill: #262626" transform="translate(442.794437 38.810311) scale(0.1155 -0.1155)">
       <use xlink:href="#DejaVuSans-31"/>
       <use xlink:href="#DejaVuSans-2e" transform="translate(63.623047 0)"/>
       <use xlink:href="#DejaVuSans-30" transform="translate(95.410156 0)"/>
      </g>
     </g>
    </g>
    <g id="text_31">
     <!-- Precision -->
     <g style="fill: #262626" transform="translate(436.174031 179.010891) rotate(-90) scale(0.126 -0.126)">
      <defs>
       <path id="DejaVuSans-6e" d="M 3513 2113 
L 3513 0 
L 2938 0 
L 2938 2094 
Q 2938 2591 2744 2837 
Q 2550 3084 2163 3084 
Q 1697 3084 1428 2787 
Q 1159 2491 1159 1978 
L 1159 0 
L 581 0 
L 581 3500 
L 1159 3500 
L 1159 2956 
Q 1366 3272 1645 3428 
Q 1925 3584 2291 3584 
Q 2894 3584 3203 3211 
Q 3513 2838 3513 2113 
z
" transform="scale(0.015625)"/>
      </defs>
      <use xlink:href="#DejaVuSans-50"/>
      <use xlink:href="#DejaVuSans-72" transform="translate(58.552734 0)"/>
      <use xlink:href="#DejaVuSans-65" transform="translate(97.416016 0)"/>
      <use xlink:href="#DejaVuSans-63" transform="translate(158.939453 0)"/>
      <use xlink:href="#DejaVuSans-69" transform="translate(213.919922 0)"/>
      <use xlink:href="#DejaVuSans-73" transform="translate(241.703125 0)"/>
      <use xlink:href="#DejaVuSans-69" transform="translate(293.802734 0)"/>
      <use xlink:href="#DejaVuSans-6f" transform="translate(321.585938 0)"/>
      <use xlink:href="#DejaVuSans-6e" transform="translate(382.767578 0)"/>
     </g>
    </g>
   </g>
   <g id="line2d_30">
    <path d="M 804.075729 267.385849 
L 804.075729 261.167108 
L 803.758192 261.283566 
L 803.758192 259.800987 
L 803.440656 259.917522 
L 803.440656 248.045949 
L 803.12312 248.161923 
L 803.12312 242.277546 
L 802.805583 242.393086 
L 802.805583 231.32713 
L 802.488047 231.441344 
L 802.488047 220.399222 
L 802.170511 220.511595 
L 802.170511 217.779804 
L 801.852974 217.891744 
L 801.852974 211.544379 
L 801.535438 211.655011 
L 801.535438 199.0458 
L 801.217901 199.153186 
L 801.217901 192.321516 
L 800.900365 192.426922 
L 800.900365 185.490783 
L 800.582829 185.593972 
L 800.582829 184.947656 
L 800.265292 185.050756 
L 800.265292 184.83465 
L 799.947756 184.937814 
L 799.947756 184.28748 
L 799.63022 184.390551 
L 799.63022 180.207123 
L 799.312683 180.308786 
L 799.312683 179.861802 
L 798.995147 179.963437 
L 798.995147 178.388505 
L 798.360074 178.590989 
L 798.360074 176.999251 
L 798.042538 177.100084 
L 798.042538 175.952996 
L 797.725001 176.053515 
L 797.725001 174.433192 
L 797.407465 174.5332 
L 797.407465 171.004504 
L 796.772392 171.20202 
L 796.772392 168.321079 
L 796.454856 168.418816 
L 796.454856 162.50029 
L 796.13732 162.595515 
L 796.13732 160.065523 
L 795.819783 160.159708 
L 795.819783 159.648912 
L 795.502247 159.742997 
L 795.502247 158.716301 
L 795.184711 158.810037 
L 795.184711 156.99747 
L 794.867174 157.090471 
L 794.867174 156.829834 
L 794.549638 156.922849 
L 794.549638 155.875816 
L 794.232101 155.968458 
L 794.232101 154.914499 
L 793.914565 155.00676 
L 793.914565 152.073347 
L 793.597029 152.164267 
L 793.597029 148.905123 
L 793.279492 148.994493 
L 793.279492 145.112118 
L 792.326883 145.374831 
L 792.326883 144.247927 
L 792.009347 144.33516 
L 792.009347 143.768709 
L 791.691811 143.855768 
L 791.691811 135.430081 
L 791.374274 135.51247 
L 791.374274 134.31824 
L 791.056738 134.400055 
L 791.056738 132.289968 
L 790.739201 132.37065 
L 790.739201 132.067038 
L 790.421665 132.147669 
L 790.421665 131.84337 
L 790.104129 131.92395 
L 790.104129 130.393944 
L 789.786592 130.473721 
L 789.786592 128.308896 
L 789.469056 128.387462 
L 789.469056 126.824597 
L 788.833983 126.980156 
L 788.833983 126.665607 
L 788.516447 126.743384 
L 788.516447 122.924583 
L 787.246301 123.227155 
L 787.246301 122.904552 
L 786.928765 122.980308 
L 786.928765 122.656941 
L 786.611229 122.732614 
L 786.611229 121.432728 
L 785.976156 121.582746 
L 785.976156 120.928572 
L 785.65862 121.00334 
L 785.65862 119.687308 
L 785.341083 119.761323 
L 785.341083 119.430664 
L 784.706011 119.578634 
L 784.706011 118.581851 
L 784.388474 118.321704 
L 784.070938 118.395107 
L 784.070938 117.05374 
L 783.753401 117.126351 
L 783.753401 116.451662 
L 783.435865 116.523935 
L 783.435865 113.799353 
L 783.118329 113.869847 
L 783.118329 113.182161 
L 782.483256 113.322553 
L 782.483256 112.631434 
L 781.848183 112.771343 
L 781.848183 112.424362 
L 779.942965 112.845615 
L 779.942965 110.741522 
L 779.625429 110.810652 
L 779.625429 110.457489 
L 778.990356 110.595609 
L 778.990356 109.886321 
L 778.67282 109.95505 
L 778.67282 109.242651 
L 777.402674 109.516719 
L 777.402674 109.158485 
L 776.767601 109.295742 
L 776.767601 108.936317 
L 776.450065 109.004868 
L 776.450065 108.644513 
L 775.497456 108.850115 
L 775.497456 108.125787 
L 775.17992 108.194031 
L 775.17992 107.101676 
L 774.862383 107.169222 
L 774.862383 106.803473 
L 774.544847 106.870867 
L 774.544847 106.504158 
L 771.68702 107.113874 
L 771.68702 106.001992 
L 771.369483 106.06952 
L 771.369483 104.950466 
L 769.146729 105.420655 
L 769.146729 105.044173 
L 768.829192 105.111561 
L 768.829192 104.734065 
L 767.876583 104.936111 
L 767.876583 104.17716 
L 767.559047 104.244167 
L 767.559047 103.099354 
L 766.606438 103.298419 
L 766.606438 102.914423 
L 765.336292 103.180413 
L 765.336292 102.40771 
L 764.70122 102.540235 
L 764.70122 102.152129 
L 764.383683 102.218271 
L 764.383683 101.829091 
L 763.748611 101.961132 
L 763.748611 101.570555 
L 763.431074 101.636452 
L 763.431074 101.244789 
L 762.796001 101.376329 
L 762.796001 100.5894 
L 762.478465 100.654718 
L 762.478465 99.864026 
L 761.525856 100.058793 
L 761.525856 99.262987 
L 760.573247 99.456927 
L 760.573247 97.851752 
L 760.255711 97.915308 
L 760.255711 97.107208 
L 759.303101 97.296588 
L 759.303101 95.666445 
L 758.668029 95.790547 
L 758.668029 95.380244 
L 758.350492 95.44213 
L 758.350492 95.030639 
L 757.397883 95.215986 
L 757.397883 94.802584 
L 756.762811 94.926061 
L 756.762811 94.511094 
L 756.445274 94.57266 
L 756.445274 94.156479 
L 755.175129 94.402552 
L 755.175129 92.301377 
L 753.904983 92.542039 
L 753.904983 91.69244 
L 752.634838 91.932065 
L 752.634838 91.504403 
L 751.682229 91.684283 
L 751.682229 91.254562 
L 750.72962 91.434411 
L 750.72962 90.136268 
L 750.412083 90.195287 
L 750.412083 89.324471 
L 749.141938 89.558596 
L 749.141938 89.120185 
L 748.506865 89.237186 
L 748.506865 88.797023 
L 747.554256 88.972237 
L 747.554256 87.642354 
L 747.23672 87.699765 
L 747.23672 86.80755 
L 746.919183 86.864244 
L 746.919183 85.967313 
L 746.284111 86.079367 
L 746.284111 83.815596 
L 745.966574 83.869637 
L 745.966574 82.956304 
L 745.649038 83.00958 
L 745.649038 82.550964 
L 745.331501 82.603911 
L 745.331501 81.682752 
L 743.426283 81.997473 
L 743.426283 81.066768 
L 742.791211 81.170769 
L 742.791211 80.702935 
L 742.473674 80.754646 
L 742.473674 80.2853 
L 741.521065 80.439721 
L 741.521065 79.967913 
L 740.25092 80.173537 
L 740.25092 79.222912 
L 738.663238 79.477751 
L 738.663238 78.998399 
L 735.487874 79.511949 
L 735.487874 79.026554 
L 735.170338 79.07806 
L 735.170338 78.591041 
L 734.535265 78.693402 
L 734.535265 78.204242 
L 734.217729 78.255092 
L 733.900192 77.814741 
L 732.947583 77.966818 
L 732.947583 75.983801 
L 731.359901 76.229147 
L 731.359901 75.727822 
L 731.042365 75.776705 
L 731.042365 75.273656 
L 729.454683 75.51711 
L 729.454683 75.01015 
L 728.502074 75.155975 
L 728.502074 74.135102 
L 727.231929 74.32672 
L 727.231929 73.8122 
L 726.914392 73.85983 
L 726.914392 73.343499 
L 725.961783 73.485374 
L 725.961783 72.445511 
L 725.644247 72.49188 
L 725.644247 71.969466 
L 722.151347 72.480629 
L 722.151347 71.950432 
L 721.198738 72.090463 
L 721.198738 71.557139 
L 720.246129 71.696395 
L 720.246129 71.159908 
L 718.023374 71.48461 
L 718.023374 70.942429 
L 716.435692 71.174746 
L 716.435692 70.628027 
L 713.260329 71.095198 
L 713.260329 69.984579 
L 712.30772 70.123134 
L 712.30772 69.563672 
L 711.990183 69.609429 
L 711.990183 69.047838 
L 711.672647 69.093041 
L 711.672647 67.964098 
L 710.402501 68.140634 
L 710.402501 67.000241 
L 700.876411 68.342743 
L 700.876411 67.74851 
L 699.923801 67.886603 
L 699.923801 67.288452 
L 696.748438 67.749409 
L 696.748438 67.141825 
L 696.430901 67.187844 
L 696.430901 66.577757 
L 695.160756 66.759942 
L 695.160756 66.144921 
L 693.255538 66.417219 
L 693.255538 65.795539 
L 685.317129 66.960968 
L 685.317129 66.316044 
L 683.729447 66.555128 
L 683.729447 65.903786 
L 682.459301 66.094007 
L 682.459301 65.437039 
L 681.824229 65.531166 
L 681.824229 64.870348 
L 679.919011 65.150545 
L 679.919011 64.482037 
L 679.601474 64.528283 
L 679.601474 63.856756 
L 678.966401 63.947743 
L 678.966401 63.272199 
L 676.426111 63.633954 
L 676.426111 62.948373 
L 673.250747 63.403335 
L 673.250747 62.705338 
L 668.805238 63.352338 
L 668.805238 62.637122 
L 663.089583 63.493561 
L 663.089583 62.755628 
L 661.184365 63.045732 
L 661.184365 62.298204 
L 659.279147 62.587074 
L 659.279147 60.307062 
L 657.373929 60.579534 
L 657.373929 59.806651 
L 657.056392 59.851342 
L 657.056392 59.07445 
L 652.293347 59.744347 
L 652.293347 58.142147 
L 651.340738 58.272238 
L 651.340738 57.462573 
L 650.705665 57.54728 
L 650.705665 56.731806 
L 648.165374 57.065408 
L 648.165374 56.235288 
L 644.990011 56.651568 
L 644.990011 55.803197 
L 644.354938 55.885274 
L 644.354938 55.030535 
L 642.132183 55.31174 
L 642.132183 54.442526 
L 641.179574 54.560523 
L 641.179574 53.682986 
L 640.226965 53.797407 
L 640.226965 52.911391 
L 637.369138 53.247557 
L 637.369138 52.342493 
L 635.46392 52.562824 
L 635.46392 51.643344 
L 634.193774 51.785962 
L 634.193774 50.855333 
L 632.606092 51.027588 
L 632.606092 50.083634 
L 628.47812 50.523372 
L 628.47812 49.549722 
L 620.857247 50.378627 
L 620.857247 49.348945 
L 619.587101 49.486836 
L 619.587101 48.443173 
L 618.634492 48.541221 
L 618.634492 46.425023 
L 613.553911 46.892286 
L 613.553911 45.786293 
L 612.601301 45.870058 
L 612.601301 43.625715 
L 611.01362 43.740759 
L 611.01362 42.596376 
L 609.425938 42.700109 
L 609.425938 41.535607 
L 594.819265 42.478592 
L 582.752883 43.469345 
L 572.59172 44.514501 
L 564.018238 45.604468 
L 564.018238 43.778182 
L 555.762292 44.869013 
L 548.776492 46.012444 
L 548.776492 43.740759 
L 545.918665 44.179852 
L 545.918665 41.778959 
L 538.932865 42.742343 
L 533.217211 43.740759 
L 528.454165 44.776152 
L 528.454165 41.376351 
L 523.373583 42.319285 
L 519.245611 43.297018 
L 515.752711 44.335559 
L 512.577347 45.51572 
L 510.037056 46.683457 
L 507.814301 47.927351 
L 506.861692 48.541221 
L 506.861692 41.590325 
L 504.321401 42.596376 
L 502.416183 43.558042 
L 502.098647 43.740759 
L 502.098647 34.422213 
L 486.539365 34.422213 
L 486.539365 34.422213 
" clip-path="url(#pac2910ca30)" style="fill: none; stroke: #0279ee; stroke-width: 2; stroke-linecap: round"/>
   </g>
   <g id="line2d_31">
    <path d="M 804.075729 267.385849 
L 804.075729 263.356977 
L 803.758192 263.473483 
L 803.758192 261.160716 
L 803.440656 261.277291 
L 803.440656 239.409296 
L 803.12312 239.524393 
L 803.12312 235.660317 
L 802.805583 235.775048 
L 802.805583 229.758487 
L 802.488047 229.872452 
L 802.488047 214.530968 
L 802.170511 214.642077 
L 802.170511 214.465715 
L 801.852974 214.576921 
L 801.852974 202.432047 
L 801.535438 202.540301 
L 801.535438 193.647525 
L 801.217901 193.753253 
L 801.217901 190.876344 
L 800.582829 191.08635 
L 800.582829 188.364332 
L 800.265292 188.468628 
L 800.265292 187.195645 
L 799.947756 187.299644 
L 799.947756 186.872854 
L 799.312683 187.080978 
L 799.312683 182.964725 
L 798.995147 183.067523 
L 798.995147 179.963437 
L 798.677611 180.065214 
L 798.677611 179.166801 
L 798.360074 179.268376 
L 798.360074 177.455638 
L 798.042538 177.556651 
L 798.042538 177.100084 
L 797.725001 177.201059 
L 797.725001 176.9722 
L 796.772392 177.275713 
L 796.772392 170.963852 
L 796.454856 171.062724 
L 796.454856 170.82411 
L 796.13732 170.923024 
L 796.13732 167.787926 
L 795.819783 167.88563 
L 795.819783 164.191587 
L 795.502247 164.287784 
L 795.502247 157.942208 
L 795.184711 158.035571 
L 795.184711 157.776635 
L 794.867174 157.870014 
L 794.867174 154.730401 
L 794.232101 154.914499 
L 794.232101 154.385097 
L 793.914565 154.477093 
L 793.914565 153.145791 
L 793.279492 153.328865 
L 793.279492 152.792926 
L 792.961956 152.884402 
L 792.961956 150.178288 
L 792.64442 150.268511 
L 792.64442 148.898867 
L 792.326883 148.988512 
L 792.326883 145.374831 
L 791.691811 145.550667 
L 791.691811 144.422531 
L 791.374274 144.510041 
L 791.374274 142.230845 
L 791.056738 142.317231 
L 791.056738 142.030116 
L 790.739201 142.116478 
L 790.739201 139.510094 
L 790.421665 139.595117 
L 790.421665 139.303008 
L 790.104129 139.388001 
L 790.104129 138.508322 
L 789.15152 138.762604 
L 789.15152 138.467912 
L 788.833983 138.552778 
L 788.833983 137.368501 
L 788.516447 137.452814 
L 788.516447 135.96064 
L 788.198911 136.044211 
L 788.198911 131.490395 
L 787.881374 131.571353 
L 787.881374 131.263524 
L 787.246301 131.425466 
L 787.246301 130.807503 
L 786.928765 130.888296 
L 786.928765 129.333324 
L 786.293692 129.493377 
L 786.293692 128.866931 
L 785.976156 128.946765 
L 785.976156 128.317802 
L 785.65862 128.397375 
L 785.65862 125.858453 
L 785.023547 126.014754 
L 785.023547 125.37377 
L 784.388474 125.529776 
L 784.388474 125.208042 
L 783.753401 125.364166 
L 783.753401 125.041459 
L 783.435865 125.119512 
L 783.435865 124.472005 
L 782.483256 124.705698 
L 782.483256 124.054669 
L 782.16572 124.132408 
L 782.16572 123.150972 
L 781.848183 123.228195 
L 781.848183 122.899692 
L 780.895574 123.13151 
L 780.895574 122.14057 
L 780.578038 122.217449 
L 780.578038 121.220615 
L 780.260501 121.296955 
L 780.260501 120.963282 
L 779.625429 121.115912 
L 779.625429 120.445888 
L 779.307892 120.521948 
L 779.307892 120.185817 
L 778.990356 120.261781 
L 778.990356 118.571 
L 778.67282 118.645932 
L 778.67282 118.305733 
L 778.037747 118.455525 
L 778.037747 117.429847 
L 777.720211 117.504227 
L 777.720211 116.816892 
L 777.085138 116.965084 
L 777.085138 115.233447 
L 776.450065 115.379712 
L 776.450065 115.031008 
L 776.132529 115.104089 
L 776.132529 114.404279 
L 775.497456 114.549833 
L 775.497456 114.198467 
L 774.544847 114.417032 
L 774.544847 114.064261 
L 774.227311 114.137126 
L 774.227311 113.429129 
L 773.909774 113.501613 
L 773.909774 111.001211 
L 773.592238 111.071986 
L 773.592238 110.711878 
L 773.274701 110.782516 
L 773.274701 110.421472 
L 772.957165 110.491972 
L 772.957165 109.76733 
L 772.322092 109.907637 
L 772.322092 109.543758 
L 771.051947 109.824849 
L 771.051947 109.092844 
L 770.734411 109.162892 
L 770.734411 108.795581 
L 770.416874 108.86548 
L 770.416874 108.497198 
L 770.099338 108.566949 
L 770.099338 108.197691 
L 769.464265 108.337021 
L 769.464265 107.595276 
L 768.829192 107.733992 
L 768.829192 107.361492 
L 768.19412 107.50016 
L 768.19412 106.000735 
L 767.876583 106.0691 
L 767.876583 105.692159 
L 767.241511 105.828692 
L 767.241511 103.930132 
L 766.923974 103.997095 
L 766.923974 103.614884 
L 766.288901 103.74859 
L 766.288901 102.980728 
L 765.971365 103.04716 
L 765.971365 102.275699 
L 765.653829 102.341641 
L 765.653829 101.954473 
L 765.336292 102.02023 
L 765.336292 101.243002 
L 764.70122 101.373639 
L 764.70122 100.983252 
L 763.431074 101.244789 
L 763.431074 99.670411 
L 762.160929 99.92882 
L 762.160929 98.33669 
L 761.843392 98.400286 
L 761.843392 97.598792 
L 760.255711 97.915308 
L 760.255711 97.511663 
L 759.938174 97.575006 
L 759.938174 95.950915 
L 758.985565 96.137555 
L 758.985565 95.728433 
L 757.71542 95.977645 
L 757.71542 95.56628 
L 757.080347 95.690937 
L 757.080347 94.86426 
L 755.810201 95.112227 
L 755.810201 93.861495 
L 754.22252 94.168833 
L 754.22252 93.748356 
L 753.904983 93.809834 
L 753.904983 93.388113 
L 753.269911 93.510703 
L 753.269911 93.087354 
L 752.952374 93.148463 
L 752.952374 92.723853 
L 752.634838 92.784711 
L 752.634838 91.504403 
L 752.317301 91.564237 
L 752.317301 91.135291 
L 751.682229 91.254562 
L 751.682229 90.823936 
L 751.047156 90.942927 
L 751.047156 90.077374 
L 750.094547 90.254431 
L 750.094547 88.507488 
L 749.777011 88.565148 
L 749.777011 87.685267 
L 749.459474 87.742233 
L 749.459474 85.969484 
L 749.141938 86.024911 
L 749.141938 85.578921 
L 748.189329 85.744656 
L 748.189329 85.296434 
L 746.919183 85.517386 
L 746.919183 85.066482 
L 745.331501 85.343226 
L 745.331501 84.889171 
L 742.156138 85.447434 
L 742.156138 84.065962 
L 741.838601 84.121122 
L 741.838601 83.658132 
L 741.521065 83.71296 
L 741.521065 82.782968 
L 741.203529 82.837002 
L 741.203529 81.901924 
L 738.980774 82.277046 
L 738.980774 81.804648 
L 737.710629 82.019778 
L 737.393092 81.598012 
L 737.393092 80.643049 
L 737.075556 80.695812 
L 737.075556 80.216208 
L 735.487874 80.479392 
L 735.487874 79.996227 
L 734.852801 80.101357 
L 734.852801 79.616082 
L 734.217729 79.720698 
L 734.217729 79.233295 
L 732.630047 79.494432 
L 732.630047 79.003352 
L 731.994974 79.107636 
L 731.994974 78.614378 
L 731.359901 78.718116 
L 731.359901 78.222662 
L 730.407292 78.377616 
L 730.407292 77.87942 
L 727.549465 78.346145 
L 727.549465 77.841959 
L 727.231929 77.893896 
L 727.231929 77.387962 
L 726.914392 77.439479 
L 726.914392 76.931784 
L 726.596856 76.982877 
L 726.596856 76.473411 
L 725.326711 76.676802 
L 725.326711 76.163882 
L 725.009174 76.214478 
L 725.009174 74.66654 
L 723.421492 74.912833 
L 723.421492 74.391464 
L 721.833811 74.637884 
L 721.833811 74.112314 
L 719.29352 74.508225 
L 719.29352 72.909322 
L 716.435692 73.347783 
L 716.435692 71.720076 
L 716.118156 71.767529 
L 716.118156 71.221565 
L 713.577865 71.600451 
L 713.577865 71.047939 
L 713.260329 71.095198 
L 713.260329 70.540606 
L 712.942792 70.587331 
L 712.942792 70.030645 
L 711.990183 70.169559 
L 711.990183 69.609429 
L 711.672647 69.655305 
L 711.672647 69.093041 
L 709.132356 69.45896 
L 709.132356 68.889752 
L 704.369311 69.586536 
L 704.369311 68.422311 
L 704.051774 68.46832 
L 704.051774 67.883115 
L 701.511483 68.24981 
L 701.511483 67.65708 
L 700.241338 67.840445 
L 700.241338 67.243057 
L 699.606265 67.333973 
L 699.606265 66.733397 
L 695.795829 67.280272 
L 695.795829 66.668592 
L 695.478292 66.714202 
L 695.478292 66.099988 
L 694.525683 66.235171 
L 694.525683 65.616774 
L 691.667856 66.021898 
L 691.667856 65.394257 
L 691.35032 65.439079 
L 691.35032 64.808774 
L 691.032783 64.852877 
L 691.032783 64.219887 
L 688.174956 64.614849 
L 688.174956 63.972173 
L 687.222347 64.103506 
L 687.222347 63.456257 
L 684.046983 63.893516 
L 684.046983 61.912627 
L 683.729447 61.954279 
L 683.729447 61.289036 
L 683.411911 61.329867 
L 683.411911 60.661649 
L 679.601474 61.149824 
L 679.601474 60.467837 
L 678.648865 60.589735 
L 678.648865 59.902611 
L 673.88582 60.51414 
L 673.88582 59.809276 
L 665.629874 60.913061 
L 665.629874 60.176987 
L 664.042192 60.39451 
L 664.042192 58.903138 
L 663.724656 58.944701 
L 663.724656 58.194013 
L 663.089583 58.275145 
L 663.089583 57.519462 
L 658.644074 58.08577 
L 658.644074 57.309869 
L 656.42132 57.59444 
L 656.42132 56.806619 
L 656.103783 56.84652 
L 656.103783 56.054551 
L 652.610883 56.487986 
L 652.610883 54.865092 
L 650.070592 55.168511 
L 650.070592 54.341037 
L 646.895229 54.718287 
L 646.895229 53.872687 
L 644.672474 54.134521 
L 644.672474 53.274762 
L 640.862038 53.720976 
L 640.862038 52.838311 
L 639.909429 52.948148 
L 639.909429 52.056911 
L 636.098992 52.488781 
L 636.098992 51.57291 
L 635.46392 51.643344 
L 635.46392 50.720081 
L 632.288556 51.062473 
L 632.288556 50.116605 
L 626.890438 50.699148 
L 626.890438 49.715231 
L 625.620292 49.850268 
L 625.620292 48.853589 
L 622.762465 49.146777 
L 622.762465 48.125956 
L 615.459129 48.878191 
L 615.459129 47.798116 
L 609.108401 48.470272 
L 609.108401 45.038278 
L 607.838256 45.146882 
L 607.838256 43.979696 
L 602.757674 44.388572 
L 602.757674 43.166157 
L 590.691292 44.158007 
L 590.691292 42.792164 
L 579.259983 43.803299 
L 577.354765 43.996061 
L 577.354765 42.427836 
L 573.544329 42.772164 
L 573.544329 41.126203 
L 572.909256 41.174782 
L 572.909256 39.505056 
L 560.842874 40.320027 
L 551.316783 41.174782 
L 550.681711 41.240661 
L 550.681711 36.717421 
L 537.980256 37.280663 
L 528.771701 37.899282 
L 521.785901 38.582278 
L 516.387783 39.326711 
L 512.259811 40.104253 
L 511.307201 40.320027 
L 511.307201 34.422213 
L 486.539365 34.422213 
L 486.539365 34.422213 
" clip-path="url(#pac2910ca30)" style="fill: none; stroke-dasharray: 7.4,3.2; stroke-dashoffset: 0; stroke: #ff9400; stroke-width: 2"/>
   </g>
   <g id="line2d_32">
    <path d="M 470.662547 267.385849 
L 819.952547 267.385849 
" clip-path="url(#pac2910ca30)" style="fill: none; stroke-dasharray: 2.96,1.28; stroke-dashoffset: 0; stroke: #1a1a1a; stroke-opacity: 0.4; stroke-width: 0.8"/>
   </g>
   <g id="patch_7">
    <path d="M 470.662547 279.034031 
L 470.662547 22.774031 
" style="fill: none; stroke: #262626; stroke-width: 1.25; stroke-linejoin: miter; stroke-linecap: square"/>
   </g>
   <g id="patch_8">
    <path d="M 470.662547 279.034031 
L 819.952547 279.034031 
" style="fill: none; stroke: #262626; stroke-width: 1.25; stroke-linejoin: miter; stroke-linecap: square"/>
   </g>
   <g id="text_32">
    <!-- Precision-Recall Curve -->
    <g style="fill: #262626" transform="translate(565.860609 16.774031) scale(0.126 -0.126)">
     <defs>
      <path id="DejaVuSans-Bold-50" d="M 588 4666 
L 2584 4666 
Q 3475 4666 3951 4270 
Q 4428 3875 4428 3144 
Q 4428 2409 3951 2014 
Q 3475 1619 2584 1619 
L 1791 1619 
L 1791 0 
L 588 0 
L 588 4666 
z
M 1791 3794 
L 1791 2491 
L 2456 2491 
Q 2806 2491 2997 2661 
Q 3188 2831 3188 3144 
Q 3188 3456 2997 3625 
Q 2806 3794 2456 3794 
L 1791 3794 
z
" transform="scale(0.015625)"/>
      <path id="DejaVuSans-Bold-63" d="M 3366 3391 
L 3366 2478 
Q 3138 2634 2908 2709 
Q 2678 2784 2431 2784 
Q 1963 2784 1702 2511 
Q 1441 2238 1441 1747 
Q 1441 1256 1702 982 
Q 1963 709 2431 709 
Q 2694 709 2930 787 
Q 3166 866 3366 1019 
L 3366 103 
Q 3103 6 2833 -42 
Q 2563 -91 2291 -91 
Q 1344 -91 809 395 
Q 275 881 275 1747 
Q 275 2613 809 3098 
Q 1344 3584 2291 3584 
Q 2566 3584 2833 3536 
Q 3100 3488 3366 3391 
z
" transform="scale(0.015625)"/>
      <path id="DejaVuSans-Bold-69" d="M 538 3500 
L 1656 3500 
L 1656 0 
L 538 0 
L 538 3500 
z
M 538 4863 
L 1656 4863 
L 1656 3950 
L 538 3950 
L 538 4863 
z
" transform="scale(0.015625)"/>
      <path id="DejaVuSans-Bold-73" d="M 3272 3391 
L 3272 2541 
Q 2913 2691 2578 2766 
Q 2244 2841 1947 2841 
Q 1628 2841 1473 2761 
Q 1319 2681 1319 2516 
Q 1319 2381 1436 2309 
Q 1553 2238 1856 2203 
L 2053 2175 
Q 2913 2066 3209 1816 
Q 3506 1566 3506 1031 
Q 3506 472 3093 190 
Q 2681 -91 1863 -91 
Q 1516 -91 1145 -36 
Q 775 19 384 128 
L 384 978 
Q 719 816 1070 734 
Q 1422 653 1784 653 
Q 2113 653 2278 743 
Q 2444 834 2444 1013 
Q 2444 1163 2330 1236 
Q 2216 1309 1875 1350 
L 1678 1375 
Q 931 1469 631 1722 
Q 331 1975 331 2491 
Q 331 3047 712 3315 
Q 1094 3584 1881 3584 
Q 2191 3584 2531 3537 
Q 2872 3491 3272 3391 
z
" transform="scale(0.015625)"/>
      <path id="DejaVuSans-Bold-6f" d="M 2203 2784 
Q 1831 2784 1636 2517 
Q 1441 2250 1441 1747 
Q 1441 1244 1636 976 
Q 1831 709 2203 709 
Q 2569 709 2762 976 
Q 2956 1244 2956 1747 
Q 2956 2250 2762 2517 
Q 2569 2784 2203 2784 
z
M 2203 3584 
Q 3106 3584 3614 3096 
Q 4122 2609 4122 1747 
Q 4122 884 3614 396 
Q 3106 -91 2203 -91 
Q 1297 -91 786 396 
Q 275 884 275 1747 
Q 275 2609 786 3096 
Q 1297 3584 2203 3584 
z
" transform="scale(0.015625)"/>
      <path id="DejaVuSans-Bold-6e" d="M 4056 2131 
L 4056 0 
L 2931 0 
L 2931 347 
L 2931 1631 
Q 2931 2084 2911 2256 
Q 2891 2428 2841 2509 
Q 2775 2619 2662 2680 
Q 2550 2741 2406 2741 
Q 2056 2741 1856 2470 
Q 1656 2200 1656 1722 
L 1656 0 
L 538 0 
L 538 3500 
L 1656 3500 
L 1656 2988 
Q 1909 3294 2193 3439 
Q 2478 3584 2822 3584 
Q 3428 3584 3742 3212 
Q 4056 2841 4056 2131 
z
" transform="scale(0.015625)"/>
      <path id="DejaVuSans-Bold-2d" d="M 347 2297 
L 2309 2297 
L 2309 1388 
L 347 1388 
L 347 2297 
z
" transform="scale(0.015625)"/>
      <path id="DejaVuSans-Bold-61" d="M 2106 1575 
Q 1756 1575 1579 1456 
Q 1403 1338 1403 1106 
Q 1403 894 1545 773 
Q 1688 653 1941 653 
Q 2256 653 2472 879 
Q 2688 1106 2688 1447 
L 2688 1575 
L 2106 1575 
z
M 3816 1997 
L 3816 0 
L 2688 0 
L 2688 519 
Q 2463 200 2181 54 
Q 1900 -91 1497 -91 
Q 953 -91 614 226 
Q 275 544 275 1050 
Q 275 1666 698 1953 
Q 1122 2241 2028 2241 
L 2688 2241 
L 2688 2328 
Q 2688 2594 2478 2717 
Q 2269 2841 1825 2841 
Q 1466 2841 1156 2769 
Q 847 2697 581 2553 
L 581 3406 
Q 941 3494 1303 3539 
Q 1666 3584 2028 3584 
Q 2975 3584 3395 3211 
Q 3816 2838 3816 1997 
z
" transform="scale(0.015625)"/>
      <path id="DejaVuSans-Bold-6c" d="M 538 4863 
L 1656 4863 
L 1656 0 
L 538 0 
L 538 4863 
z
" transform="scale(0.015625)"/>
     </defs>
     <use xlink:href="#DejaVuSans-Bold-50"/>
     <use xlink:href="#DejaVuSans-Bold-72" transform="translate(73.291016 0)"/>
     <use xlink:href="#DejaVuSans-Bold-65" transform="translate(122.607422 0)"/>
     <use xlink:href="#DejaVuSans-Bold-63" transform="translate(190.429688 0)"/>
     <use xlink:href="#DejaVuSans-Bold-69" transform="translate(249.707031 0)"/>
     <use xlink:href="#DejaVuSans-Bold-73" transform="translate(283.984375 0)"/>
     <use xlink:href="#DejaVuSans-Bold-69" transform="translate(343.505859 0)"/>
     <use xlink:href="#DejaVuSans-Bold-6f" transform="translate(377.783203 0)"/>
     <use xlink:href="#DejaVuSans-Bold-6e" transform="translate(446.484375 0)"/>
     <use xlink:href="#DejaVuSans-Bold-2d" transform="translate(517.675781 0)"/>
     <use xlink:href="#DejaVuSans-Bold-52" transform="translate(559.179688 0)"/>
     <use xlink:href="#DejaVuSans-Bold-65" transform="translate(636.181641 0)"/>
     <use xlink:href="#DejaVuSans-Bold-63" transform="translate(704.003906 0)"/>
     <use xlink:href="#DejaVuSans-Bold-61" transform="translate(763.28125 0)"/>
     <use xlink:href="#DejaVuSans-Bold-6c" transform="translate(830.761719 0)"/>
     <use xlink:href="#DejaVuSans-Bold-6c" transform="translate(865.039062 0)"/>
     <use xlink:href="#DejaVuSans-Bold-20" transform="translate(899.316406 0)"/>
     <use xlink:href="#DejaVuSans-Bold-43" transform="translate(934.130859 0)"/>
     <use xlink:href="#DejaVuSans-Bold-75" transform="translate(1007.519531 0)"/>
     <use xlink:href="#DejaVuSans-Bold-72" transform="translate(1078.710938 0)"/>
     <use xlink:href="#DejaVuSans-Bold-76" transform="translate(1128.027344 0)"/>
     <use xlink:href="#DejaVuSans-Bold-65" transform="translate(1193.212891 0)"/>
    </g>
   </g>
   <g id="legend_2">
    <g id="patch_9">
     <path d="M 476.962547 274.534031 
L 588.967547 274.534031 
Q 590.767547 274.534031 590.767547 272.734031 
L 590.767547 234.003094 
Q 590.767547 232.203094 588.967547 232.203094 
L 476.962547 232.203094 
Q 475.162547 232.203094 475.162547 234.003094 
L 475.162547 272.734031 
Q 475.162547 274.534031 476.962547 274.534031 
z
" style="fill: #ffffff; opacity: 0.8; stroke: #cccccc; stroke-linejoin: miter"/>
    </g>
    <g id="line2d_33">
     <path d="M 478.762547 239.491687 
L 487.762547 239.491687 
L 496.762547 239.491687 
" style="fill: none; stroke: #0279ee; stroke-width: 2; stroke-linecap: round"/>
    </g>
    <g id="text_33">
     <!-- v3 AUPRC=0.9328 -->
     <g style="fill: #262626" transform="translate(503.962547 242.641687) scale(0.09 -0.09)">
      <use xlink:href="#DejaVuSans-76"/>
      <use xlink:href="#DejaVuSans-33" transform="translate(59.179688 0)"/>
      <use xlink:href="#DejaVuSans-20" transform="translate(122.802734 0)"/>
      <use xlink:href="#DejaVuSans-41" transform="translate(154.589844 0)"/>
      <use xlink:href="#DejaVuSans-55" transform="translate(222.998047 0)"/>
      <use xlink:href="#DejaVuSans-50" transform="translate(296.191406 0)"/>
      <use xlink:href="#DejaVuSans-52" transform="translate(356.494141 0)"/>
      <use xlink:href="#DejaVuSans-43" transform="translate(420.976562 0)"/>
      <use xlink:href="#DejaVuSans-3d" transform="translate(490.800781 0)"/>
      <use xlink:href="#DejaVuSans-30" transform="translate(574.589844 0)"/>
      <use xlink:href="#DejaVuSans-2e" transform="translate(638.212891 0)"/>
      <use xlink:href="#DejaVuSans-39" transform="translate(670 0)"/>
      <use xlink:href="#DejaVuSans-33" transform="translate(733.623047 0)"/>
      <use xlink:href="#DejaVuSans-32" transform="translate(797.246094 0)"/>
      <use xlink:href="#DejaVuSans-38" transform="translate(860.869141 0)"/>
     </g>
    </g>
    <g id="line2d_34">
     <path d="M 478.762547 252.702 
L 487.762547 252.702 
L 496.762547 252.702 
" style="fill: none; stroke-dasharray: 7.4,3.2; stroke-dashoffset: 0; stroke: #ff9400; stroke-width: 2"/>
    </g>
    <g id="text_34">
     <!-- v2 AUPRC=0.9345 -->
     <g style="fill: #262626" transform="translate(503.962547 255.852) scale(0.09 -0.09)">
      <use xlink:href="#DejaVuSans-76"/>
      <use xlink:href="#DejaVuSans-32" transform="translate(59.179688 0)"/>
      <use xlink:href="#DejaVuSans-20" transform="translate(122.802734 0)"/>
      <use xlink:href="#DejaVuSans-41" transform="translate(154.589844 0)"/>
      <use xlink:href="#DejaVuSans-55" transform="translate(222.998047 0)"/>
      <use xlink:href="#DejaVuSans-50" transform="translate(296.191406 0)"/>
      <use xlink:href="#DejaVuSans-52" transform="translate(356.494141 0)"/>
      <use xlink:href="#DejaVuSans-43" transform="translate(420.976562 0)"/>
      <use xlink:href="#DejaVuSans-3d" transform="translate(490.800781 0)"/>
      <use xlink:href="#DejaVuSans-30" transform="translate(574.589844 0)"/>
      <use xlink:href="#DejaVuSans-2e" transform="translate(638.212891 0)"/>
      <use xlink:href="#DejaVuSans-39" transform="translate(670 0)"/>
      <use xlink:href="#DejaVuSans-33" transform="translate(733.623047 0)"/>
      <use xlink:href="#DejaVuSans-34" transform="translate(797.246094 0)"/>
      <use xlink:href="#DejaVuSans-35" transform="translate(860.869141 0)"/>
     </g>
    </g>
    <g id="line2d_35">
     <path d="M 478.762547 265.912312 
L 487.762547 265.912312 
L 496.762547 265.912312 
" style="fill: none; stroke-dasharray: 2.96,1.28; stroke-dashoffset: 0; stroke: #1a1a1a; stroke-opacity: 0.4; stroke-width: 0.8"/>
    </g>
    <g id="text_35">
     <!-- Baseline -->
     <g style="fill: #262626" transform="translate(503.962547 269.062312) scale(0.09 -0.09)">
      <defs>
       <path id="DejaVuSans-42" d="M 1259 2228 
L 1259 519 
L 2272 519 
Q 2781 519 3026 730 
Q 3272 941 3272 1375 
Q 3272 1813 3026 2020 
Q 2781 2228 2272 2228 
L 1259 2228 
z
M 1259 4147 
L 1259 2741 
L 2194 2741 
Q 2656 2741 2882 2914 
Q 3109 3088 3109 3444 
Q 3109 3797 2882 3972 
Q 2656 4147 2194 4147 
L 1259 4147 
z
M 628 4666 
L 2241 4666 
Q 2963 4666 3353 4366 
Q 3744 4066 3744 3513 
Q 3744 3084 3544 2831 
Q 3344 2578 2956 2516 
Q 3422 2416 3680 2098 
Q 3938 1781 3938 1306 
Q 3938 681 3513 340 
Q 3088 0 2303 0 
L 628 0 
L 628 4666 
z
" transform="scale(0.015625)"/>
      </defs>
      <use xlink:href="#DejaVuSans-42"/>
      <use xlink:href="#DejaVuSans-61" transform="translate(68.603516 0)"/>
      <use xlink:href="#DejaVuSans-73" transform="translate(129.882812 0)"/>
      <use xlink:href="#DejaVuSans-65" transform="translate(181.982422 0)"/>
      <use xlink:href="#DejaVuSans-6c" transform="translate(243.505859 0)"/>
      <use xlink:href="#DejaVuSans-69" transform="translate(271.289062 0)"/>
      <use xlink:href="#DejaVuSans-6e" transform="translate(299.072266 0)"/>
      <use xlink:href="#DejaVuSans-65" transform="translate(362.451172 0)"/>
     </g>
    </g>
   </g>
  </g>
 </g>
 <defs>
  <clipPath id="p28c8e9272e">
   <rect x="51.262547" y="22.774031" width="349.29" height="256.26"/>
  </clipPath>
  <clipPath id="pac2910ca30">
   <rect x="470.662547" y="22.774031" width="349.29" height="256.26"/>
  </clipPath>
 </defs>
</svg>
