<?xml version="1.0" encoding="utf-8" standalone="no"?>
<!DOCTYPE svg PUBLIC "-//W3C//DTD SVG 1.1//EN"
  "http://www.w3.org/Graphics/SVG/1.1/DTD/svg11.dtd">
<svg xmlns:xlink="http://www.w3.org/1999/xlink" width="779.235317pt" height="364.731875pt" viewBox="0 0 779.235317 364.731875" xmlns="http://www.w3.org/2000/svg" version="1.1">
 <metadata>
  <rdf:RDF xmlns:dc="http://purl.org/dc/elements/1.1/" xmlns:cc="http://creativecommons.org/ns#" xmlns:rdf="http://www.w3.org/1999/02/22-rdf-syntax-ns#">
   <cc:Work>
    <dc:type rdf:resource="http://purl.org/dc/dcmitype/StillImage"/>
    <dc:date>2026-03-05T02:58:57.557512</dc:date>
    <dc:format>image/svg+xml</dc:format>
    <dc:creator>
     <cc:Agent>
      <dc:title>Matplotlib v3.10.5, https://matplotlib.org/</dc:title>
     </cc:Agent>
    </dc:creator>
   </cc:Work>
  </rdf:RDF>
 </metadata>
 <defs>
  <style type="text/css">*{stroke-linejoin: round; stroke-linecap: butt}</style>
 </defs>
 <g id="figure_1">
  <g id="patch_1">
   <path d="M 0 364.731875 
L 779.235317 364.731875 
L 779.235317 -0 
L 0 -0 
z
" style="fill: #ffffff"/>
  </g>
  <g id="axes_1">
   <g id="patch_2">
    <path d="M 48.839375 322.74 
L 380.13976 322.74 
L 380.13976 64.32 
L 48.839375 64.32 
z
" style="fill: #ffffff"/>
   </g>
   <g id="matplotlib.axis_1">
    <g id="xtick_1">
     <g id="line2d_1">
      <defs>
       <path id="m764f6a78fa" d="M 0 0 
L 0 6 
" style="stroke: #262626; stroke-width: 1.25"/>
      </defs>
      <g>
       <use xlink:href="#m764f6a78fa" x="55.210536" y="322.74" style="fill: #262626; stroke: #262626; stroke-width: 1.25"/>
      </g>
     </g>
     <g id="text_1">
      <!-- 0.0 -->
      <g style="fill: #262626" transform="translate(46.463817 340.598281) scale(0.11 -0.11)">
       <defs>
        <path id="DejaVuSans-30" d="M 2034 4250 
Q 1547 4250 1301 3770 
Q 1056 3291 1056 2328 
Q 1056 1369 1301 889 
Q 1547 409 2034 409 
Q 2525 409 2770 889 
Q 3016 1369 3016 2328 
Q 3016 3291 2770 3770 
Q 2525 4250 2034 4250 
z
M 2034 4750 
Q 2819 4750 3233 4129 
Q 3647 3509 3647 2328 
Q 3647 1150 3233 529 
Q 2819 -91 2034 -91 
Q 1250 -91 836 529 
Q 422 1150 422 2328 
Q 422 3509 836 4129 
Q 1250 4750 2034 4750 
z
" transform="scale(0.015625)"/>
        <path id="DejaVuSans-2e" d="M 684 794 
L 1344 794 
L 1344 0 
L 684 0 
L 684 794 
z
" transform="scale(0.015625)"/>
       </defs>
       <use xlink:href="#DejaVuSans-30"/>
       <use xlink:href="#DejaVuSans-2e" transform="translate(63.623047 0)"/>
       <use xlink:href="#DejaVuSans-30" transform="translate(95.410156 0)"/>
      </g>
     </g>
    </g>
    <g id="xtick_2">
     <g id="line2d_2">
      <g>
       <use xlink:href="#m764f6a78fa" x="118.922149" y="322.74" style="fill: #262626; stroke: #262626; stroke-width: 1.25"/>
      </g>
     </g>
     <g id="text_2">
      <!-- 0.2 -->
      <g style="fill: #262626" transform="translate(110.17543 340.598281) scale(0.11 -0.11)">
       <defs>
        <path id="DejaVuSans-32" d="M 1228 531 
L 3431 531 
L 3431 0 
L 469 0 
L 469 531 
Q 828 903 1448 1529 
Q 2069 2156 2228 2338 
Q 2531 2678 2651 2914 
Q 2772 3150 2772 3378 
Q 2772 3750 2511 3984 
Q 2250 4219 1831 4219 
Q 1534 4219 1204 4116 
Q 875 4013 500 3803 
L 500 4441 
Q 881 4594 1212 4672 
Q 1544 4750 1819 4750 
Q 2544 4750 2975 4387 
Q 3406 4025 3406 3419 
Q 3406 3131 3298 2873 
Q 3191 2616 2906 2266 
Q 2828 2175 2409 1742 
Q 1991 1309 1228 531 
z
" transform="scale(0.015625)"/>
       </defs>
       <use xlink:href="#DejaVuSans-30"/>
       <use xlink:href="#DejaVuSans-2e" transform="translate(63.623047 0)"/>
       <use xlink:href="#DejaVuSans-32" transform="translate(95.410156 0)"/>
      </g>
     </g>
    </g>
    <g id="xtick_3">
     <g id="line2d_3">
      <g>
       <use xlink:href="#m764f6a78fa" x="182.633761" y="322.74" style="fill: #262626; stroke: #262626; stroke-width: 1.25"/>
      </g>
     </g>
     <g id="text_3">
      <!-- 0.4 -->
      <g style="fill: #262626" transform="translate(173.887042 340.598281) scale(0.11 -0.11)">
       <defs>
        <path id="DejaVuSans-34" d="M 2419 4116 
L 825 1625 
L 2419 1625 
L 2419 4116 
z
M 2253 4666 
L 3047 4666 
L 3047 1625 
L 3713 1625 
L 3713 1100 
L 3047 1100 
L 3047 0 
L 2419 0 
L 2419 1100 
L 313 1100 
L 313 1709 
L 2253 4666 
z
" transform="scale(0.015625)"/>
       </defs>
       <use xlink:href="#DejaVuSans-30"/>
       <use xlink:href="#DejaVuSans-2e" transform="translate(63.623047 0)"/>
       <use xlink:href="#DejaVuSans-34" transform="translate(95.410156 0)"/>
      </g>
     </g>
    </g>
    <g id="xtick_4">
     <g id="line2d_4">
      <g>
       <use xlink:href="#m764f6a78fa" x="246.345374" y="322.74" style="fill: #262626; stroke: #262626; stroke-width: 1.25"/>
      </g>
     </g>
     <g id="text_4">
      <!-- 0.6 -->
      <g style="fill: #262626" transform="translate(237.598655 340.598281) scale(0.11 -0.11)">
       <defs>
        <path id="DejaVuSans-36" d="M 2113 2584 
Q 1688 2584 1439 2293 
Q 1191 2003 1191 1497 
Q 1191 994 1439 701 
Q 1688 409 2113 409 
Q 2538 409 2786 701 
Q 3034 994 3034 1497 
Q 3034 2003 2786 2293 
Q 2538 2584 2113 2584 
z
M 3366 4563 
L 3366 3988 
Q 3128 4100 2886 4159 
Q 2644 4219 2406 4219 
Q 1781 4219 1451 3797 
Q 1122 3375 1075 2522 
Q 1259 2794 1537 2939 
Q 1816 3084 2150 3084 
Q 2853 3084 3261 2657 
Q 3669 2231 3669 1497 
Q 3669 778 3244 343 
Q 2819 -91 2113 -91 
Q 1303 -91 875 529 
Q 447 1150 447 2328 
Q 447 3434 972 4092 
Q 1497 4750 2381 4750 
Q 2619 4750 2861 4703 
Q 3103 4656 3366 4563 
z
" transform="scale(0.015625)"/>
       </defs>
       <use xlink:href="#DejaVuSans-30"/>
       <use xlink:href="#DejaVuSans-2e" transform="translate(63.623047 0)"/>
       <use xlink:href="#DejaVuSans-36" transform="translate(95.410156 0)"/>
      </g>
     </g>
    </g>
    <g id="xtick_5">
     <g id="line2d_5">
      <g>
       <use xlink:href="#m764f6a78fa" x="310.056986" y="322.74" style="fill: #262626; stroke: #262626; stroke-width: 1.25"/>
      </g>
     </g>
     <g id="text_5">
      <!-- 0.8 -->
      <g style="fill: #262626" transform="translate(301.310267 340.598281) scale(0.11 -0.11)">
       <defs>
        <path id="DejaVuSans-38" d="M 2034 2216 
Q 1584 2216 1326 1975 
Q 1069 1734 1069 1313 
Q 1069 891 1326 650 
Q 1584 409 2034 409 
Q 2484 409 2743 651 
Q 3003 894 3003 1313 
Q 3003 1734 2745 1975 
Q 2488 2216 2034 2216 
z
M 1403 2484 
Q 997 2584 770 2862 
Q 544 3141 544 3541 
Q 544 4100 942 4425 
Q 1341 4750 2034 4750 
Q 2731 4750 3128 4425 
Q 3525 4100 3525 3541 
Q 3525 3141 3298 2862 
Q 3072 2584 2669 2484 
Q 3125 2378 3379 2068 
Q 3634 1759 3634 1313 
Q 3634 634 3220 271 
Q 2806 -91 2034 -91 
Q 1263 -91 848 271 
Q 434 634 434 1313 
Q 434 1759 690 2068 
Q 947 2378 1403 2484 
z
M 1172 3481 
Q 1172 3119 1398 2916 
Q 1625 2713 2034 2713 
Q 2441 2713 2670 2916 
Q 2900 3119 2900 3481 
Q 2900 3844 2670 4047 
Q 2441 4250 2034 4250 
Q 1625 4250 1398 4047 
Q 1172 3844 1172 3481 
z
" transform="scale(0.015625)"/>
       </defs>
       <use xlink:href="#DejaVuSans-30"/>
       <use xlink:href="#DejaVuSans-2e" transform="translate(63.623047 0)"/>
       <use xlink:href="#DejaVuSans-38" transform="translate(95.410156 0)"/>
      </g>
     </g>
    </g>
    <g id="xtick_6">
     <g id="line2d_6">
      <g>
       <use xlink:href="#m764f6a78fa" x="373.768598" y="322.74" style="fill: #262626; stroke: #262626; stroke-width: 1.25"/>
      </g>
     </g>
     <g id="text_6">
      <!-- 1.0 -->
      <g style="fill: #262626" transform="translate(365.02188 340.598281) scale(0.11 -0.11)">
       <defs>
        <path id="DejaVuSans-31" d="M 794 531 
L 1825 531 
L 1825 4091 
L 703 3866 
L 703 4441 
L 1819 4666 
L 2450 4666 
L 2450 531 
L 3481 531 
L 3481 0 
L 794 0 
L 794 531 
z
" transform="scale(0.015625)"/>
       </defs>
       <use xlink:href="#DejaVuSans-31"/>
       <use xlink:href="#DejaVuSans-2e" transform="translate(63.623047 0)"/>
       <use xlink:href="#DejaVuSans-30" transform="translate(95.410156 0)"/>
      </g>
     </g>
    </g>
    <g id="text_7">
     <!-- False Positive Rate -->
     <g style="fill: #262626" transform="translate(163.37652 355.244219) scale(0.11 -0.11)">
      <defs>
       <path id="DejaVuSans-46" d="M 628 4666 
L 3309 4666 
L 3309 4134 
L 1259 4134 
L 1259 2759 
L 3109 2759 
L 3109 2228 
L 1259 2228 
L 1259 0 
L 628 0 
L 628 4666 
z
" transform="scale(0.015625)"/>
       <path id="DejaVuSans-61" d="M 2194 1759 
Q 1497 1759 1228 1600 
Q 959 1441 959 1056 
Q 959 750 1161 570 
Q 1363 391 1709 391 
Q 2188 391 2477 730 
Q 2766 1069 2766 1631 
L 2766 1759 
L 2194 1759 
z
M 3341 1997 
L 3341 0 
L 2766 0 
L 2766 531 
Q 2569 213 2275 61 
Q 1981 -91 1556 -91 
Q 1019 -91 701 211 
Q 384 513 384 1019 
Q 384 1609 779 1909 
Q 1175 2209 1959 2209 
L 2766 2209 
L 2766 2266 
Q 2766 2663 2505 2880 
Q 2244 3097 1772 3097 
Q 1472 3097 1187 3025 
Q 903 2953 641 2809 
L 641 3341 
Q 956 3463 1253 3523 
Q 1550 3584 1831 3584 
Q 2591 3584 2966 3190 
Q 3341 2797 3341 1997 
z
" transform="scale(0.015625)"/>
       <path id="DejaVuSans-6c" d="M 603 4863 
L 1178 4863 
L 1178 0 
L 603 0 
L 603 4863 
z
" transform="scale(0.015625)"/>
       <path id="DejaVuSans-73" d="M 2834 3397 
L 2834 2853 
Q 2591 2978 2328 3040 
Q 2066 3103 1784 3103 
Q 1356 3103 1142 2972 
Q 928 2841 928 2578 
Q 928 2378 1081 2264 
Q 1234 2150 1697 2047 
L 1894 2003 
Q 2506 1872 2764 1633 
Q 3022 1394 3022 966 
Q 3022 478 2636 193 
Q 2250 -91 1575 -91 
Q 1294 -91 989 -36 
Q 684 19 347 128 
L 347 722 
Q 666 556 975 473 
Q 1284 391 1588 391 
Q 1994 391 2212 530 
Q 2431 669 2431 922 
Q 2431 1156 2273 1281 
Q 2116 1406 1581 1522 
L 1381 1569 
Q 847 1681 609 1914 
Q 372 2147 372 2553 
Q 372 3047 722 3315 
Q 1072 3584 1716 3584 
Q 2034 3584 2315 3537 
Q 2597 3491 2834 3397 
z
" transform="scale(0.015625)"/>
       <path id="DejaVuSans-65" d="M 3597 1894 
L 3597 1613 
L 953 1613 
Q 991 1019 1311 708 
Q 1631 397 2203 397 
Q 2534 397 2845 478 
Q 3156 559 3463 722 
L 3463 178 
Q 3153 47 2828 -22 
Q 2503 -91 2169 -91 
Q 1331 -91 842 396 
Q 353 884 353 1716 
Q 353 2575 817 3079 
Q 1281 3584 2069 3584 
Q 2775 3584 3186 3129 
Q 3597 2675 3597 1894 
z
M 3022 2063 
Q 3016 2534 2758 2815 
Q 2500 3097 2075 3097 
Q 1594 3097 1305 2825 
Q 1016 2553 972 2059 
L 3022 2063 
z
" transform="scale(0.015625)"/>
       <path id="DejaVuSans-20" transform="scale(0.015625)"/>
       <path id="DejaVuSans-50" d="M 1259 4147 
L 1259 2394 
L 2053 2394 
Q 2494 2394 2734 2622 
Q 2975 2850 2975 3272 
Q 2975 3691 2734 3919 
Q 2494 4147 2053 4147 
L 1259 4147 
z
M 628 4666 
L 2053 4666 
Q 2838 4666 3239 4311 
Q 3641 3956 3641 3272 
Q 3641 2581 3239 2228 
Q 2838 1875 2053 1875 
L 1259 1875 
L 1259 0 
L 628 0 
L 628 4666 
z
" transform="scale(0.015625)"/>
       <path id="DejaVuSans-6f" d="M 1959 3097 
Q 1497 3097 1228 2736 
Q 959 2375 959 1747 
Q 959 1119 1226 758 
Q 1494 397 1959 397 
Q 2419 397 2687 759 
Q 2956 1122 2956 1747 
Q 2956 2369 2687 2733 
Q 2419 3097 1959 3097 
z
M 1959 3584 
Q 2709 3584 3137 3096 
Q 3566 2609 3566 1747 
Q 3566 888 3137 398 
Q 2709 -91 1959 -91 
Q 1206 -91 779 398 
Q 353 888 353 1747 
Q 353 2609 779 3096 
Q 1206 3584 1959 3584 
z
" transform="scale(0.015625)"/>
       <path id="DejaVuSans-69" d="M 603 3500 
L 1178 3500 
L 1178 0 
L 603 0 
L 603 3500 
z
M 603 4863 
L 1178 4863 
L 1178 4134 
L 603 4134 
L 603 4863 
z
" transform="scale(0.015625)"/>
       <path id="DejaVuSans-74" d="M 1172 4494 
L 1172 3500 
L 2356 3500 
L 2356 3053 
L 1172 3053 
L 1172 1153 
Q 1172 725 1289 603 
Q 1406 481 1766 481 
L 2356 481 
L 2356 0 
L 1766 0 
Q 1100 0 847 248 
Q 594 497 594 1153 
L 594 3053 
L 172 3053 
L 172 3500 
L 594 3500 
L 594 4494 
L 1172 4494 
z
" transform="scale(0.015625)"/>
       <path id="DejaVuSans-76" d="M 191 3500 
L 800 3500 
L 1894 563 
L 2988 3500 
L 3597 3500 
L 2284 0 
L 1503 0 
L 191 3500 
z
" transform="scale(0.015625)"/>
       <path id="DejaVuSans-52" d="M 2841 2188 
Q 3044 2119 3236 1894 
Q 3428 1669 3622 1275 
L 4263 0 
L 3584 0 
L 2988 1197 
Q 2756 1666 2539 1819 
Q 2322 1972 1947 1972 
L 1259 1972 
L 1259 0 
L 628 0 
L 628 4666 
L 2053 4666 
Q 2853 4666 3247 4331 
Q 3641 3997 3641 3322 
Q 3641 2881 3436 2590 
Q 3231 2300 2841 2188 
z
M 1259 4147 
L 1259 2491 
L 2053 2491 
Q 2509 2491 2742 2702 
Q 2975 2913 2975 3322 
Q 2975 3731 2742 3939 
Q 2509 4147 2053 4147 
L 1259 4147 
z
" transform="scale(0.015625)"/>
      </defs>
      <use xlink:href="#DejaVuSans-46"/>
      <use xlink:href="#DejaVuSans-61" transform="translate(48.394531 0)"/>
      <use xlink:href="#DejaVuSans-6c" transform="translate(109.673828 0)"/>
      <use xlink:href="#DejaVuSans-73" transform="translate(137.457031 0)"/>
      <use xlink:href="#DejaVuSans-65" transform="translate(189.556641 0)"/>
      <use xlink:href="#DejaVuSans-20" transform="translate(251.080078 0)"/>
      <use xlink:href="#DejaVuSans-50" transform="translate(282.867188 0)"/>
      <use xlink:href="#DejaVuSans-6f" transform="translate(339.544922 0)"/>
      <use xlink:href="#DejaVuSans-73" transform="translate(400.726562 0)"/>
      <use xlink:href="#DejaVuSans-69" transform="translate(452.826172 0)"/>
      <use xlink:href="#DejaVuSans-74" transform="translate(480.609375 0)"/>
      <use xlink:href="#DejaVuSans-69" transform="translate(519.818359 0)"/>
      <use xlink:href="#DejaVuSans-76" transform="translate(547.601562 0)"/>
      <use xlink:href="#DejaVuSans-65" transform="translate(606.78125 0)"/>
      <use xlink:href="#DejaVuSans-20" transform="translate(668.304688 0)"/>
      <use xlink:href="#DejaVuSans-52" transform="translate(700.091797 0)"/>
      <use xlink:href="#DejaVuSans-61" transform="translate(767.324219 0)"/>
      <use xlink:href="#DejaVuSans-74" transform="translate(828.603516 0)"/>
      <use xlink:href="#DejaVuSans-65" transform="translate(867.8125 0)"/>
     </g>
    </g>
   </g>
   <g id="matplotlib.axis_2">
    <g id="ytick_1">
     <g id="line2d_7">
      <defs>
       <path id="m8c7f3987b3" d="M 0 0 
L -6 0 
" style="stroke: #262626; stroke-width: 1.25"/>
      </defs>
      <g>
       <use xlink:href="#m8c7f3987b3" x="48.839375" y="317.770385" style="fill: #262626; stroke: #262626; stroke-width: 1.25"/>
      </g>
     </g>
     <g id="text_8">
      <!-- 0.0 -->
      <g style="fill: #262626" transform="translate(21.845938 321.949525) scale(0.11 -0.11)">
       <use xlink:href="#DejaVuSans-30"/>
       <use xlink:href="#DejaVuSans-2e" transform="translate(63.623047 0)"/>
       <use xlink:href="#DejaVuSans-30" transform="translate(95.410156 0)"/>
      </g>
     </g>
    </g>
    <g id="ytick_2">
     <g id="line2d_8">
      <g>
       <use xlink:href="#m8c7f3987b3" x="48.839375" y="268.074231" style="fill: #262626; stroke: #262626; stroke-width: 1.25"/>
      </g>
     </g>
     <g id="text_9">
      <!-- 0.2 -->
      <g style="fill: #262626" transform="translate(21.845938 272.253371) scale(0.11 -0.11)">
       <use xlink:href="#DejaVuSans-30"/>
       <use xlink:href="#DejaVuSans-2e" transform="translate(63.623047 0)"/>
       <use xlink:href="#DejaVuSans-32" transform="translate(95.410156 0)"/>
      </g>
     </g>
    </g>
    <g id="ytick_3">
     <g id="line2d_9">
      <g>
       <use xlink:href="#m8c7f3987b3" x="48.839375" y="218.378077" style="fill: #262626; stroke: #262626; stroke-width: 1.25"/>
      </g>
     </g>
     <g id="text_10">
      <!-- 0.4 -->
      <g style="fill: #262626" transform="translate(21.845938 222.557218) scale(0.11 -0.11)">
       <use xlink:href="#DejaVuSans-30"/>
       <use xlink:href="#DejaVuSans-2e" transform="translate(63.623047 0)"/>
       <use xlink:href="#DejaVuSans-34" transform="translate(95.410156 0)"/>
      </g>
     </g>
    </g>
    <g id="ytick_4">
     <g id="line2d_10">
      <g>
       <use xlink:href="#m8c7f3987b3" x="48.839375" y="168.681923" style="fill: #262626; stroke: #262626; stroke-width: 1.25"/>
      </g>
     </g>
     <g id="text_11">
      <!-- 0.6 -->
      <g style="fill: #262626" transform="translate(21.845938 172.861064) scale(0.11 -0.11)">
       <use xlink:href="#DejaVuSans-30"/>
       <use xlink:href="#DejaVuSans-2e" transform="translate(63.623047 0)"/>
       <use xlink:href="#DejaVuSans-36" transform="translate(95.410156 0)"/>
      </g>
     </g>
    </g>
    <g id="ytick_5">
     <g id="line2d_11">
      <g>
       <use xlink:href="#m8c7f3987b3" x="48.839375" y="118.985769" style="fill: #262626; stroke: #262626; stroke-width: 1.25"/>
      </g>
     </g>
     <g id="text_12">
      <!-- 0.8 -->
      <g style="fill: #262626" transform="translate(21.845938 123.16491) scale(0.11 -0.11)">
       <use xlink:href="#DejaVuSans-30"/>
       <use xlink:href="#DejaVuSans-2e" transform="translate(63.623047 0)"/>
       <use xlink:href="#DejaVuSans-38" transform="translate(95.410156 0)"/>
      </g>
     </g>
    </g>
    <g id="ytick_6">
     <g id="line2d_12">
      <g>
       <use xlink:href="#m8c7f3987b3" x="48.839375" y="69.289615" style="fill: #262626; stroke: #262626; stroke-width: 1.25"/>
      </g>
     </g>
     <g id="text_13">
      <!-- 1.0 -->
      <g style="fill: #262626" transform="translate(21.845938 73.468756) scale(0.11 -0.11)">
       <use xlink:href="#DejaVuSans-31"/>
       <use xlink:href="#DejaVuSans-2e" transform="translate(63.623047 0)"/>
       <use xlink:href="#DejaVuSans-30" transform="translate(95.410156 0)"/>
      </g>
     </g>
    </g>
    <g id="text_14">
     <!-- True Positive Rate -->
     <g style="fill: #262626" transform="translate(15.558281 242.512656) rotate(-90) scale(0.11 -0.11)">
      <defs>
       <path id="DejaVuSans-54" d="M -19 4666 
L 3928 4666 
L 3928 4134 
L 2272 4134 
L 2272 0 
L 1638 0 
L 1638 4134 
L -19 4134 
L -19 4666 
z
" transform="scale(0.015625)"/>
       <path id="DejaVuSans-72" d="M 2631 2963 
Q 2534 3019 2420 3045 
Q 2306 3072 2169 3072 
Q 1681 3072 1420 2755 
Q 1159 2438 1159 1844 
L 1159 0 
L 581 0 
L 581 3500 
L 1159 3500 
L 1159 2956 
Q 1341 3275 1631 3429 
Q 1922 3584 2338 3584 
Q 2397 3584 2469 3576 
Q 2541 3569 2628 3553 
L 2631 2963 
z
" transform="scale(0.015625)"/>
       <path id="DejaVuSans-75" d="M 544 1381 
L 544 3500 
L 1119 3500 
L 1119 1403 
Q 1119 906 1312 657 
Q 1506 409 1894 409 
Q 2359 409 2629 706 
Q 2900 1003 2900 1516 
L 2900 3500 
L 3475 3500 
L 3475 0 
L 2900 0 
L 2900 538 
Q 2691 219 2414 64 
Q 2138 -91 1772 -91 
Q 1169 -91 856 284 
Q 544 659 544 1381 
z
M 1991 3584 
L 1991 3584 
z
" transform="scale(0.015625)"/>
      </defs>
      <use xlink:href="#DejaVuSans-54"/>
      <use xlink:href="#DejaVuSans-72" transform="translate(46.333984 0)"/>
      <use xlink:href="#DejaVuSans-75" transform="translate(87.447266 0)"/>
      <use xlink:href="#DejaVuSans-65" transform="translate(150.826172 0)"/>
      <use xlink:href="#DejaVuSans-20" transform="translate(212.349609 0)"/>
      <use xlink:href="#DejaVuSans-50" transform="translate(244.136719 0)"/>
      <use xlink:href="#DejaVuSans-6f" transform="translate(300.814453 0)"/>
      <use xlink:href="#DejaVuSans-73" transform="translate(361.996094 0)"/>
      <use xlink:href="#DejaVuSans-69" transform="translate(414.095703 0)"/>
      <use xlink:href="#DejaVuSans-74" transform="translate(441.878906 0)"/>
      <use xlink:href="#DejaVuSans-69" transform="translate(481.087891 0)"/>
      <use xlink:href="#DejaVuSans-76" transform="translate(508.871094 0)"/>
      <use xlink:href="#DejaVuSans-65" transform="translate(568.050781 0)"/>
      <use xlink:href="#DejaVuSans-20" transform="translate(629.574219 0)"/>
      <use xlink:href="#DejaVuSans-52" transform="translate(661.361328 0)"/>
      <use xlink:href="#DejaVuSans-61" transform="translate(728.59375 0)"/>
      <use xlink:href="#DejaVuSans-74" transform="translate(789.873047 0)"/>
      <use xlink:href="#DejaVuSans-65" transform="translate(829.082031 0)"/>
     </g>
    </g>
   </g>
   <g id="line2d_13">
    <path d="M 55.210536 317.770385 
L 55.210536 282.237635 
L 55.529094 282.237635 
L 55.529094 266.334865 
L 55.847652 266.334865 
L 55.847652 247.201846 
L 56.16621 247.201846 
L 56.16621 232.293 
L 56.484768 232.293 
L 56.484768 222.353769 
L 56.803327 222.353769 
L 56.803327 190.796712 
L 57.121885 190.796712 
L 57.121885 183.342288 
L 57.440443 183.342288 
L 57.440443 181.851404 
L 57.759001 181.851404 
L 57.759001 170.669769 
L 58.077559 170.669769 
L 58.077559 170.172808 
L 58.714675 170.172808 
L 58.714675 159.985096 
L 59.033233 159.985096 
L 59.033233 157.500288 
L 59.351791 157.500288 
L 59.351791 156.754846 
L 59.670349 156.754846 
L 59.670349 155.015481 
L 59.988907 155.015481 
L 59.988907 154.270038 
L 60.307465 154.270038 
L 60.307465 151.785231 
L 60.626023 151.785231 
L 60.626023 148.803462 
L 60.944581 148.803462 
L 60.944581 148.3065 
L 61.263139 148.3065 
L 61.263139 147.561058 
L 61.581697 147.561058 
L 61.581697 147.312577 
L 61.900256 147.312577 
L 61.900256 144.827769 
L 62.218814 144.827769 
L 62.218814 144.082327 
L 62.537372 144.082327 
L 62.537372 143.833846 
L 62.85593 143.833846 
L 62.85593 142.094481 
L 63.174488 142.094481 
L 63.174488 141.597519 
L 63.493046 141.597519 
L 63.493046 140.852077 
L 63.811604 140.852077 
L 63.811604 137.621827 
L 64.130162 137.621827 
L 64.130162 130.167404 
L 64.767278 130.167404 
L 64.767278 128.925 
L 65.085836 128.925 
L 65.085836 128.428038 
L 65.404394 128.428038 
L 65.404394 126.440192 
L 65.722952 126.440192 
L 65.722952 125.943231 
L 66.04151 125.943231 
L 66.04151 123.955385 
L 66.360068 123.955385 
L 66.360068 123.458423 
L 66.678626 123.458423 
L 66.678626 120.725135 
L 66.997185 120.725135 
L 66.997185 119.23425 
L 67.315743 119.23425 
L 67.315743 118.985769 
L 67.634301 118.985769 
L 67.634301 116.997923 
L 67.952859 116.997923 
L 67.952859 115.755519 
L 68.271417 115.755519 
L 68.271417 115.258558 
L 68.908533 115.258558 
L 68.908533 114.761596 
L 69.227091 114.761596 
L 69.227091 114.016154 
L 69.545649 114.016154 
L 69.545649 113.767673 
L 69.864207 113.767673 
L 69.864207 113.270712 
L 70.182765 113.270712 
L 70.182765 111.531346 
L 70.501323 111.531346 
L 70.501323 110.785904 
L 70.819881 110.785904 
L 70.819881 110.288942 
L 71.138439 110.288942 
L 71.138439 109.791981 
L 71.456997 109.791981 
L 71.456997 108.798058 
L 71.775555 108.798058 
L 71.775555 108.052615 
L 72.094114 108.052615 
L 72.094114 107.307173 
L 72.412672 107.307173 
L 72.412672 106.810212 
L 73.049788 106.810212 
L 73.049788 106.064769 
L 74.005462 106.064769 
L 74.005462 105.319327 
L 75.91681 105.319327 
L 75.91681 104.822365 
L 76.235368 104.822365 
L 76.235368 104.325404 
L 76.553926 104.325404 
L 76.553926 104.076923 
L 77.191043 104.076923 
L 77.191043 103.828442 
L 78.783833 103.828442 
L 78.783833 103.083 
L 79.102391 103.083 
L 79.102391 100.598192 
L 79.739507 100.598192 
L 79.739507 100.349712 
L 80.058065 100.349712 
L 80.058065 100.101231 
L 80.376623 100.101231 
L 80.376623 99.355788 
L 80.695181 99.355788 
L 80.695181 99.107308 
L 82.287972 99.107308 
L 82.287972 98.858827 
L 83.562204 98.858827 
L 83.562204 97.864904 
L 84.517878 97.864904 
L 84.517878 97.616423 
L 84.836436 97.616423 
L 84.836436 97.367942 
L 85.154994 97.367942 
L 85.154994 97.119462 
L 85.473552 97.119462 
L 85.473552 96.374019 
L 86.429226 96.374019 
L 86.429226 96.125538 
L 87.066342 96.125538 
L 87.066342 95.131615 
L 88.340575 95.131615 
L 88.340575 94.386173 
L 88.659133 94.386173 
L 88.659133 93.889212 
L 89.933365 93.889212 
L 89.933365 92.646808 
L 91.207597 92.646808 
L 91.207597 92.398327 
L 91.844713 92.398327 
L 91.844713 92.149846 
L 92.48183 92.149846 
L 92.48183 91.652885 
L 93.437504 91.652885 
L 93.437504 91.404404 
L 94.07462 91.404404 
L 94.07462 90.658962 
L 96.304526 90.658962 
L 96.304526 88.919596 
L 96.623084 88.919596 
L 96.623084 87.925673 
L 96.941642 87.925673 
L 96.941642 87.677192 
L 97.2602 87.677192 
L 97.2602 87.428712 
L 97.578759 87.428712 
L 97.578759 87.180231 
L 97.897317 87.180231 
L 97.897317 86.93175 
L 98.534433 86.93175 
L 98.534433 86.683269 
L 99.490107 86.683269 
L 99.490107 85.937827 
L 100.127223 85.937827 
L 100.127223 85.689346 
L 100.764339 85.689346 
L 100.764339 85.440865 
L 101.720013 85.440865 
L 101.720013 85.192385 
L 102.675687 85.192385 
L 102.675687 84.695423 
L 103.312804 84.695423 
L 103.312804 84.446942 
L 103.631362 84.446942 
L 103.631362 83.453019 
L 104.587036 83.453019 
L 104.587036 83.204538 
L 105.54271 83.204538 
L 105.54271 82.956058 
L 107.1355 82.956058 
L 107.1355 82.707577 
L 108.728291 82.707577 
L 108.728291 82.459096 
L 110.958197 82.459096 
L 110.958197 82.210615 
L 111.913871 82.210615 
L 111.913871 81.713654 
L 112.232429 81.713654 
L 112.232429 81.465173 
L 113.506662 81.465173 
L 113.506662 80.968212 
L 113.82522 80.968212 
L 113.82522 80.719731 
L 114.780894 80.719731 
L 114.780894 80.47125 
L 115.099452 80.47125 
L 115.099452 79.725808 
L 115.41801 79.725808 
L 115.41801 79.477327 
L 115.736568 79.477327 
L 115.736568 79.228846 
L 116.055126 79.228846 
L 116.055126 78.980365 
L 116.692242 78.980365 
L 116.692242 78.731885 
L 117.0108 78.731885 
L 117.0108 78.483404 
L 117.647916 78.483404 
L 117.647916 78.234923 
L 118.922149 78.234923 
L 118.922149 77.986442 
L 119.877823 77.986442 
L 119.877823 77.489481 
L 120.833497 77.489481 
L 120.833497 77.241 
L 122.426287 77.241 
L 122.426287 76.992519 
L 124.337636 76.992519 
L 124.337636 76.744038 
L 125.611868 76.744038 
L 125.611868 76.495558 
L 129.116007 76.495558 
L 129.116007 76.247077 
L 137.079958 76.247077 
L 137.079958 75.998596 
L 138.035632 75.998596 
L 138.035632 75.750115 
L 138.672749 75.750115 
L 138.672749 75.501635 
L 139.309865 75.501635 
L 139.309865 75.253154 
L 140.584097 75.253154 
L 140.584097 75.004673 
L 140.902655 75.004673 
L 140.902655 74.756192 
L 144.088236 74.756192 
L 144.088236 74.259231 
L 145.999584 74.259231 
L 145.999584 74.01075 
L 147.273816 74.01075 
L 147.273816 73.762269 
L 149.822281 73.762269 
L 149.822281 73.513788 
L 150.140839 73.513788 
L 150.140839 73.265308 
L 150.459397 73.265308 
L 150.459397 73.016827 
L 151.733629 73.016827 
L 151.733629 72.768346 
L 154.600652 72.768346 
L 154.600652 72.519865 
L 160.334697 72.519865 
L 160.334697 72.271385 
L 160.653255 72.271385 
L 160.653255 72.022904 
L 163.201719 72.022904 
L 163.201719 71.774423 
L 164.475952 71.774423 
L 164.475952 71.525942 
L 174.988368 71.525942 
L 174.988368 71.277462 
L 182.315203 71.277462 
L 182.315203 71.028981 
L 190.279155 71.028981 
L 190.279155 70.7805 
L 191.871945 70.7805 
L 191.871945 70.532019 
L 198.243106 70.532019 
L 198.243106 70.283538 
L 248.893838 70.283538 
L 248.893838 70.035058 
L 297.314663 70.035058 
L 297.314663 69.786577 
L 352.743766 69.786577 
L 352.743766 69.538096 
L 365.167531 69.538096 
L 365.167531 69.289615 
L 373.768598 69.289615 
L 373.768598 69.289615 
" clip-path="url(#p9cda52ab61)" style="fill: none; stroke: #ff9400; stroke-width: 2.5; stroke-linecap: round"/>
   </g>
   <g id="line2d_14">
    <path d="M 55.210536 317.770385 
L 55.210536 302.116096 
L 55.529094 302.116096 
L 55.529094 297.891923 
L 55.847652 297.891923 
L 55.847652 272.049923 
L 56.16621 272.049923 
L 56.16621 252.668423 
L 56.484768 252.668423 
L 56.484768 226.080981 
L 56.803327 226.080981 
L 56.803327 220.117442 
L 57.121885 220.117442 
L 57.121885 218.626558 
L 57.440443 218.626558 
L 57.440443 217.881115 
L 57.759001 217.881115 
L 57.759001 215.893269 
L 58.077559 215.893269 
L 58.077559 214.899346 
L 58.396117 214.899346 
L 58.396117 206.947962 
L 58.714675 206.947962 
L 58.714675 201.232904 
L 59.033233 201.232904 
L 59.033233 199.742019 
L 59.351791 199.742019 
L 59.351791 193.53 
L 59.670349 193.53 
L 59.670349 190.796712 
L 59.988907 190.796712 
L 59.988907 187.317981 
L 60.307465 187.317981 
L 60.307465 185.578615 
L 60.944581 185.578615 
L 60.944581 185.081654 
L 61.581697 185.081654 
L 61.581697 184.833173 
L 61.900256 184.833173 
L 61.900256 183.093808 
L 62.218814 183.093808 
L 62.218814 180.857481 
L 62.537372 180.857481 
L 62.537372 177.627231 
L 62.85593 177.627231 
L 62.85593 177.37875 
L 63.174488 177.37875 
L 63.174488 176.384827 
L 63.493046 176.384827 
L 63.493046 175.390904 
L 63.811604 175.390904 
L 63.811604 168.930404 
L 64.130162 168.930404 
L 64.130162 168.184962 
L 64.44872 168.184962 
L 64.44872 164.706231 
L 64.767278 164.706231 
L 64.767278 162.966865 
L 65.085836 162.966865 
L 65.085836 162.718385 
L 65.404394 162.718385 
L 65.404394 161.724462 
L 66.04151 161.724462 
L 66.04151 160.730538 
L 66.678626 160.730538 
L 66.678626 160.233577 
L 66.997185 160.233577 
L 66.997185 159.736615 
L 67.315743 159.736615 
L 67.315743 156.754846 
L 67.634301 156.754846 
L 67.634301 156.257885 
L 67.952859 156.257885 
L 67.952859 154.021558 
L 68.589975 154.021558 
L 68.589975 153.027635 
L 68.908533 153.027635 
L 68.908533 152.779154 
L 69.227091 152.779154 
L 69.227091 152.282192 
L 69.545649 152.282192 
L 69.545649 148.803462 
L 69.864207 148.803462 
L 69.864207 148.554981 
L 70.182765 148.554981 
L 70.182765 145.324731 
L 70.501323 145.324731 
L 70.501323 144.579288 
L 70.819881 144.579288 
L 70.819881 141.597519 
L 71.138439 141.597519 
L 71.138439 140.106635 
L 71.456997 140.106635 
L 71.456997 139.609673 
L 72.094114 139.609673 
L 72.094114 137.870308 
L 72.412672 137.870308 
L 72.412672 136.379423 
L 72.73123 136.379423 
L 72.73123 135.3855 
L 73.049788 135.3855 
L 73.049788 134.888538 
L 73.368346 134.888538 
L 73.368346 133.894615 
L 73.686904 133.894615 
L 73.686904 132.652212 
L 74.005462 132.652212 
L 74.005462 132.403731 
L 74.32402 132.403731 
L 74.32402 131.906769 
L 74.642578 131.906769 
L 74.642578 131.161327 
L 74.961136 131.161327 
L 74.961136 130.664365 
L 75.279694 130.664365 
L 75.279694 128.925 
L 75.598252 128.925 
L 75.598252 128.428038 
L 75.91681 128.428038 
L 75.91681 127.185635 
L 76.553926 127.185635 
L 76.553926 126.191712 
L 77.191043 126.191712 
L 77.191043 124.452346 
L 77.509601 124.452346 
L 77.509601 122.712981 
L 77.828159 122.712981 
L 77.828159 120.228173 
L 78.146717 120.228173 
L 78.146717 118.737288 
L 78.465275 118.737288 
L 78.465275 118.488808 
L 78.783833 118.488808 
L 78.783833 117.991846 
L 79.102391 117.991846 
L 79.102391 117.494885 
L 79.739507 117.494885 
L 79.739507 117.246404 
L 80.376623 117.246404 
L 80.376623 116.749442 
L 80.695181 116.749442 
L 80.695181 116.004 
L 81.013739 116.004 
L 81.013739 115.258558 
L 81.332297 115.258558 
L 81.332297 113.767673 
L 81.650855 113.767673 
L 81.650855 113.270712 
L 81.969413 113.270712 
L 81.969413 112.525269 
L 82.287972 112.525269 
L 82.287972 111.282865 
L 82.60653 111.282865 
L 82.60653 111.034385 
L 82.925088 111.034385 
L 82.925088 110.288942 
L 83.243646 110.288942 
L 83.243646 109.046538 
L 83.562204 109.046538 
L 83.562204 107.804135 
L 83.880762 107.804135 
L 83.880762 107.555654 
L 84.19932 107.555654 
L 84.19932 107.058692 
L 84.517878 107.058692 
L 84.517878 106.810212 
L 85.154994 106.810212 
L 85.154994 106.31325 
L 85.473552 106.31325 
L 85.473552 105.816288 
L 85.79211 105.816288 
L 85.79211 105.567808 
L 86.747784 105.567808 
L 86.747784 105.070846 
L 87.066342 105.070846 
L 87.066342 104.822365 
L 87.384901 104.822365 
L 87.384901 104.573885 
L 87.703459 104.573885 
L 87.703459 104.076923 
L 88.022017 104.076923 
L 88.022017 103.828442 
L 88.659133 103.828442 
L 88.659133 103.331481 
L 89.614807 103.331481 
L 89.614807 102.834519 
L 89.933365 102.834519 
L 89.933365 102.089077 
L 90.570481 102.089077 
L 90.570481 101.095154 
L 90.889039 101.095154 
L 90.889039 100.101231 
L 91.844713 100.101231 
L 91.844713 99.604269 
L 92.163271 99.604269 
L 92.163271 99.355788 
L 92.800388 99.355788 
L 92.800388 98.858827 
L 93.756062 98.858827 
L 93.756062 98.610346 
L 94.07462 98.610346 
L 94.07462 98.361865 
L 94.393178 98.361865 
L 94.393178 96.870981 
L 95.348852 96.870981 
L 95.348852 95.380096 
L 96.623084 95.380096 
L 96.623084 94.137692 
L 97.578759 94.137692 
L 97.578759 93.889212 
L 97.897317 93.889212 
L 97.897317 93.39225 
L 98.215875 93.39225 
L 98.215875 93.143769 
L 98.852991 93.143769 
L 98.852991 92.895288 
L 99.490107 92.895288 
L 99.490107 92.646808 
L 100.127223 92.646808 
L 100.127223 92.149846 
L 101.082897 92.149846 
L 101.082897 91.901365 
L 101.401455 91.901365 
L 101.401455 91.155923 
L 102.994246 91.155923 
L 102.994246 90.907442 
L 104.587036 90.907442 
L 104.587036 90.658962 
L 104.905594 90.658962 
L 104.905594 90.162 
L 105.224152 90.162 
L 105.224152 89.665038 
L 105.861268 89.665038 
L 105.861268 89.416558 
L 106.816942 89.416558 
L 106.816942 89.168077 
L 107.454058 89.168077 
L 107.454058 88.919596 
L 108.409733 88.919596 
L 108.409733 88.422635 
L 108.728291 88.422635 
L 108.728291 87.925673 
L 110.639639 87.925673 
L 110.639639 87.677192 
L 111.595313 87.677192 
L 111.595313 87.428712 
L 111.913871 87.428712 
L 111.913871 87.180231 
L 112.232429 87.180231 
L 112.232429 86.93175 
L 113.506662 86.93175 
L 113.506662 86.683269 
L 113.82522 86.683269 
L 113.82522 86.434788 
L 114.143778 86.434788 
L 114.143778 86.186308 
L 114.780894 86.186308 
L 114.780894 85.937827 
L 115.099452 85.937827 
L 115.099452 85.689346 
L 115.41801 85.689346 
L 115.41801 84.943904 
L 116.692242 84.943904 
L 116.692242 84.695423 
L 117.329358 84.695423 
L 117.329358 84.446942 
L 117.647916 84.446942 
L 117.647916 83.949981 
L 120.196381 83.949981 
L 120.196381 83.7015 
L 121.152055 83.7015 
L 121.152055 83.204538 
L 122.426287 83.204538 
L 122.426287 82.956058 
L 123.063403 82.956058 
L 123.063403 82.707577 
L 124.019078 82.707577 
L 124.019078 82.459096 
L 124.656194 82.459096 
L 124.656194 81.713654 
L 125.611868 81.713654 
L 125.611868 81.465173 
L 127.523216 81.465173 
L 127.523216 80.968212 
L 127.841774 80.968212 
L 127.841774 80.719731 
L 130.708797 80.719731 
L 130.708797 80.47125 
L 131.027355 80.47125 
L 131.027355 79.974288 
L 131.345913 79.974288 
L 131.345913 79.725808 
L 136.7614 79.725808 
L 136.7614 79.477327 
L 137.079958 79.477327 
L 137.079958 78.980365 
L 138.672749 78.980365 
L 138.672749 78.731885 
L 140.265539 78.731885 
L 140.265539 78.483404 
L 141.858329 78.483404 
L 141.858329 78.234923 
L 142.814003 78.234923 
L 142.814003 77.489481 
L 146.955258 77.489481 
L 146.955258 77.241 
L 148.22949 77.241 
L 148.22949 76.744038 
L 148.866607 76.744038 
L 148.866607 76.495558 
L 150.140839 76.495558 
L 150.140839 76.247077 
L 151.733629 76.247077 
L 151.733629 75.998596 
L 152.370745 75.998596 
L 152.370745 75.750115 
L 153.007861 75.750115 
L 153.007861 75.501635 
L 153.963536 75.501635 
L 153.963536 75.253154 
L 160.334697 75.253154 
L 160.334697 74.756192 
L 163.520277 74.756192 
L 163.520277 74.507712 
L 164.79451 74.507712 
L 164.79451 74.01075 
L 169.254322 74.01075 
L 169.254322 73.513788 
L 171.484229 73.513788 
L 171.484229 73.265308 
L 173.395577 73.265308 
L 173.395577 73.016827 
L 173.714135 73.016827 
L 173.714135 72.768346 
L 176.2626 72.768346 
L 176.2626 72.519865 
L 178.811064 72.519865 
L 178.811064 72.271385 
L 185.182226 72.271385 
L 185.182226 72.022904 
L 188.367806 72.022904 
L 188.367806 71.774423 
L 191.871945 71.774423 
L 191.871945 71.525942 
L 199.517338 71.525942 
L 199.517338 71.277462 
L 208.436964 71.277462 
L 208.436964 71.028981 
L 214.808125 71.028981 
L 214.808125 70.7805 
L 240.611328 70.7805 
L 240.611328 70.532019 
L 276.608389 70.532019 
L 276.608389 70.283538 
L 277.564064 70.283538 
L 277.564064 70.035058 
L 321.525076 70.035058 
L 321.525076 69.786577 
L 323.754983 69.786577 
L 323.754983 69.538096 
L 332.037492 69.538096 
L 332.037492 69.289615 
L 373.768598 69.289615 
L 373.768598 69.289615 
" clip-path="url(#p9cda52ab61)" style="fill: none; stroke-dasharray: 7.4,3.2; stroke-dashoffset: 0; stroke: #0279ee; stroke-width: 2"/>
   </g>
   <g id="line2d_15">
    <path d="M 55.210536 317.770385 
L 373.768598 69.289615 
" clip-path="url(#p9cda52ab61)" style="fill: none; stroke-dasharray: 3.7,1.6; stroke-dashoffset: 0; stroke: #1a1a1a; stroke-opacity: 0.3"/>
   </g>
   <g id="patch_3">
    <path d="M 48.839375 322.74 
L 48.839375 64.32 
" style="fill: none; stroke: #262626; stroke-width: 1.25; stroke-linejoin: miter; stroke-linecap: square"/>
   </g>
   <g id="patch_4">
    <path d="M 380.13976 322.74 
L 380.13976 64.32 
" style="fill: none; stroke: #262626; stroke-width: 1.25; stroke-linejoin: miter; stroke-linecap: square"/>
   </g>
   <g id="patch_5">
    <path d="M 48.839375 322.74 
L 380.13976 322.74 
" style="fill: none; stroke: #262626; stroke-width: 1.25; stroke-linejoin: miter; stroke-linecap: square"/>
   </g>
   <g id="patch_6">
    <path d="M 48.839375 64.32 
L 380.13976 64.32 
" style="fill: none; stroke: #262626; stroke-width: 1.25; stroke-linejoin: miter; stroke-linecap: square"/>
   </g>
   <g id="text_15">
    <!-- ROC Curve -->
    <g style="fill: #262626" transform="translate(178.662067 58.32) scale(0.12 -0.12)">
     <defs>
      <path id="DejaVuSans-Bold-52" d="M 2297 2597 
Q 2675 2597 2839 2737 
Q 3003 2878 3003 3200 
Q 3003 3519 2839 3656 
Q 2675 3794 2297 3794 
L 1791 3794 
L 1791 2597 
L 2297 2597 
z
M 1791 1766 
L 1791 0 
L 588 0 
L 588 4666 
L 2425 4666 
Q 3347 4666 3776 4356 
Q 4206 4047 4206 3378 
Q 4206 2916 3982 2619 
Q 3759 2322 3309 2181 
Q 3556 2125 3751 1926 
Q 3947 1728 4147 1325 
L 4800 0 
L 3519 0 
L 2950 1159 
Q 2778 1509 2601 1637 
Q 2425 1766 2131 1766 
L 1791 1766 
z
" transform="scale(0.015625)"/>
      <path id="DejaVuSans-Bold-4f" d="M 2719 3878 
Q 2169 3878 1866 3472 
Q 1563 3066 1563 2328 
Q 1563 1594 1866 1187 
Q 2169 781 2719 781 
Q 3272 781 3575 1187 
Q 3878 1594 3878 2328 
Q 3878 3066 3575 3472 
Q 3272 3878 2719 3878 
z
M 2719 4750 
Q 3844 4750 4481 4106 
Q 5119 3463 5119 2328 
Q 5119 1197 4481 553 
Q 3844 -91 2719 -91 
Q 1597 -91 958 553 
Q 319 1197 319 2328 
Q 319 3463 958 4106 
Q 1597 4750 2719 4750 
z
" transform="scale(0.015625)"/>
      <path id="DejaVuSans-Bold-43" d="M 4288 256 
Q 3956 84 3597 -3 
Q 3238 -91 2847 -91 
Q 1681 -91 1000 561 
Q 319 1213 319 2328 
Q 319 3447 1000 4098 
Q 1681 4750 2847 4750 
Q 3238 4750 3597 4662 
Q 3956 4575 4288 4403 
L 4288 3438 
Q 3953 3666 3628 3772 
Q 3303 3878 2944 3878 
Q 2300 3878 1931 3465 
Q 1563 3053 1563 2328 
Q 1563 1606 1931 1193 
Q 2300 781 2944 781 
Q 3303 781 3628 887 
Q 3953 994 4288 1222 
L 4288 256 
z
" transform="scale(0.015625)"/>
      <path id="DejaVuSans-Bold-20" transform="scale(0.015625)"/>
      <path id="DejaVuSans-Bold-75" d="M 500 1363 
L 500 3500 
L 1625 3500 
L 1625 3150 
Q 1625 2866 1622 2436 
Q 1619 2006 1619 1863 
Q 1619 1441 1641 1255 
Q 1663 1069 1716 984 
Q 1784 875 1895 815 
Q 2006 756 2150 756 
Q 2500 756 2700 1025 
Q 2900 1294 2900 1772 
L 2900 3500 
L 4019 3500 
L 4019 0 
L 2900 0 
L 2900 506 
Q 2647 200 2364 54 
Q 2081 -91 1741 -91 
Q 1134 -91 817 281 
Q 500 653 500 1363 
z
" transform="scale(0.015625)"/>
      <path id="DejaVuSans-Bold-72" d="M 3138 2547 
Q 2991 2616 2845 2648 
Q 2700 2681 2553 2681 
Q 2122 2681 1889 2404 
Q 1656 2128 1656 1613 
L 1656 0 
L 538 0 
L 538 3500 
L 1656 3500 
L 1656 2925 
Q 1872 3269 2151 3426 
Q 2431 3584 2822 3584 
Q 2878 3584 2943 3579 
Q 3009 3575 3134 3559 
L 3138 2547 
z
" transform="scale(0.015625)"/>
      <path id="DejaVuSans-Bold-76" d="M 97 3500 
L 1216 3500 
L 2088 1081 
L 2956 3500 
L 4078 3500 
L 2700 0 
L 1472 0 
L 97 3500 
z
" transform="scale(0.015625)"/>
      <path id="DejaVuSans-Bold-65" d="M 4031 1759 
L 4031 1441 
L 1416 1441 
Q 1456 1047 1700 850 
Q 1944 653 2381 653 
Q 2734 653 3104 758 
Q 3475 863 3866 1075 
L 3866 213 
Q 3469 63 3072 -14 
Q 2675 -91 2278 -91 
Q 1328 -91 801 392 
Q 275 875 275 1747 
Q 275 2603 792 3093 
Q 1309 3584 2216 3584 
Q 3041 3584 3536 3087 
Q 4031 2591 4031 1759 
z
M 2881 2131 
Q 2881 2450 2695 2645 
Q 2509 2841 2209 2841 
Q 1884 2841 1681 2658 
Q 1478 2475 1428 2131 
L 2881 2131 
z
" transform="scale(0.015625)"/>
     </defs>
     <use xlink:href="#DejaVuSans-Bold-52"/>
     <use xlink:href="#DejaVuSans-Bold-4f" transform="translate(77.001953 0)"/>
     <use xlink:href="#DejaVuSans-Bold-43" transform="translate(162.011719 0)"/>
     <use xlink:href="#DejaVuSans-Bold-20" transform="translate(235.400391 0)"/>
     <use xlink:href="#DejaVuSans-Bold-43" transform="translate(270.214844 0)"/>
     <use xlink:href="#DejaVuSans-Bold-75" transform="translate(343.603516 0)"/>
     <use xlink:href="#DejaVuSans-Bold-72" transform="translate(414.794922 0)"/>
     <use xlink:href="#DejaVuSans-Bold-76" transform="translate(464.111328 0)"/>
     <use xlink:href="#DejaVuSans-Bold-65" transform="translate(529.296875 0)"/>
    </g>
   </g>
   <g id="legend_1">
    <g id="patch_7">
     <path d="M 192.21976 318.24 
L 373.83976 318.24 
Q 375.63976 318.24 375.63976 316.44 
L 375.63976 290.919375 
Q 375.63976 289.119375 373.83976 289.119375 
L 192.21976 289.119375 
Q 190.41976 289.119375 190.41976 290.919375 
L 190.41976 316.44 
Q 190.41976 318.24 192.21976 318.24 
z
" style="fill: #ffffff; opacity: 0.8; stroke: #cccccc; stroke-linejoin: miter"/>
    </g>
    <g id="line2d_16">
     <path d="M 194.01976 296.407969 
L 203.01976 296.407969 
L 212.01976 296.407969 
" style="fill: none; stroke: #ff9400; stroke-width: 2.5; stroke-linecap: round"/>
    </g>
    <g id="text_16">
     <!-- v4 — 8 features (AUROC=0.9653) -->
     <g style="fill: #262626" transform="translate(219.21976 299.557969) scale(0.09 -0.09)">
      <defs>
       <path id="DejaVuSans-2014" d="M 313 1978 
L 6088 1978 
L 6088 1528 
L 313 1528 
L 313 1978 
z
" transform="scale(0.015625)"/>
       <path id="DejaVuSans-66" d="M 2375 4863 
L 2375 4384 
L 1825 4384 
Q 1516 4384 1395 4259 
Q 1275 4134 1275 3809 
L 1275 3500 
L 2222 3500 
L 2222 3053 
L 1275 3053 
L 1275 0 
L 697 0 
L 697 3053 
L 147 3053 
L 147 3500 
L 697 3500 
L 697 3744 
Q 697 4328 969 4595 
Q 1241 4863 1831 4863 
L 2375 4863 
z
" transform="scale(0.015625)"/>
       <path id="DejaVuSans-28" d="M 1984 4856 
Q 1566 4138 1362 3434 
Q 1159 2731 1159 2009 
Q 1159 1288 1364 580 
Q 1569 -128 1984 -844 
L 1484 -844 
Q 1016 -109 783 600 
Q 550 1309 550 2009 
Q 550 2706 781 3412 
Q 1013 4119 1484 4856 
L 1984 4856 
z
" transform="scale(0.015625)"/>
       <path id="DejaVuSans-41" d="M 2188 4044 
L 1331 1722 
L 3047 1722 
L 2188 4044 
z
M 1831 4666 
L 2547 4666 
L 4325 0 
L 3669 0 
L 3244 1197 
L 1141 1197 
L 716 0 
L 50 0 
L 1831 4666 
z
" transform="scale(0.015625)"/>
       <path id="DejaVuSans-55" d="M 556 4666 
L 1191 4666 
L 1191 1831 
Q 1191 1081 1462 751 
Q 1734 422 2344 422 
Q 2950 422 3222 751 
Q 3494 1081 3494 1831 
L 3494 4666 
L 4128 4666 
L 4128 1753 
Q 4128 841 3676 375 
Q 3225 -91 2344 -91 
Q 1459 -91 1007 375 
Q 556 841 556 1753 
L 556 4666 
z
" transform="scale(0.015625)"/>
       <path id="DejaVuSans-4f" d="M 2522 4238 
Q 1834 4238 1429 3725 
Q 1025 3213 1025 2328 
Q 1025 1447 1429 934 
Q 1834 422 2522 422 
Q 3209 422 3611 934 
Q 4013 1447 4013 2328 
Q 4013 3213 3611 3725 
Q 3209 4238 2522 4238 
z
M 2522 4750 
Q 3503 4750 4090 4092 
Q 4678 3434 4678 2328 
Q 4678 1225 4090 567 
Q 3503 -91 2522 -91 
Q 1538 -91 948 565 
Q 359 1222 359 2328 
Q 359 3434 948 4092 
Q 1538 4750 2522 4750 
z
" transform="scale(0.015625)"/>
       <path id="DejaVuSans-43" d="M 4122 4306 
L 4122 3641 
Q 3803 3938 3442 4084 
Q 3081 4231 2675 4231 
Q 1875 4231 1450 3742 
Q 1025 3253 1025 2328 
Q 1025 1406 1450 917 
Q 1875 428 2675 428 
Q 3081 428 3442 575 
Q 3803 722 4122 1019 
L 4122 359 
Q 3791 134 3420 21 
Q 3050 -91 2638 -91 
Q 1578 -91 968 557 
Q 359 1206 359 2328 
Q 359 3453 968 4101 
Q 1578 4750 2638 4750 
Q 3056 4750 3426 4639 
Q 3797 4528 4122 4306 
z
" transform="scale(0.015625)"/>
       <path id="DejaVuSans-3d" d="M 678 2906 
L 4684 2906 
L 4684 2381 
L 678 2381 
L 678 2906 
z
M 678 1631 
L 4684 1631 
L 4684 1100 
L 678 1100 
L 678 1631 
z
" transform="scale(0.015625)"/>
       <path id="DejaVuSans-39" d="M 703 97 
L 703 672 
Q 941 559 1184 500 
Q 1428 441 1663 441 
Q 2288 441 2617 861 
Q 2947 1281 2994 2138 
Q 2813 1869 2534 1725 
Q 2256 1581 1919 1581 
Q 1219 1581 811 2004 
Q 403 2428 403 3163 
Q 403 3881 828 4315 
Q 1253 4750 1959 4750 
Q 2769 4750 3195 4129 
Q 3622 3509 3622 2328 
Q 3622 1225 3098 567 
Q 2575 -91 1691 -91 
Q 1453 -91 1209 -44 
Q 966 3 703 97 
z
M 1959 2075 
Q 2384 2075 2632 2365 
Q 2881 2656 2881 3163 
Q 2881 3666 2632 3958 
Q 2384 4250 1959 4250 
Q 1534 4250 1286 3958 
Q 1038 3666 1038 3163 
Q 1038 2656 1286 2365 
Q 1534 2075 1959 2075 
z
" transform="scale(0.015625)"/>
       <path id="DejaVuSans-35" d="M 691 4666 
L 3169 4666 
L 3169 4134 
L 1269 4134 
L 1269 2991 
Q 1406 3038 1543 3061 
Q 1681 3084 1819 3084 
Q 2600 3084 3056 2656 
Q 3513 2228 3513 1497 
Q 3513 744 3044 326 
Q 2575 -91 1722 -91 
Q 1428 -91 1123 -41 
Q 819 9 494 109 
L 494 744 
Q 775 591 1075 516 
Q 1375 441 1709 441 
Q 2250 441 2565 725 
Q 2881 1009 2881 1497 
Q 2881 1984 2565 2268 
Q 2250 2553 1709 2553 
Q 1456 2553 1204 2497 
Q 953 2441 691 2322 
L 691 4666 
z
" transform="scale(0.015625)"/>
       <path id="DejaVuSans-33" d="M 2597 2516 
Q 3050 2419 3304 2112 
Q 3559 1806 3559 1356 
Q 3559 666 3084 287 
Q 2609 -91 1734 -91 
Q 1441 -91 1130 -33 
Q 819 25 488 141 
L 488 750 
Q 750 597 1062 519 
Q 1375 441 1716 441 
Q 2309 441 2620 675 
Q 2931 909 2931 1356 
Q 2931 1769 2642 2001 
Q 2353 2234 1838 2234 
L 1294 2234 
L 1294 2753 
L 1863 2753 
Q 2328 2753 2575 2939 
Q 2822 3125 2822 3475 
Q 2822 3834 2567 4026 
Q 2313 4219 1838 4219 
Q 1578 4219 1281 4162 
Q 984 4106 628 3988 
L 628 4550 
Q 988 4650 1302 4700 
Q 1616 4750 1894 4750 
Q 2613 4750 3031 4423 
Q 3450 4097 3450 3541 
Q 3450 3153 3228 2886 
Q 3006 2619 2597 2516 
z
" transform="scale(0.015625)"/>
       <path id="DejaVuSans-29" d="M 513 4856 
L 1013 4856 
Q 1481 4119 1714 3412 
Q 1947 2706 1947 2009 
Q 1947 1309 1714 600 
Q 1481 -109 1013 -844 
L 513 -844 
Q 928 -128 1133 580 
Q 1338 1288 1338 2009 
Q 1338 2731 1133 3434 
Q 928 4138 513 4856 
z
" transform="scale(0.015625)"/>
      </defs>
      <use xlink:href="#DejaVuSans-76"/>
      <use xlink:href="#DejaVuSans-34" transform="translate(59.179688 0)"/>
      <use xlink:href="#DejaVuSans-20" transform="translate(122.802734 0)"/>
      <use xlink:href="#DejaVuSans-2014" transform="translate(154.589844 0)"/>
      <use xlink:href="#DejaVuSans-20" transform="translate(254.589844 0)"/>
      <use xlink:href="#DejaVuSans-38" transform="translate(286.376953 0)"/>
      <use xlink:href="#DejaVuSans-20" transform="translate(350 0)"/>
      <use xlink:href="#DejaVuSans-66" transform="translate(381.787109 0)"/>
      <use xlink:href="#DejaVuSans-65" transform="translate(416.992188 0)"/>
      <use xlink:href="#DejaVuSans-61" transform="translate(478.515625 0)"/>
      <use xlink:href="#DejaVuSans-74" transform="translate(539.794922 0)"/>
      <use xlink:href="#DejaVuSans-75" transform="translate(579.003906 0)"/>
      <use xlink:href="#DejaVuSans-72" transform="translate(642.382812 0)"/>
      <use xlink:href="#DejaVuSans-65" transform="translate(681.246094 0)"/>
      <use xlink:href="#DejaVuSans-73" transform="translate(742.769531 0)"/>
      <use xlink:href="#DejaVuSans-20" transform="translate(794.869141 0)"/>
      <use xlink:href="#DejaVuSans-28" transform="translate(826.65625 0)"/>
      <use xlink:href="#DejaVuSans-41" transform="translate(865.669922 0)"/>
      <use xlink:href="#DejaVuSans-55" transform="translate(934.078125 0)"/>
      <use xlink:href="#DejaVuSans-52" transform="translate(1007.271484 0)"/>
      <use xlink:href="#DejaVuSans-4f" transform="translate(1076.753906 0)"/>
      <use xlink:href="#DejaVuSans-43" transform="translate(1155.464844 0)"/>
      <use xlink:href="#DejaVuSans-3d" transform="translate(1225.289062 0)"/>
      <use xlink:href="#DejaVuSans-30" transform="translate(1309.078125 0)"/>
      <use xlink:href="#DejaVuSans-2e" transform="translate(1372.701172 0)"/>
      <use xlink:href="#DejaVuSans-39" transform="translate(1404.488281 0)"/>
      <use xlink:href="#DejaVuSans-36" transform="translate(1468.111328 0)"/>
      <use xlink:href="#DejaVuSans-35" transform="translate(1531.734375 0)"/>
      <use xlink:href="#DejaVuSans-33" transform="translate(1595.357422 0)"/>
      <use xlink:href="#DejaVuSans-29" transform="translate(1658.980469 0)"/>
     </g>
    </g>
    <g id="line2d_17">
     <path d="M 194.01976 309.618281 
L 203.01976 309.618281 
L 212.01976 309.618281 
" style="fill: none; stroke-dasharray: 7.4,3.2; stroke-dashoffset: 0; stroke: #0279ee; stroke-width: 2"/>
    </g>
    <g id="text_17">
     <!-- v3 — 7 features (AUROC=0.9488) -->
     <g style="fill: #262626" transform="translate(219.21976 312.768281) scale(0.09 -0.09)">
      <defs>
       <path id="DejaVuSans-37" d="M 525 4666 
L 3525 4666 
L 3525 4397 
L 1831 0 
L 1172 0 
L 2766 4134 
L 525 4134 
L 525 4666 
z
" transform="scale(0.015625)"/>
      </defs>
      <use xlink:href="#DejaVuSans-76"/>
      <use xlink:href="#DejaVuSans-33" transform="translate(59.179688 0)"/>
      <use xlink:href="#DejaVuSans-20" transform="translate(122.802734 0)"/>
      <use xlink:href="#DejaVuSans-2014" transform="translate(154.589844 0)"/>
      <use xlink:href="#DejaVuSans-20" transform="translate(254.589844 0)"/>
      <use xlink:href="#DejaVuSans-37" transform="translate(286.376953 0)"/>
      <use xlink:href="#DejaVuSans-20" transform="translate(350 0)"/>
      <use xlink:href="#DejaVuSans-66" transform="translate(381.787109 0)"/>
      <use xlink:href="#DejaVuSans-65" transform="translate(416.992188 0)"/>
      <use xlink:href="#DejaVuSans-61" transform="translate(478.515625 0)"/>
      <use xlink:href="#DejaVuSans-74" transform="translate(539.794922 0)"/>
      <use xlink:href="#DejaVuSans-75" transform="translate(579.003906 0)"/>
      <use xlink:href="#DejaVuSans-72" transform="translate(642.382812 0)"/>
      <use xlink:href="#DejaVuSans-65" transform="translate(681.246094 0)"/>
      <use xlink:href="#DejaVuSans-73" transform="translate(742.769531 0)"/>
      <use xlink:href="#DejaVuSans-20" transform="translate(794.869141 0)"/>
      <use xlink:href="#DejaVuSans-28" transform="translate(826.65625 0)"/>
      <use xlink:href="#DejaVuSans-41" transform="translate(865.669922 0)"/>
      <use xlink:href="#DejaVuSans-55" transform="translate(934.078125 0)"/>
      <use xlink:href="#DejaVuSans-52" transform="translate(1007.271484 0)"/>
      <use xlink:href="#DejaVuSans-4f" transform="translate(1076.753906 0)"/>
      <use xlink:href="#DejaVuSans-43" transform="translate(1155.464844 0)"/>
      <use xlink:href="#DejaVuSans-3d" transform="translate(1225.289062 0)"/>
      <use xlink:href="#DejaVuSans-30" transform="translate(1309.078125 0)"/>
      <use xlink:href="#DejaVuSans-2e" transform="translate(1372.701172 0)"/>
      <use xlink:href="#DejaVuSans-39" transform="translate(1404.488281 0)"/>
      <use xlink:href="#DejaVuSans-34" transform="translate(1468.111328 0)"/>
      <use xlink:href="#DejaVuSans-38" transform="translate(1531.734375 0)"/>
      <use xlink:href="#DejaVuSans-38" transform="translate(1595.357422 0)"/>
      <use xlink:href="#DejaVuSans-29" transform="translate(1658.980469 0)"/>
     </g>
    </g>
   </g>
  </g>
  <g id="axes_2">
   <g id="patch_8">
    <path d="M 438.359375 322.74 
L 769.65976 322.74 
L 769.65976 64.32 
L 438.359375 64.32 
z
" style="fill: #ffffff"/>
   </g>
   <g id="matplotlib.axis_3">
    <g id="xtick_7">
     <g id="line2d_18">
      <g>
       <use xlink:href="#m764f6a78fa" x="444.730536" y="322.74" style="fill: #262626; stroke: #262626; stroke-width: 1.25"/>
      </g>
     </g>
     <g id="text_18">
      <!-- 0.0 -->
      <g style="fill: #262626" transform="translate(435.983817 340.598281) scale(0.11 -0.11)">
       <use xlink:href="#DejaVuSans-30"/>
       <use xlink:href="#DejaVuSans-2e" transform="translate(63.623047 0)"/>
       <use xlink:href="#DejaVuSans-30" transform="translate(95.410156 0)"/>
      </g>
     </g>
    </g>
    <g id="xtick_8">
     <g id="line2d_19">
      <g>
       <use xlink:href="#m764f6a78fa" x="508.442149" y="322.74" style="fill: #262626; stroke: #262626; stroke-width: 1.25"/>
      </g>
     </g>
     <g id="text_19">
      <!-- 0.2 -->
      <g style="fill: #262626" transform="translate(499.69543 340.598281) scale(0.11 -0.11)">
       <use xlink:href="#DejaVuSans-30"/>
       <use xlink:href="#DejaVuSans-2e" transform="translate(63.623047 0)"/>
       <use xlink:href="#DejaVuSans-32" transform="translate(95.410156 0)"/>
      </g>
     </g>
    </g>
    <g id="xtick_9">
     <g id="line2d_20">
      <g>
       <use xlink:href="#m764f6a78fa" x="572.153761" y="322.74" style="fill: #262626; stroke: #262626; stroke-width: 1.25"/>
      </g>
     </g>
     <g id="text_20">
      <!-- 0.4 -->
      <g style="fill: #262626" transform="translate(563.407042 340.598281) scale(0.11 -0.11)">
       <use xlink:href="#DejaVuSans-30"/>
       <use xlink:href="#DejaVuSans-2e" transform="translate(63.623047 0)"/>
       <use xlink:href="#DejaVuSans-34" transform="translate(95.410156 0)"/>
      </g>
     </g>
    </g>
    <g id="xtick_10">
     <g id="line2d_21">
      <g>
       <use xlink:href="#m764f6a78fa" x="635.865374" y="322.74" style="fill: #262626; stroke: #262626; stroke-width: 1.25"/>
      </g>
     </g>
     <g id="text_21">
      <!-- 0.6 -->
      <g style="fill: #262626" transform="translate(627.118655 340.598281) scale(0.11 -0.11)">
       <use xlink:href="#DejaVuSans-30"/>
       <use xlink:href="#DejaVuSans-2e" transform="translate(63.623047 0)"/>
       <use xlink:href="#DejaVuSans-36" transform="translate(95.410156 0)"/>
      </g>
     </g>
    </g>
    <g id="xtick_11">
     <g id="line2d_22">
      <g>
       <use xlink:href="#m764f6a78fa" x="699.576986" y="322.74" style="fill: #262626; stroke: #262626; stroke-width: 1.25"/>
      </g>
     </g>
     <g id="text_22">
      <!-- 0.8 -->
      <g style="fill: #262626" transform="translate(690.830267 340.598281) scale(0.11 -0.11)">
       <use xlink:href="#DejaVuSans-30"/>
       <use xlink:href="#DejaVuSans-2e" transform="translate(63.623047 0)"/>
       <use xlink:href="#DejaVuSans-38" transform="translate(95.410156 0)"/>
      </g>
     </g>
    </g>
    <g id="xtick_12">
     <g id="line2d_23">
      <g>
       <use xlink:href="#m764f6a78fa" x="763.288598" y="322.74" style="fill: #262626; stroke: #262626; stroke-width: 1.25"/>
      </g>
     </g>
     <g id="text_23">
      <!-- 1.0 -->
      <g style="fill: #262626" transform="translate(754.54188 340.598281) scale(0.11 -0.11)">
       <use xlink:href="#DejaVuSans-31"/>
       <use xlink:href="#DejaVuSans-2e" transform="translate(63.623047 0)"/>
       <use xlink:href="#DejaVuSans-30" transform="translate(95.410156 0)"/>
      </g>
     </g>
    </g>
    <g id="text_24">
     <!-- Recall -->
     <g style="fill: #262626" transform="translate(587.600661 355.244219) scale(0.11 -0.11)">
      <defs>
       <path id="DejaVuSans-63" d="M 3122 3366 
L 3122 2828 
Q 2878 2963 2633 3030 
Q 2388 3097 2138 3097 
Q 1578 3097 1268 2742 
Q 959 2388 959 1747 
Q 959 1106 1268 751 
Q 1578 397 2138 397 
Q 2388 397 2633 464 
Q 2878 531 3122 666 
L 3122 134 
Q 2881 22 2623 -34 
Q 2366 -91 2075 -91 
Q 1284 -91 818 406 
Q 353 903 353 1747 
Q 353 2603 823 3093 
Q 1294 3584 2113 3584 
Q 2378 3584 2631 3529 
Q 2884 3475 3122 3366 
z
" transform="scale(0.015625)"/>
      </defs>
      <use xlink:href="#DejaVuSans-52"/>
      <use xlink:href="#DejaVuSans-65" transform="translate(64.982422 0)"/>
      <use xlink:href="#DejaVuSans-63" transform="translate(126.505859 0)"/>
      <use xlink:href="#DejaVuSans-61" transform="translate(181.486328 0)"/>
      <use xlink:href="#DejaVuSans-6c" transform="translate(242.765625 0)"/>
      <use xlink:href="#DejaVuSans-6c" transform="translate(270.548828 0)"/>
     </g>
    </g>
   </g>
   <g id="matplotlib.axis_4">
    <g id="ytick_7">
     <g id="line2d_24">
      <g>
       <use xlink:href="#m8c7f3987b3" x="438.359375" y="322.74" style="fill: #262626; stroke: #262626; stroke-width: 1.25"/>
      </g>
     </g>
     <g id="text_25">
      <!-- 0.3 -->
      <g style="fill: #262626" transform="translate(411.365937 326.919141) scale(0.11 -0.11)">
       <use xlink:href="#DejaVuSans-30"/>
       <use xlink:href="#DejaVuSans-2e" transform="translate(63.623047 0)"/>
       <use xlink:href="#DejaVuSans-33" transform="translate(95.410156 0)"/>
      </g>
     </g>
    </g>
    <g id="ytick_8">
     <g id="line2d_25">
      <g>
       <use xlink:href="#m8c7f3987b3" x="438.359375" y="286.848333" style="fill: #262626; stroke: #262626; stroke-width: 1.25"/>
      </g>
     </g>
     <g id="text_26">
      <!-- 0.4 -->
      <g style="fill: #262626" transform="translate(411.365937 291.027474) scale(0.11 -0.11)">
       <use xlink:href="#DejaVuSans-30"/>
       <use xlink:href="#DejaVuSans-2e" transform="translate(63.623047 0)"/>
       <use xlink:href="#DejaVuSans-34" transform="translate(95.410156 0)"/>
      </g>
     </g>
    </g>
    <g id="ytick_9">
     <g id="line2d_26">
      <g>
       <use xlink:href="#m8c7f3987b3" x="438.359375" y="250.956667" style="fill: #262626; stroke: #262626; stroke-width: 1.25"/>
      </g>
     </g>
     <g id="text_27">
      <!-- 0.5 -->
      <g style="fill: #262626" transform="translate(411.365937 255.135807) scale(0.11 -0.11)">
       <use xlink:href="#DejaVuSans-30"/>
       <use xlink:href="#DejaVuSans-2e" transform="translate(63.623047 0)"/>
       <use xlink:href="#DejaVuSans-35" transform="translate(95.410156 0)"/>
      </g>
     </g>
    </g>
    <g id="ytick_10">
     <g id="line2d_27">
      <g>
       <use xlink:href="#m8c7f3987b3" x="438.359375" y="215.065" style="fill: #262626; stroke: #262626; stroke-width: 1.25"/>
      </g>
     </g>
     <g id="text_28">
      <!-- 0.6 -->
      <g style="fill: #262626" transform="translate(411.365937 219.244141) scale(0.11 -0.11)">
       <use xlink:href="#DejaVuSans-30"/>
       <use xlink:href="#DejaVuSans-2e" transform="translate(63.623047 0)"/>
       <use xlink:href="#DejaVuSans-36" transform="translate(95.410156 0)"/>
      </g>
     </g>
    </g>
    <g id="ytick_11">
     <g id="line2d_28">
      <g>
       <use xlink:href="#m8c7f3987b3" x="438.359375" y="179.173333" style="fill: #262626; stroke: #262626; stroke-width: 1.25"/>
      </g>
     </g>
     <g id="text_29">
      <!-- 0.7 -->
      <g style="fill: #262626" transform="translate(411.365937 183.352474) scale(0.11 -0.11)">
       <use xlink:href="#DejaVuSans-30"/>
       <use xlink:href="#DejaVuSans-2e" transform="translate(63.623047 0)"/>
       <use xlink:href="#DejaVuSans-37" transform="translate(95.410156 0)"/>
      </g>
     </g>
    </g>
    <g id="ytick_12">
     <g id="line2d_29">
      <g>
       <use xlink:href="#m8c7f3987b3" x="438.359375" y="143.281667" style="fill: #262626; stroke: #262626; stroke-width: 1.25"/>
      </g>
     </g>
     <g id="text_30">
      <!-- 0.8 -->
      <g style="fill: #262626" transform="translate(411.365937 147.460807) scale(0.11 -0.11)">
       <use xlink:href="#DejaVuSans-30"/>
       <use xlink:href="#DejaVuSans-2e" transform="translate(63.623047 0)"/>
       <use xlink:href="#DejaVuSans-38" transform="translate(95.410156 0)"/>
      </g>
     </g>
    </g>
    <g id="ytick_13">
     <g id="line2d_30">
      <g>
       <use xlink:href="#m8c7f3987b3" x="438.359375" y="107.39" style="fill: #262626; stroke: #262626; stroke-width: 1.25"/>
      </g>
     </g>
     <g id="text_31">
      <!-- 0.9 -->
      <g style="fill: #262626" transform="translate(411.365937 111.569141) scale(0.11 -0.11)">
       <use xlink:href="#DejaVuSans-30"/>
       <use xlink:href="#DejaVuSans-2e" transform="translate(63.623047 0)"/>
       <use xlink:href="#DejaVuSans-39" transform="translate(95.410156 0)"/>
      </g>
     </g>
    </g>
    <g id="ytick_14">
     <g id="line2d_31">
      <g>
       <use xlink:href="#m8c7f3987b3" x="438.359375" y="71.498333" style="fill: #262626; stroke: #262626; stroke-width: 1.25"/>
      </g>
     </g>
     <g id="text_32">
      <!-- 1.0 -->
      <g style="fill: #262626" transform="translate(411.365937 75.677474) scale(0.11 -0.11)">
       <use xlink:href="#DejaVuSans-31"/>
       <use xlink:href="#DejaVuSans-2e" transform="translate(63.623047 0)"/>
       <use xlink:href="#DejaVuSans-30" transform="translate(95.410156 0)"/>
      </g>
     </g>
    </g>
    <g id="text_33">
     <!-- Precision -->
     <g style="fill: #262626" transform="translate(405.078281 218.067734) rotate(-90) scale(0.11 -0.11)">
      <defs>
       <path id="DejaVuSans-6e" d="M 3513 2113 
L 3513 0 
L 2938 0 
L 2938 2094 
Q 2938 2591 2744 2837 
Q 2550 3084 2163 3084 
Q 1697 3084 1428 2787 
Q 1159 2491 1159 1978 
L 1159 0 
L 581 0 
L 581 3500 
L 1159 3500 
L 1159 2956 
Q 1366 3272 1645 3428 
Q 1925 3584 2291 3584 
Q 2894 3584 3203 3211 
Q 3513 2838 3513 2113 
z
" transform="scale(0.015625)"/>
      </defs>
      <use xlink:href="#DejaVuSans-50"/>
      <use xlink:href="#DejaVuSans-72" transform="translate(58.552734 0)"/>
      <use xlink:href="#DejaVuSans-65" transform="translate(97.416016 0)"/>
      <use xlink:href="#DejaVuSans-63" transform="translate(158.939453 0)"/>
      <use xlink:href="#DejaVuSans-69" transform="translate(213.919922 0)"/>
      <use xlink:href="#DejaVuSans-73" transform="translate(241.703125 0)"/>
      <use xlink:href="#DejaVuSans-69" transform="translate(293.802734 0)"/>
      <use xlink:href="#DejaVuSans-6f" transform="translate(321.585938 0)"/>
      <use xlink:href="#DejaVuSans-6e" transform="translate(382.767578 0)"/>
     </g>
    </g>
   </g>
   <g id="line2d_32">
    <path d="M 763.288598 250.956667 
L 763.288598 248.500825 
L 762.97004 248.590583 
L 762.97004 248.498333 
L 762.97004 244.922113 
L 762.651482 245.011877 
L 762.651482 244.915863 
L 762.651482 226.661397 
L 762.332924 226.749709 
L 762.332924 207.461781 
L 762.014366 207.546546 
L 762.014366 183.023304 
L 761.695808 183.100538 
L 761.695808 179.62702 
L 761.37725 179.703007 
L 761.37725 178.818973 
L 761.058692 178.894711 
L 761.058692 174.377464 
L 760.740134 174.451425 
L 760.740134 170.147943 
L 760.421576 170.220109 
L 760.421576 163.783503 
L 760.103018 163.852734 
L 760.103018 163.05044 
L 759.78446 163.11938 
L 759.78446 161.499407 
L 759.465902 161.567641 
L 759.465902 161.36366 
L 759.147344 161.431894 
L 759.147344 157.704646 
L 758.828786 157.771061 
L 758.828786 155.867418 
L 758.510227 155.932922 
L 758.510227 155.077837 
L 758.191669 155.142981 
L 758.191669 154.928261 
L 757.873111 154.993389 
L 757.873111 154.778216 
L 757.554553 154.843329 
L 757.554553 153.108811 
L 757.235995 153.173071 
L 757.235995 152.297109 
L 756.917437 152.360982 
L 756.917437 151.035863 
L 756.280321 151.162414 
L 756.280321 148.923019 
L 755.961763 148.985158 
L 755.961763 148.75911 
L 755.643205 148.821217 
L 755.643205 147.912849 
L 755.324647 147.974524 
L 755.324647 147.51787 
L 755.006089 147.579374 
L 755.006089 147.12097 
L 754.687531 147.182302 
L 754.687531 146.491491 
L 754.368973 146.55251 
L 754.368973 140.658355 
L 754.050415 140.715845 
L 754.050415 138.042447 
L 753.731857 138.098319 
L 753.731857 137.113259 
L 753.413298 137.168583 
L 753.413298 135.6775 
L 753.09474 135.731935 
L 753.09474 134.476897 
L 752.776182 134.530587 
L 752.776182 133.771909 
L 752.139066 133.878542 
L 752.139066 133.114928 
L 751.820508 133.167864 
L 751.820508 132.142874 
L 751.50195 132.195198 
L 751.50195 131.679693 
L 751.183392 131.731753 
L 751.183392 131.473153 
L 750.864834 131.525124 
L 750.864834 131.006218 
L 750.546276 131.057919 
L 750.546276 130.797609 
L 750.227718 130.849218 
L 750.227718 130.588272 
L 749.90916 130.639789 
L 749.90916 130.378205 
L 748.953486 130.532746 
L 748.953486 130.270152 
L 748.634928 130.321661 
L 748.634928 129.530554 
L 748.316369 129.581593 
L 748.316369 129.316775 
L 747.679253 129.418748 
L 747.679253 128.353274 
L 747.360695 128.403633 
L 747.360695 128.135892 
L 746.723579 128.236492 
L 746.723579 127.429248 
L 746.405021 127.479097 
L 746.405021 125.577257 
L 746.086463 125.625802 
L 746.086463 124.25164 
L 745.767905 124.299251 
L 745.767905 122.9116 
L 745.449347 122.958255 
L 745.449347 122.118973 
L 745.130789 122.165076 
L 745.130789 121.320556 
L 743.856557 121.503222 
L 743.856557 121.219817 
L 743.537999 121.265474 
L 743.537999 120.696662 
L 742.900882 120.78735 
L 742.900882 119.928863 
L 742.582324 119.973665 
L 742.582324 119.109728 
L 742.263766 119.153935 
L 742.263766 118.574845 
L 741.945208 118.618678 
L 741.945208 118.036968 
L 740.989534 118.167572 
L 740.989534 117.288827 
L 740.670976 117.331823 
L 740.670976 116.742767 
L 740.352418 116.78537 
L 740.352418 116.489772 
L 740.03386 116.532217 
L 740.03386 116.235822 
L 739.715302 116.278106 
L 739.715302 115.98091 
L 739.396744 116.023033 
L 739.396744 115.725032 
L 738.122511 115.893354 
L 738.122511 115.59381 
L 735.892605 115.889752 
L 735.892605 113.764582 
L 734.936931 113.88733 
L 734.936931 113.273309 
L 734.618373 113.313867 
L 734.618373 112.387574 
L 733.981257 112.467358 
L 733.981257 111.845759 
L 733.662699 111.885238 
L 733.662699 111.26067 
L 733.344141 111.299691 
L 733.344141 110.042094 
L 731.75135 110.232904 
L 731.75135 108.959814 
L 731.114234 109.034439 
L 731.114234 108.71402 
L 730.15856 108.825667 
L 730.15856 107.534143 
L 728.884328 107.679449 
L 728.884328 107.027458 
L 728.56577 107.063382 
L 728.56577 106.079554 
L 727.610095 106.185092 
L 727.610095 105.854919 
L 727.291537 105.889941 
L 727.291537 105.558793 
L 726.972979 105.593584 
L 726.972979 105.261455 
L 726.654421 105.296013 
L 726.654421 104.29462 
L 725.380189 104.429863 
L 725.380189 103.080028 
L 725.061631 103.112755 
L 725.061631 101.408056 
L 724.743073 101.439244 
L 724.743073 101.095846 
L 723.787399 101.188822 
L 723.787399 100.843721 
L 723.468841 100.874514 
L 723.468841 100.528358 
L 723.150283 100.558884 
L 723.150283 99.863718 
L 719.964702 100.165799 
L 719.964702 99.813721 
L 719.009028 99.904572 
L 719.009028 98.127634 
L 718.69047 98.156299 
L 718.69047 97.439452 
L 718.371912 97.467466 
L 718.371912 97.107523 
L 717.734795 97.163014 
L 717.734795 96.801569 
L 717.097679 96.856576 
L 717.097679 94.666915 
L 716.142005 94.743211 
L 716.142005 93.634163 
L 715.186331 93.707541 
L 715.186331 92.961788 
L 714.549215 93.009432 
L 714.549215 92.634537 
L 713.593541 92.705227 
L 713.593541 92.328318 
L 712.637866 92.398296 
L 712.637866 92.019354 
L 711.363634 92.111791 
L 711.363634 91.730389 
L 710.726518 91.776111 
L 710.726518 91.393035 
L 710.089402 91.438148 
L 710.089402 91.053384 
L 709.133728 91.120201 
L 709.133728 90.73332 
L 706.903821 90.888084 
L 706.903821 90.497374 
L 706.266705 90.541201 
L 706.266705 90.148737 
L 705.948147 90.170299 
L 705.948147 89.776497 
L 704.992473 89.840184 
L 704.992473 89.444167 
L 704.355357 89.485998 
L 704.355357 88.689435 
L 703.718241 88.729696 
L 703.718241 88.329127 
L 702.12545 88.428365 
L 702.12545 88.024603 
L 699.576986 88.182183 
L 699.576986 87.773791 
L 699.258428 87.793236 
L 699.258428 87.383401 
L 697.34708 87.498233 
L 697.34708 87.084582 
L 693.842941 87.294177 
L 693.842941 86.8742 
L 693.205825 86.911933 
L 693.205825 86.489939 
L 690.65736 86.638739 
L 690.65736 86.211687 
L 690.020244 86.248333 
L 690.020244 85.819198 
L 687.47178 85.963489 
L 687.47178 85.529124 
L 686.834663 85.5646 
L 686.834663 85.12808 
L 685.241873 85.214894 
L 685.241873 84.333157 
L 675.685131 84.844504 
L 675.685131 84.384969 
L 671.543876 84.611662 
L 671.543876 84.143094 
L 670.588202 84.194705 
L 670.588202 83.723015 
L 669.951086 83.756416 
L 669.951086 83.282191 
L 667.72118 83.396123 
L 667.72118 82.916153 
L 667.402622 82.931967 
L 667.402622 82.450021 
L 666.446947 82.49578 
L 666.446947 82.010537 
L 663.261367 82.159224 
L 663.261367 81.665944 
L 662.942809 81.680366 
L 662.942809 81.185005 
L 661.987135 81.22646 
L 661.987135 80.727619 
L 661.350018 80.754064 
L 661.350018 80.252398 
L 657.527322 80.405754 
L 657.527322 79.894045 
L 654.341741 80.01861 
L 654.341741 79.497962 
L 653.386067 79.533781 
L 653.386067 79.009295 
L 651.156161 79.088716 
L 651.156161 78.557209 
L 650.200486 78.589392 
L 650.200486 78.053889 
L 647.014906 78.155211 
L 647.014906 77.609917 
L 633.954025 78.024091 
L 633.954025 76.855299 
L 633.316909 76.873125 
L 633.316909 76.283889 
L 618.981796 76.671907 
L 618.981796 76.033381 
L 617.070448 76.083035 
L 617.070448 75.435262 
L 607.513706 75.663711 
L 607.513706 74.976208 
L 580.754829 75.652461 
L 567.056832 76.111658 
L 567.056832 75.198505 
L 554.31451 75.623812 
L 554.31451 74.601359 
L 535.201026 75.250075 
L 535.201026 74.00824 
L 517.998891 74.592443 
L 510.672055 74.932943 
L 510.672055 73.223894 
L 496.018384 73.713868 
L 490.284339 73.99081 
L 490.284339 71.498333 
L 444.730536 71.498333 
L 444.730536 71.498333 
" clip-path="url(#p29e7b4bac9)" style="fill: none; stroke: #ff9400; stroke-width: 2.5; stroke-linecap: round"/>
   </g>
   <g id="line2d_33">
    <path d="M 763.288598 250.956667 
L 763.288598 238.37826 
L 762.97004 238.467596 
L 762.97004 238.364786 
L 762.97004 235.758241 
L 762.651482 235.847464 
L 762.651482 235.741721 
L 762.651482 235.10484 
L 762.332924 235.194096 
L 762.332924 235.087535 
L 762.332924 219.300005 
L 762.014366 219.387255 
L 762.014366 219.012871 
L 761.695808 219.100158 
L 761.695808 203.958384 
L 761.37725 204.042432 
L 761.37725 191.77743 
L 761.058692 191.857938 
L 761.058692 188.621072 
L 760.740134 188.700585 
L 760.740134 184.016845 
L 760.421576 184.094767 
L 760.421576 179.931608 
L 760.103018 180.008023 
L 760.103018 178.051719 
L 759.78446 178.12745 
L 759.78446 176.321526 
L 759.465902 176.396614 
L 759.465902 172.704486 
L 759.147344 172.778091 
L 759.147344 171.27034 
L 758.828786 171.34338 
L 758.828786 169.817185 
L 758.510227 169.889638 
L 758.510227 169.69751 
L 758.191669 169.769982 
L 758.191669 168.610701 
L 757.873111 168.682742 
L 757.873111 167.316504 
L 757.235995 167.459623 
L 757.235995 164.681226 
L 756.598879 164.822092 
L 756.598879 164.016655 
L 756.280321 164.086851 
L 756.280321 162.050703 
L 755.643205 162.189375 
L 755.643205 158.017903 
L 755.324647 158.085233 
L 755.324647 157.447956 
L 755.006089 157.515052 
L 755.006089 157.088312 
L 754.687531 157.155284 
L 754.687531 156.726978 
L 754.368973 156.793824 
L 754.368973 155.716575 
L 754.050415 155.782941 
L 754.050415 154.914539 
L 753.731857 154.980533 
L 753.731857 154.544028 
L 753.09474 154.675847 
L 753.09474 153.797696 
L 752.776182 153.863274 
L 752.776182 150.96861 
L 751.820508 151.161032 
L 751.820508 150.483231 
L 751.50195 150.547186 
L 751.50195 149.409512 
L 751.183392 149.472906 
L 751.183392 148.325267 
L 750.864834 148.388085 
L 750.864834 147.230339 
L 750.227718 147.354899 
L 750.227718 147.121927 
L 749.90916 147.18422 
L 749.90916 143.161728 
L 749.590602 143.221647 
L 749.590602 142.981318 
L 748.953486 143.101155 
L 748.953486 142.86012 
L 748.634928 142.920038 
L 748.634928 140.73099 
L 748.316369 140.789612 
L 748.316369 140.544167 
L 747.679253 140.661392 
L 747.679253 139.178012 
L 747.360695 139.235808 
L 747.360695 138.487917 
L 746.405021 138.660422 
L 746.405021 138.158694 
L 746.086463 138.216061 
L 746.086463 137.459722 
L 745.767905 137.516684 
L 745.767905 137.009939 
L 745.449347 137.066659 
L 745.449347 136.047204 
L 744.812231 136.15956 
L 744.812231 135.389258 
L 744.493673 135.445058 
L 744.493673 133.369632 
L 743.856557 133.478656 
L 743.856557 133.216808 
L 743.537999 133.271281 
L 743.537999 132.745828 
L 743.21944 132.800029 
L 743.21944 131.742783 
L 742.263766 131.903721 
L 742.263766 131.637668 
L 741.945208 131.691316 
L 741.945208 131.424598 
L 741.62665 131.478152 
L 741.62665 130.942902 
L 741.308092 130.996168 
L 741.308092 130.727631 
L 740.989534 130.780799 
L 740.989534 130.511586 
L 740.670976 130.564655 
L 740.670976 129.482163 
L 740.352418 129.534542 
L 740.352418 129.262498 
L 740.03386 129.314774 
L 740.03386 129.042038 
L 739.715302 129.094208 
L 739.715302 128.272424 
L 739.396744 128.324084 
L 739.396744 126.665762 
L 738.759628 126.766894 
L 738.759628 126.488318 
L 738.122511 126.589403 
L 738.122511 125.749332 
L 737.803953 125.799379 
L 737.803953 125.236319 
L 737.485395 125.28603 
L 737.485395 124.436877 
L 737.166837 124.486031 
L 737.166837 123.91686 
L 736.529721 124.014565 
L 736.529721 123.728744 
L 735.892605 123.826371 
L 735.892605 123.539571 
L 735.574047 123.588299 
L 735.574047 122.145088 
L 735.255489 122.192778 
L 735.255489 120.734773 
L 734.299815 120.874915 
L 734.299815 120.580954 
L 733.981257 120.627611 
L 733.981257 119.74166 
L 733.344141 119.833816 
L 733.344141 119.239402 
L 733.025582 119.285131 
L 733.025582 118.687953 
L 732.707024 118.733284 
L 732.707024 118.133319 
L 732.388466 118.178247 
L 732.388466 117.87715 
L 731.75135 117.966771 
L 731.75135 117.664597 
L 731.432792 117.709288 
L 731.432792 116.798495 
L 729.840002 117.019472 
L 729.840002 115.791673 
L 727.928653 116.053506 
L 727.928653 115.121604 
L 726.017305 115.381783 
L 726.017305 115.068317 
L 725.698747 115.111713 
L 725.698747 114.797353 
L 725.380189 114.840566 
L 725.380189 113.892895 
L 724.743073 113.977939 
L 724.743073 113.341884 
L 724.424515 113.383981 
L 724.424515 113.064715 
L 723.787399 113.148602 
L 723.787399 112.185243 
L 722.513166 112.350637 
L 722.513166 112.027072 
L 721.238934 112.192664 
L 721.238934 111.541237 
L 720.28326 111.664572 
L 720.28326 111.336977 
L 719.646144 111.419034 
L 719.646144 110.43041 
L 719.009028 110.511014 
L 719.009028 109.847313 
L 718.69047 109.887136 
L 718.69047 109.553947 
L 718.053354 109.633229 
L 718.053354 109.298733 
L 717.734795 109.338191 
L 717.734795 109.002687 
L 717.416237 109.041918 
L 717.416237 108.705401 
L 716.779121 108.783485 
L 716.779121 107.767807 
L 716.460563 107.806026 
L 716.460563 107.465721 
L 715.823447 107.541762 
L 715.823447 107.200097 
L 715.186331 107.275817 
L 715.186331 106.589017 
L 714.867773 106.626348 
L 714.867773 106.281525 
L 714.230657 106.355768 
L 714.230657 106.009551 
L 713.912099 106.046462 
L 713.912099 105.699172 
L 712.319308 105.883245 
L 712.319308 105.533534 
L 710.726518 105.717907 
L 710.726518 105.365741 
L 709.770844 105.476299 
L 709.770844 105.122335 
L 709.452286 105.159002 
L 709.452286 104.803919 
L 707.859496 104.986716 
L 707.859496 104.629103 
L 706.903821 104.738686 
L 706.903821 104.37922 
L 706.266705 104.451965 
L 706.266705 104.090987 
L 704.355357 104.308999 
L 704.355357 103.945041 
L 703.399683 104.054044 
L 703.399683 103.688169 
L 702.444009 103.796796 
L 702.444009 103.428983 
L 701.806892 103.501061 
L 701.806892 102.761437 
L 701.488334 102.796842 
L 701.488334 102.053101 
L 700.851218 102.122622 
L 700.851218 101.748713 
L 700.214102 101.817778 
L 700.214102 101.442238 
L 699.895544 101.476499 
L 699.895544 101.099708 
L 697.984196 101.304562 
L 697.984196 100.924527 
L 694.798615 101.26829 
L 694.798615 100.883324 
L 692.568709 101.125888 
L 692.568709 100.737117 
L 690.338802 100.980774 
L 690.338802 100.194535 
L 689.06457 100.332166 
L 689.06457 99.538698 
L 687.47178 99.708229 
L 687.47178 99.307857 
L 686.834663 99.375356 
L 686.834663 98.973121 
L 684.604757 99.208811 
L 684.604757 98.802423 
L 683.967641 98.869592 
L 683.967641 98.461285 
L 683.011967 98.561271 
L 683.011967 98.150561 
L 682.374851 98.216696 
L 682.374851 97.804027 
L 682.056293 97.836745 
L 682.056293 97.422576 
L 680.463502 97.585008 
L 680.463502 97.167405 
L 679.18927 97.296883 
L 679.18927 96.876279 
L 678.552154 96.940527 
L 678.552154 96.517873 
L 677.277922 96.645361 
L 677.277922 96.219634 
L 675.366573 96.410287 
L 675.366573 95.980423 
L 673.136667 96.202987 
L 673.136667 95.332643 
L 672.499551 95.394874 
L 672.499551 94.956939 
L 670.588202 95.142383 
L 670.588202 94.70007 
L 666.765506 95.073289 
L 666.765506 94.623166 
L 665.809831 94.716662 
L 665.809831 94.263628 
L 661.668577 94.670151 
L 661.668577 94.208329 
L 661.350018 94.23961 
L 661.350018 93.77592 
L 656.890206 94.214578 
L 656.890206 93.741056 
L 656.253089 93.803889 
L 656.253089 93.327777 
L 655.934531 93.358697 
L 655.934531 92.880603 
L 654.660299 93.002613 
L 654.660299 92.037198 
L 651.793277 92.305097 
L 651.793277 91.814371 
L 651.156161 91.873515 
L 651.156161 91.380015 
L 647.333464 91.733991 
L 647.333464 91.23075 
L 646.696348 91.289565 
L 646.696348 90.783408 
L 646.059232 90.841148 
L 646.059232 89.821406 
L 644.784999 89.93212 
L 644.784999 88.900354 
L 643.510767 89.006463 
L 643.510767 88.485229 
L 643.192209 88.511203 
L 643.192209 87.987614 
L 640.962303 88.16629 
L 640.962303 87.635672 
L 636.50249 87.993711 
L 636.50249 87.450185 
L 635.546815 87.52651 
L 635.546815 86.978765 
L 627.264306 87.649583 
L 627.264306 87.077354 
L 625.990074 87.182087 
L 625.990074 86.604254 
L 624.715841 86.706667 
L 624.715841 86.123121 
L 624.397283 86.147993 
L 624.397283 85.561508 
L 620.256028 85.880012 
L 620.256028 85.278729 
L 617.389006 85.498629 
L 617.389006 84.885989 
L 615.159099 85.054538 
L 615.159099 84.432267 
L 614.840541 84.455614 
L 614.840541 83.202138 
L 614.203425 83.244697 
L 614.203425 81.977652 
L 611.973519 82.113244 
L 611.973519 81.468241 
L 607.513706 81.733599 
L 607.513706 81.069444 
L 604.009567 81.274274 
L 604.009567 80.593687 
L 596.045616 81.059638 
L 596.045616 80.342276 
L 594.134267 80.452595 
L 594.134267 79.723507 
L 586.807432 80.137465 
L 586.807432 79.369313 
L 576.613574 79.963349 
L 576.613574 79.134858 
L 575.339342 79.207761 
L 575.339342 78.367552 
L 572.790877 78.501585 
L 572.790877 77.641161 
L 571.835203 77.686552 
L 571.835203 76.815617 
L 569.923855 76.895576 
L 569.923855 76.007337 
L 562.278461 76.296684 
L 562.278461 75.347306 
L 543.802094 76.056005 
L 529.466981 76.815617 
L 528.192749 76.895576 
L 528.192749 75.561541 
L 515.450426 76.283889 
L 505.256568 77.077349 
L 503.34522 77.256355 
L 503.34522 75.357652 
L 494.107036 76.07052 
L 486.7802 76.855299 
L 481.046155 77.686552 
L 476.267784 78.605594 
L 472.445088 79.563876 
L 470.215181 80.252398 
L 470.215181 75.929403 
L 466.392484 76.700024 
L 464.799694 77.106406 
L 464.799694 71.498333 
L 444.730536 71.498333 
L 444.730536 71.498333 
" clip-path="url(#p29e7b4bac9)" style="fill: none; stroke-dasharray: 7.4,3.2; stroke-dashoffset: 0; stroke: #0279ee; stroke-width: 2"/>
   </g>
   <g id="line2d_34">
    <path d="M 438.359375 250.956667 
L 769.65976 250.956667 
" clip-path="url(#p29e7b4bac9)" style="fill: none; stroke-dasharray: 3.7,1.6; stroke-dashoffset: 0; stroke: #1a1a1a; stroke-opacity: 0.3"/>
   </g>
   <g id="patch_9">
    <path d="M 438.359375 322.74 
L 438.359375 64.32 
" style="fill: none; stroke: #262626; stroke-width: 1.25; stroke-linejoin: miter; stroke-linecap: square"/>
   </g>
   <g id="patch_10">
    <path d="M 769.65976 322.74 
L 769.65976 64.32 
" style="fill: none; stroke: #262626; stroke-width: 1.25; stroke-linejoin: miter; stroke-linecap: square"/>
   </g>
   <g id="patch_11">
    <path d="M 438.359375 322.74 
L 769.65976 322.74 
" style="fill: none; stroke: #262626; stroke-width: 1.25; stroke-linejoin: miter; stroke-linecap: square"/>
   </g>
   <g id="patch_12">
    <path d="M 438.359375 64.32 
L 769.65976 64.32 
" style="fill: none; stroke: #262626; stroke-width: 1.25; stroke-linejoin: miter; stroke-linecap: square"/>
   </g>
   <g id="text_34">
    <!-- Precision-Recall Curve -->
    <g style="fill: #262626" transform="translate(528.345817 58.32) scale(0.12 -0.12)">
     <defs>
      <path id="DejaVuSans-Bold-50" d="M 588 4666 
L 2584 4666 
Q 3475 4666 3951 4270 
Q 4428 3875 4428 3144 
Q 4428 2409 3951 2014 
Q 3475 1619 2584 1619 
L 1791 1619 
L 1791 0 
L 588 0 
L 588 4666 
z
M 1791 3794 
L 1791 2491 
L 2456 2491 
Q 2806 2491 2997 2661 
Q 3188 2831 3188 3144 
Q 3188 3456 2997 3625 
Q 2806 3794 2456 3794 
L 1791 3794 
z
" transform="scale(0.015625)"/>
      <path id="DejaVuSans-Bold-63" d="M 3366 3391 
L 3366 2478 
Q 3138 2634 2908 2709 
Q 2678 2784 2431 2784 
Q 1963 2784 1702 2511 
Q 1441 2238 1441 1747 
Q 1441 1256 1702 982 
Q 1963 709 2431 709 
Q 2694 709 2930 787 
Q 3166 866 3366 1019 
L 3366 103 
Q 3103 6 2833 -42 
Q 2563 -91 2291 -91 
Q 1344 -91 809 395 
Q 275 881 275 1747 
Q 275 2613 809 3098 
Q 1344 3584 2291 3584 
Q 2566 3584 2833 3536 
Q 3100 3488 3366 3391 
z
" transform="scale(0.015625)"/>
      <path id="DejaVuSans-Bold-69" d="M 538 3500 
L 1656 3500 
L 1656 0 
L 538 0 
L 538 3500 
z
M 538 4863 
L 1656 4863 
L 1656 3950 
L 538 3950 
L 538 4863 
z
" transform="scale(0.015625)"/>
      <path id="DejaVuSans-Bold-73" d="M 3272 3391 
L 3272 2541 
Q 2913 2691 2578 2766 
Q 2244 2841 1947 2841 
Q 1628 2841 1473 2761 
Q 1319 2681 1319 2516 
Q 1319 2381 1436 2309 
Q 1553 2238 1856 2203 
L 2053 2175 
Q 2913 2066 3209 1816 
Q 3506 1566 3506 1031 
Q 3506 472 3093 190 
Q 2681 -91 1863 -91 
Q 1516 -91 1145 -36 
Q 775 19 384 128 
L 384 978 
Q 719 816 1070 734 
Q 1422 653 1784 653 
Q 2113 653 2278 743 
Q 2444 834 2444 1013 
Q 2444 1163 2330 1236 
Q 2216 1309 1875 1350 
L 1678 1375 
Q 931 1469 631 1722 
Q 331 1975 331 2491 
Q 331 3047 712 3315 
Q 1094 3584 1881 3584 
Q 2191 3584 2531 3537 
Q 2872 3491 3272 3391 
z
" transform="scale(0.015625)"/>
      <path id="DejaVuSans-Bold-6f" d="M 2203 2784 
Q 1831 2784 1636 2517 
Q 1441 2250 1441 1747 
Q 1441 1244 1636 976 
Q 1831 709 2203 709 
Q 2569 709 2762 976 
Q 2956 1244 2956 1747 
Q 2956 2250 2762 2517 
Q 2569 2784 2203 2784 
z
M 2203 3584 
Q 3106 3584 3614 3096 
Q 4122 2609 4122 1747 
Q 4122 884 3614 396 
Q 3106 -91 2203 -91 
Q 1297 -91 786 396 
Q 275 884 275 1747 
Q 275 2609 786 3096 
Q 1297 3584 2203 3584 
z
" transform="scale(0.015625)"/>
      <path id="DejaVuSans-Bold-6e" d="M 4056 2131 
L 4056 0 
L 2931 0 
L 2931 347 
L 2931 1631 
Q 2931 2084 2911 2256 
Q 2891 2428 2841 2509 
Q 2775 2619 2662 2680 
Q 2550 2741 2406 2741 
Q 2056 2741 1856 2470 
Q 1656 2200 1656 1722 
L 1656 0 
L 538 0 
L 538 3500 
L 1656 3500 
L 1656 2988 
Q 1909 3294 2193 3439 
Q 2478 3584 2822 3584 
Q 3428 3584 3742 3212 
Q 4056 2841 4056 2131 
z
" transform="scale(0.015625)"/>
      <path id="DejaVuSans-Bold-2d" d="M 347 2297 
L 2309 2297 
L 2309 1388 
L 347 1388 
L 347 2297 
z
" transform="scale(0.015625)"/>
      <path id="DejaVuSans-Bold-61" d="M 2106 1575 
Q 1756 1575 1579 1456 
Q 1403 1338 1403 1106 
Q 1403 894 1545 773 
Q 1688 653 1941 653 
Q 2256 653 2472 879 
Q 2688 1106 2688 1447 
L 2688 1575 
L 2106 1575 
z
M 3816 1997 
L 3816 0 
L 2688 0 
L 2688 519 
Q 2463 200 2181 54 
Q 1900 -91 1497 -91 
Q 953 -91 614 226 
Q 275 544 275 1050 
Q 275 1666 698 1953 
Q 1122 2241 2028 2241 
L 2688 2241 
L 2688 2328 
Q 2688 2594 2478 2717 
Q 2269 2841 1825 2841 
Q 1466 2841 1156 2769 
Q 847 2697 581 2553 
L 581 3406 
Q 941 3494 1303 3539 
Q 1666 3584 2028 3584 
Q 2975 3584 3395 3211 
Q 3816 2838 3816 1997 
z
" transform="scale(0.015625)"/>
      <path id="DejaVuSans-Bold-6c" d="M 538 4863 
L 1656 4863 
L 1656 0 
L 538 0 
L 538 4863 
z
" transform="scale(0.015625)"/>
     </defs>
     <use xlink:href="#DejaVuSans-Bold-50"/>
     <use xlink:href="#DejaVuSans-Bold-72" transform="translate(73.291016 0)"/>
     <use xlink:href="#DejaVuSans-Bold-65" transform="translate(122.607422 0)"/>
     <use xlink:href="#DejaVuSans-Bold-63" transform="translate(190.429688 0)"/>
     <use xlink:href="#DejaVuSans-Bold-69" transform="translate(249.707031 0)"/>
     <use xlink:href="#DejaVuSans-Bold-73" transform="translate(283.984375 0)"/>
     <use xlink:href="#DejaVuSans-Bold-69" transform="translate(343.505859 0)"/>
     <use xlink:href="#DejaVuSans-Bold-6f" transform="translate(377.783203 0)"/>
     <use xlink:href="#DejaVuSans-Bold-6e" transform="translate(446.484375 0)"/>
     <use xlink:href="#DejaVuSans-Bold-2d" transform="translate(517.675781 0)"/>
     <use xlink:href="#DejaVuSans-Bold-52" transform="translate(559.179688 0)"/>
     <use xlink:href="#DejaVuSans-Bold-65" transform="translate(636.181641 0)"/>
     <use xlink:href="#DejaVuSans-Bold-63" transform="translate(704.003906 0)"/>
     <use xlink:href="#DejaVuSans-Bold-61" transform="translate(763.28125 0)"/>
     <use xlink:href="#DejaVuSans-Bold-6c" transform="translate(830.761719 0)"/>
     <use xlink:href="#DejaVuSans-Bold-6c" transform="translate(865.039062 0)"/>
     <use xlink:href="#DejaVuSans-Bold-20" transform="translate(899.316406 0)"/>
     <use xlink:href="#DejaVuSans-Bold-43" transform="translate(934.130859 0)"/>
     <use xlink:href="#DejaVuSans-Bold-75" transform="translate(1007.519531 0)"/>
     <use xlink:href="#DejaVuSans-Bold-72" transform="translate(1078.710938 0)"/>
     <use xlink:href="#DejaVuSans-Bold-76" transform="translate(1128.027344 0)"/>
     <use xlink:href="#DejaVuSans-Bold-65" transform="translate(1193.212891 0)"/>
    </g>
   </g>
   <g id="legend_2">
    <g id="patch_13">
     <path d="M 444.659375 318.24 
L 624.171406 318.24 
Q 625.971406 318.24 625.971406 316.44 
L 625.971406 290.919375 
Q 625.971406 289.119375 624.171406 289.119375 
L 444.659375 289.119375 
Q 442.859375 289.119375 442.859375 290.919375 
L 442.859375 316.44 
Q 442.859375 318.24 444.659375 318.24 
z
" style="fill: #ffffff; opacity: 0.8; stroke: #cccccc; stroke-linejoin: miter"/>
    </g>
    <g id="line2d_35">
     <path d="M 446.459375 296.407969 
L 455.459375 296.407969 
L 464.459375 296.407969 
" style="fill: none; stroke: #ff9400; stroke-width: 2.5; stroke-linecap: round"/>
    </g>
    <g id="text_35">
     <!-- v4 — 8 features (AUPRC=0.9648) -->
     <g style="fill: #262626" transform="translate(471.659375 299.557969) scale(0.09 -0.09)">
      <use xlink:href="#DejaVuSans-76"/>
      <use xlink:href="#DejaVuSans-34" transform="translate(59.179688 0)"/>
      <use xlink:href="#DejaVuSans-20" transform="translate(122.802734 0)"/>
      <use xlink:href="#DejaVuSans-2014" transform="translate(154.589844 0)"/>
      <use xlink:href="#DejaVuSans-20" transform="translate(254.589844 0)"/>
      <use xlink:href="#DejaVuSans-38" transform="translate(286.376953 0)"/>
      <use xlink:href="#DejaVuSans-20" transform="translate(350 0)"/>
      <use xlink:href="#DejaVuSans-66" transform="translate(381.787109 0)"/>
      <use xlink:href="#DejaVuSans-65" transform="translate(416.992188 0)"/>
      <use xlink:href="#DejaVuSans-61" transform="translate(478.515625 0)"/>
      <use xlink:href="#DejaVuSans-74" transform="translate(539.794922 0)"/>
      <use xlink:href="#DejaVuSans-75" transform="translate(579.003906 0)"/>
      <use xlink:href="#DejaVuSans-72" transform="translate(642.382812 0)"/>
      <use xlink:href="#DejaVuSans-65" transform="translate(681.246094 0)"/>
      <use xlink:href="#DejaVuSans-73" transform="translate(742.769531 0)"/>
      <use xlink:href="#DejaVuSans-20" transform="translate(794.869141 0)"/>
      <use xlink:href="#DejaVuSans-28" transform="translate(826.65625 0)"/>
      <use xlink:href="#DejaVuSans-41" transform="translate(865.669922 0)"/>
      <use xlink:href="#DejaVuSans-55" transform="translate(934.078125 0)"/>
      <use xlink:href="#DejaVuSans-50" transform="translate(1007.271484 0)"/>
      <use xlink:href="#DejaVuSans-52" transform="translate(1067.574219 0)"/>
      <use xlink:href="#DejaVuSans-43" transform="translate(1132.056641 0)"/>
      <use xlink:href="#DejaVuSans-3d" transform="translate(1201.880859 0)"/>
      <use xlink:href="#DejaVuSans-30" transform="translate(1285.669922 0)"/>
      <use xlink:href="#DejaVuSans-2e" transform="translate(1349.292969 0)"/>
      <use xlink:href="#DejaVuSans-39" transform="translate(1381.080078 0)"/>
      <use xlink:href="#DejaVuSans-36" transform="translate(1444.703125 0)"/>
      <use xlink:href="#DejaVuSans-34" transform="translate(1508.326172 0)"/>
      <use xlink:href="#DejaVuSans-38" transform="translate(1571.949219 0)"/>
      <use xlink:href="#DejaVuSans-29" transform="translate(1635.572266 0)"/>
     </g>
    </g>
    <g id="line2d_36">
     <path d="M 446.459375 309.618281 
L 455.459375 309.618281 
L 464.459375 309.618281 
" style="fill: none; stroke-dasharray: 7.4,3.2; stroke-dashoffset: 0; stroke: #0279ee; stroke-width: 2"/>
    </g>
    <g id="text_36">
     <!-- v3 — 7 features (AUPRC=0.9447) -->
     <g style="fill: #262626" transform="translate(471.659375 312.768281) scale(0.09 -0.09)">
      <use xlink:href="#DejaVuSans-76"/>
      <use xlink:href="#DejaVuSans-33" transform="translate(59.179688 0)"/>
      <use xlink:href="#DejaVuSans-20" transform="translate(122.802734 0)"/>
      <use xlink:href="#DejaVuSans-2014" transform="translate(154.589844 0)"/>
      <use xlink:href="#DejaVuSans-20" transform="translate(254.589844 0)"/>
      <use xlink:href="#DejaVuSans-37" transform="translate(286.376953 0)"/>
      <use xlink:href="#DejaVuSans-20" transform="translate(350 0)"/>
      <use xlink:href="#DejaVuSans-66" transform="translate(381.787109 0)"/>
      <use xlink:href="#DejaVuSans-65" transform="translate(416.992188 0)"/>
      <use xlink:href="#DejaVuSans-61" transform="translate(478.515625 0)"/>
      <use xlink:href="#DejaVuSans-74" transform="translate(539.794922 0)"/>
      <use xlink:href="#DejaVuSans-75" transform="translate(579.003906 0)"/>
      <use xlink:href="#DejaVuSans-72" transform="translate(642.382812 0)"/>
      <use xlink:href="#DejaVuSans-65" transform="translate(681.246094 0)"/>
      <use xlink:href="#DejaVuSans-73" transform="translate(742.769531 0)"/>
      <use xlink:href="#DejaVuSans-20" transform="translate(794.869141 0)"/>
      <use xlink:href="#DejaVuSans-28" transform="translate(826.65625 0)"/>
      <use xlink:href="#DejaVuSans-41" transform="translate(865.669922 0)"/>
      <use xlink:href="#DejaVuSans-55" transform="translate(934.078125 0)"/>
      <use xlink:href="#DejaVuSans-50" transform="translate(1007.271484 0)"/>
      <use xlink:href="#DejaVuSans-52" transform="translate(1067.574219 0)"/>
      <use xlink:href="#DejaVuSans-43" transform="translate(1132.056641 0)"/>
      <use xlink:href="#DejaVuSans-3d" transform="translate(1201.880859 0)"/>
      <use xlink:href="#DejaVuSans-30" transform="translate(1285.669922 0)"/>
      <use xlink:href="#DejaVuSans-2e" transform="translate(1349.292969 0)"/>
      <use xlink:href="#DejaVuSans-39" transform="translate(1381.080078 0)"/>
      <use xlink:href="#DejaVuSans-34" transform="translate(1444.703125 0)"/>
      <use xlink:href="#DejaVuSans-34" transform="translate(1508.326172 0)"/>
      <use xlink:href="#DejaVuSans-37" transform="translate(1571.949219 0)"/>
      <use xlink:href="#DejaVuSans-29" transform="translate(1635.572266 0)"/>
     </g>
    </g>
   </g>
  </g>
  <g id="text_37">
   <!-- SNV-judge v4 vs v3 Performance -->
   <g style="fill: #262626" transform="translate(270.480156 17.077969) scale(0.13 -0.13)">
    <defs>
     <path id="DejaVuSans-Bold-53" d="M 3834 4519 
L 3834 3531 
Q 3450 3703 3084 3790 
Q 2719 3878 2394 3878 
Q 1963 3878 1756 3759 
Q 1550 3641 1550 3391 
Q 1550 3203 1689 3098 
Q 1828 2994 2194 2919 
L 2706 2816 
Q 3484 2659 3812 2340 
Q 4141 2022 4141 1434 
Q 4141 663 3683 286 
Q 3225 -91 2284 -91 
Q 1841 -91 1394 -6 
Q 947 78 500 244 
L 500 1259 
Q 947 1022 1364 901 
Q 1781 781 2169 781 
Q 2563 781 2772 912 
Q 2981 1044 2981 1288 
Q 2981 1506 2839 1625 
Q 2697 1744 2272 1838 
L 1806 1941 
Q 1106 2091 782 2419 
Q 459 2747 459 3303 
Q 459 4000 909 4375 
Q 1359 4750 2203 4750 
Q 2588 4750 2994 4692 
Q 3400 4634 3834 4519 
z
" transform="scale(0.015625)"/>
     <path id="DejaVuSans-Bold-4e" d="M 588 4666 
L 1931 4666 
L 3628 1466 
L 3628 4666 
L 4769 4666 
L 4769 0 
L 3425 0 
L 1728 3200 
L 1728 0 
L 588 0 
L 588 4666 
z
" transform="scale(0.015625)"/>
     <path id="DejaVuSans-Bold-56" d="M 31 4666 
L 1241 4666 
L 2478 1222 
L 3713 4666 
L 4922 4666 
L 3194 0 
L 1759 0 
L 31 4666 
z
" transform="scale(0.015625)"/>
     <path id="DejaVuSans-Bold-6a" d="M 538 3500 
L 1656 3500 
L 1656 63 
Q 1656 -641 1318 -1011 
Q 981 -1381 341 -1381 
L -213 -1381 
L -213 -647 
L -19 -647 
Q 300 -647 419 -503 
Q 538 -359 538 63 
L 538 3500 
z
M 538 4863 
L 1656 4863 
L 1656 3950 
L 538 3950 
L 538 4863 
z
" transform="scale(0.015625)"/>
     <path id="DejaVuSans-Bold-64" d="M 2919 2988 
L 2919 4863 
L 4044 4863 
L 4044 0 
L 2919 0 
L 2919 506 
Q 2688 197 2409 53 
Q 2131 -91 1766 -91 
Q 1119 -91 703 423 
Q 288 938 288 1747 
Q 288 2556 703 3070 
Q 1119 3584 1766 3584 
Q 2128 3584 2408 3439 
Q 2688 3294 2919 2988 
z
M 2181 722 
Q 2541 722 2730 984 
Q 2919 1247 2919 1747 
Q 2919 2247 2730 2509 
Q 2541 2772 2181 2772 
Q 1825 2772 1636 2509 
Q 1447 2247 1447 1747 
Q 1447 1247 1636 984 
Q 1825 722 2181 722 
z
" transform="scale(0.015625)"/>
     <path id="DejaVuSans-Bold-67" d="M 2919 594 
Q 2688 288 2409 144 
Q 2131 0 1766 0 
Q 1125 0 706 504 
Q 288 1009 288 1791 
Q 288 2575 706 3076 
Q 1125 3578 1766 3578 
Q 2131 3578 2409 3434 
Q 2688 3291 2919 2981 
L 2919 3500 
L 4044 3500 
L 4044 353 
Q 4044 -491 3511 -936 
Q 2978 -1381 1966 -1381 
Q 1638 -1381 1331 -1331 
Q 1025 -1281 716 -1178 
L 716 -306 
Q 1009 -475 1290 -558 
Q 1572 -641 1856 -641 
Q 2406 -641 2662 -400 
Q 2919 -159 2919 353 
L 2919 594 
z
M 2181 2772 
Q 1834 2772 1640 2515 
Q 1447 2259 1447 1791 
Q 1447 1309 1634 1061 
Q 1822 813 2181 813 
Q 2531 813 2725 1069 
Q 2919 1325 2919 1791 
Q 2919 2259 2725 2515 
Q 2531 2772 2181 2772 
z
" transform="scale(0.015625)"/>
     <path id="DejaVuSans-Bold-34" d="M 2356 3675 
L 1038 1722 
L 2356 1722 
L 2356 3675 
z
M 2156 4666 
L 3494 4666 
L 3494 1722 
L 4159 1722 
L 4159 850 
L 3494 850 
L 3494 0 
L 2356 0 
L 2356 850 
L 288 850 
L 288 1881 
L 2156 4666 
z
" transform="scale(0.015625)"/>
     <path id="DejaVuSans-Bold-33" d="M 2981 2516 
Q 3453 2394 3698 2092 
Q 3944 1791 3944 1325 
Q 3944 631 3412 270 
Q 2881 -91 1863 -91 
Q 1503 -91 1142 -33 
Q 781 25 428 141 
L 428 1069 
Q 766 900 1098 814 
Q 1431 728 1753 728 
Q 2231 728 2486 893 
Q 2741 1059 2741 1369 
Q 2741 1688 2480 1852 
Q 2219 2016 1709 2016 
L 1228 2016 
L 1228 2791 
L 1734 2791 
Q 2188 2791 2409 2933 
Q 2631 3075 2631 3366 
Q 2631 3634 2415 3781 
Q 2200 3928 1806 3928 
Q 1516 3928 1219 3862 
Q 922 3797 628 3669 
L 628 4550 
Q 984 4650 1334 4700 
Q 1684 4750 2022 4750 
Q 2931 4750 3382 4451 
Q 3834 4153 3834 3553 
Q 3834 3144 3618 2883 
Q 3403 2622 2981 2516 
z
" transform="scale(0.015625)"/>
     <path id="DejaVuSans-Bold-66" d="M 2841 4863 
L 2841 4128 
L 2222 4128 
Q 1984 4128 1890 4042 
Q 1797 3956 1797 3744 
L 1797 3500 
L 2753 3500 
L 2753 2700 
L 1797 2700 
L 1797 0 
L 678 0 
L 678 2700 
L 122 2700 
L 122 3500 
L 678 3500 
L 678 3744 
Q 678 4316 997 4589 
Q 1316 4863 1984 4863 
L 2841 4863 
z
" transform="scale(0.015625)"/>
     <path id="DejaVuSans-Bold-6d" d="M 3781 2919 
Q 3994 3244 4286 3414 
Q 4578 3584 4928 3584 
Q 5531 3584 5847 3212 
Q 6163 2841 6163 2131 
L 6163 0 
L 5038 0 
L 5038 1825 
Q 5041 1866 5042 1909 
Q 5044 1953 5044 2034 
Q 5044 2406 4934 2573 
Q 4825 2741 4581 2741 
Q 4263 2741 4089 2478 
Q 3916 2216 3909 1719 
L 3909 0 
L 2784 0 
L 2784 1825 
Q 2784 2406 2684 2573 
Q 2584 2741 2328 2741 
Q 2006 2741 1831 2477 
Q 1656 2213 1656 1722 
L 1656 0 
L 531 0 
L 531 3500 
L 1656 3500 
L 1656 2988 
Q 1863 3284 2130 3434 
Q 2397 3584 2719 3584 
Q 3081 3584 3359 3409 
Q 3638 3234 3781 2919 
z
" transform="scale(0.015625)"/>
    </defs>
    <use xlink:href="#DejaVuSans-Bold-53"/>
    <use xlink:href="#DejaVuSans-Bold-4e" transform="translate(72.021484 0)"/>
    <use xlink:href="#DejaVuSans-Bold-56" transform="translate(155.712891 0)"/>
    <use xlink:href="#DejaVuSans-Bold-2d" transform="translate(225.855469 0)"/>
    <use xlink:href="#DejaVuSans-Bold-6a" transform="translate(267.359375 0)"/>
    <use xlink:href="#DejaVuSans-Bold-75" transform="translate(301.636719 0)"/>
    <use xlink:href="#DejaVuSans-Bold-64" transform="translate(372.828125 0)"/>
    <use xlink:href="#DejaVuSans-Bold-67" transform="translate(444.410156 0)"/>
    <use xlink:href="#DejaVuSans-Bold-65" transform="translate(515.992188 0)"/>
    <use xlink:href="#DejaVuSans-Bold-20" transform="translate(583.814453 0)"/>
    <use xlink:href="#DejaVuSans-Bold-76" transform="translate(618.628906 0)"/>
    <use xlink:href="#DejaVuSans-Bold-34" transform="translate(683.814453 0)"/>
    <use xlink:href="#DejaVuSans-Bold-20" transform="translate(753.394531 0)"/>
    <use xlink:href="#DejaVuSans-Bold-76" transform="translate(788.208984 0)"/>
    <use xlink:href="#DejaVuSans-Bold-73" transform="translate(853.394531 0)"/>
    <use xlink:href="#DejaVuSans-Bold-20" transform="translate(912.916016 0)"/>
    <use xlink:href="#DejaVuSans-Bold-76" transform="translate(947.730469 0)"/>
    <use xlink:href="#DejaVuSans-Bold-33" transform="translate(1012.916016 0)"/>
    <use xlink:href="#DejaVuSans-Bold-20" transform="translate(1082.496094 0)"/>
    <use xlink:href="#DejaVuSans-Bold-50" transform="translate(1117.310547 0)"/>
    <use xlink:href="#DejaVuSans-Bold-65" transform="translate(1190.601562 0)"/>
    <use xlink:href="#DejaVuSans-Bold-72" transform="translate(1258.423828 0)"/>
    <use xlink:href="#DejaVuSans-Bold-66" transform="translate(1307.740234 0)"/>
    <use xlink:href="#DejaVuSans-Bold-6f" transform="translate(1351.246094 0)"/>
    <use xlink:href="#DejaVuSans-Bold-72" transform="translate(1419.947266 0)"/>
    <use xlink:href="#DejaVuSans-Bold-6d" transform="translate(1469.263672 0)"/>
    <use xlink:href="#DejaVuSans-Bold-61" transform="translate(1573.462891 0)"/>
    <use xlink:href="#DejaVuSans-Bold-6e" transform="translate(1640.943359 0)"/>
    <use xlink:href="#DejaVuSans-Bold-63" transform="translate(1712.134766 0)"/>
    <use xlink:href="#DejaVuSans-Bold-65" transform="translate(1771.412109 0)"/>
   </g>
  </g>
 </g>
 <defs>
  <clipPath id="p9cda52ab61">
   <rect x="48.839375" y="64.32" width="331.300385" height="258.42"/>
  </clipPath>
  <clipPath id="p29e7b4bac9">
   <rect x="438.359375" y="64.32" width="331.300385" height="258.42"/>
  </clipPath>
 </defs>
</svg>
